<svg id="Livello_1" data-name="Livello 1" xmlns="http://www.w3.org/2000/svg" viewBox="0 0 482.6777 341.25">
  <defs>
    <style>
      .cls-1, .cls-2, .cls-3, .cls-4 {
        fill: none;
        stroke-miterlimit: 10;
      }

      .cls-1 {
        stroke: #fff;
        stroke-width: 2.5px;
      }

      .cls-2 {
        stroke: #1d1d1b;
        stroke-width: 0.793px;
      }

      .cls-3, .cls-4 {
        stroke: #000;
      }

      .cls-3 {
        stroke-width: 0.198px;
      }

      .cls-4 {
        stroke-width: 0.397px;
      }
    </style>
  </defs>
  <g>
    <path d="M221.4562,270.5588c-.1618-.1508-36.6463-36.32-96.848-36.3449a151.7893,151.7893,0,0,0-20.6916,1.4235,1.8448,1.8448,0,0,0-1.5491,2.0739,1.8122,1.8122,0,0,0,2.0153,1.5882h.0112a150.6322,150.6322,0,0,1,20.2142-1.4123,144.5761,144.5761,0,0,1,69.2565,17.7049,121.9331,121.9331,0,0,1,25.1073,17.6072,1.7521,1.7521,0,0,0,1.2393.522,1.7744,1.7744,0,0,0,1.2924-.5611,1.8769,1.8769,0,0,0-.0307-2.607h-.0168Zm-16.0245,9.7638c-.1647-.17-31.5914-32.73-86.0236-32.7526a139.26,139.26,0,0,0-20.6162,1.5324,1.8345,1.8345,0,0,0-1.5212,2.0879,1.809,1.809,0,0,0,2.0181,1.5714.0711.0711,0,0,1,.0223-.0027,133.9072,133.9072,0,0,1,20.1054-1.5045,126.2782,126.2782,0,0,1,61.6448,15.8766,102.257,102.257,0,0,1,21.8136,15.7622,1.7817,1.7817,0,0,0,1.2923.5527,1.7613,1.7613,0,0,0,1.2561-.5276,1.8816,1.8816,0,0,0,.0307-2.6042h-.0223Zm259.7957,53.5585h-5.6886a3.5506,3.5506,0,0,0-.8708-1.3286l-9.5154-8.9488a3.6245,3.6245,0,0,0-2.8248-2.755c-.0474-.0083-.092-.0111-.1395-.0223l-30.8629-28.9788c12.7923,1.7864,20.8339,3.3356,20.8758,3.3272a3.617,3.617,0,0,0,4.0919-2.4619,3.7412,3.7412,0,0,0-1.8617-4.4743L377.437,258.26l-.7425-.2763c-15.67-3.6817-43.8617-6.8749-59.1941-8.4436L402.8429,195.36a3.7771,3.7771,0,0,0,1.63-3.8966,3.6214,3.6214,0,0,0-3.0061-2.8806l-57.6394-8.5636-2.18.3741-40.5039,21.7382,40.1689-63.5623a3.7462,3.7462,0,0,0-.0726-4.1143,3.5368,3.5368,0,0,0-3.7458-1.4794l-29.244,6.8469-1.337.6281c-43.7529,33.3163-65.86,97.0043-73.46,123.0886-9.3646-19.6086-30.9856-30.3772-52.9472-36.4342-26.2015-7.21-53.7874-8.0333-65.5358-8.0333-3.6565,0-5.7639.0782-5.7946.0782l-1.5687.4494L39.288,257.54a3.7038,3.7038,0,0,0-1.7752,4.1478,3.6191,3.6191,0,0,0,3.4946,2.7717H43.232l-6.7129,12.0945a3.7368,3.7368,0,0,0,.0139,3.6509,3.5643,3.5643,0,0,0,3.0537,1.8451c5.7751.0976,11.36.24,16.8089.4214L8.2632,328.0892c-.0474.0419-.0642.0977-.1116.1452H3.5935a3.6842,3.6842,0,0,0,0,7.3661H206.5677l4.4548,4.5553a3.1725,3.1725,0,0,0,.3908.2736,3.993,3.993,0,0,0,.4215.2847,3.4734,3.4734,0,0,0,1.7082.5331l.0224.0028h251.662a3.6855,3.6855,0,0,0,0-7.3689M374.64,265.0684l38.84,19.0754a523.4435,523.4435,0,0,0-67.7493-4.8428c-29.844.1088-61.4577,3.3048-84.1534,15.0225.5722-.6476,1.1277-1.2812,1.7222-1.9288,13.8781-15.24,31.3485-31.6,43.8171-36.4733,6.3166.5723,47.7611,4.5414,67.5231,9.147M343.928,187.4828l46.7339,6.939L304.8477,248.91c-19.0838,7.6118-43.4291,33.8914-58.4126,51.6745a344.3866,344.3866,0,0,1,25.0711-51.46c8.5747-14.7657,16.7559-27.1923,21.6322-34.377Zm-89.5769,39.1c11.7735-27.4715,30.2126-59.8,56.2075-79.7293l19.8876-4.667-42.815,67.7325c-.0139.0279,0,.0586-.0139.0838-10.3472,15.1844-36.7608,55.624-49.1847,91.5614l-.98-24.34-.0307-.9407a332.3831,332.3831,0,0,1,16.9289-49.701m-208.5818,48.21,5.6662-10.2244c2.6936-.0642,5.376-.1088,7.9886-.1088,60.2771,0,103.7117,14.6289,132.0625,29.18,3.0787,1.58,5.8923,3.1458,8.6166,4.7005-27.9153-11.07-75.1266-21.8025-154.3339-23.547m19.2987,9.5014a3.6276,3.6276,0,0,0,.89-1.4207c44.11,1.9678,76.8571,6.8916,101.01,12.8174a268.98,268.98,0,0,0-38.9212-2.6489,454.1127,454.1127,0,0,0-80.709,8.0583Zm149.36,48.9307-3.8213-3.9078a3.5325,3.5325,0,0,0-2.54-1.0774H18.6914l18.9609-17.9617a3.0233,3.0233,0,0,0,.6923.0056,462.0926,462.0926,0,0,1,89.7024-9.8671c39.6972,0,64.95,7.3047,80.162,14.4615a76.26,76.26,0,0,1,15.9129,9.694,35.0972,35.0972,0,0,1,3.4444,3.1569ZM59.4241,257.0938c-1.4291,0-2.9085.0418-4.3572.0614l55.1943-30.6563c.89-.0252,2.49-.0614,4.7-.0614,11.3828,0,38.5416.8625,63.6713,7.7875,25.1743,6.9391,47.3619,19.723,51.5879,42.14l1.2226,34.79c-17.9673-15.3742-73.075-54.0777-172.0193-54.0609m172.5077,76.7705,5.0689-2.1157a2.2693,2.2693,0,0,1,.536-.2066,5.6756,5.6756,0,0,1,1.4039-.1926,7.7058,7.7058,0,0,1,1.6329.31,3.6288,3.6288,0,0,0,.7816,1.0746,3.5029,3.5029,0,0,0,1.7976.8457c.0893.0977.1618.1815.2484.29H231.9318Zm113.7993-47.1916a499.9239,499.9239,0,0,1,57.2458,3.5923l17.0574,16.0106c-33.4644-11.5976-62.0217-15.8822-85.8952-15.871-48.35-.0112-77.3289,17.529-89.15,26.6871,16.65-23.2651,59.25-30.5921,100.7418-30.419m84.5331,31.2313c-42.7564-7.5113-76.24-10.2886-102.2826-10.2886-37.9415-.0056-60.2269,5.8254-72.7345,11.179,13.4622-8.8092,39.178-21.007,78.8976-21.0237,25.9055-.0056,57.8207,5.2727,96.12,20.1333m-178.47,15.9715a20.4635,20.4635,0,0,0-2.2-3.8687c7.2572-4.8149,28.4679-15.0085,78.3867-15.0141,28.25,0,65.7144,3.2965,114.8628,12.7l6.5957,6.1882Z"/>
    <path d="M52.432,194.4109a9.0716,9.0716,0,0,0,11.86-4.8958c.028-.07.0559-.14.0838-.2122a9.4706,9.4706,0,0,0-4.98-12.2508l-41.3747-17.476a9.0677,9.0677,0,0,0-11.8573,4.8958c-.0307.07-.0586.14-.0865.2094a9.4759,9.4759,0,0,0,4.9768,12.2536Z"/>
    <path class="cls-1" d="M52.432,194.4109a9.0716,9.0716,0,0,0,11.86-4.8958c.028-.07.0559-.14.0838-.2122a9.4706,9.4706,0,0,0-4.98-12.2508l-41.3747-17.476a9.0677,9.0677,0,0,0-11.8573,4.8958c-.0307.07-.0586.14-.0865.2094a9.4759,9.4759,0,0,0,4.9768,12.2536Z"/>
    <path d="M480.7113,163.4824a9.071,9.071,0,0,0-11.76-5.1358l-.2094.0837-41.3077,17.6574a9.4729,9.4729,0,0,0-4.9265,12.27,9.2256,9.2256,0,0,0,4.9628,5.0689,8.8971,8.8971,0,0,0,7.0033-.0168l41.31-17.6546a9.475,9.475,0,0,0,4.9266-12.2732"/>
    <path class="cls-1" d="M480.7113,163.4824a9.071,9.071,0,0,0-11.76-5.1358l-.2094.0837-41.3077,17.6574a9.4729,9.4729,0,0,0-4.9265,12.27,9.2256,9.2256,0,0,0,4.9628,5.0689,8.8971,8.8971,0,0,0,7.0033-.0168l41.31-17.6546A9.475,9.475,0,0,0,480.7113,163.4824Z"/>
    <path d="M345.7845,6.9284,328.3084,48.3115a9.0717,9.0717,0,0,0,4.8959,11.86q.1047.046.2093.0838a9.4759,9.4759,0,0,0,12.2536-4.9768l17.476-41.3859A9.0706,9.0706,0,0,0,358.25,2.0353c-.07-.0279-.14-.0558-.2121-.0837a9.4769,9.4769,0,0,0-12.2536,4.9768"/>
    <path class="cls-1" d="M345.7845,6.9284,328.3084,48.3115a9.0717,9.0717,0,0,0,4.8959,11.86q.1047.046.2093.0838a9.4759,9.4759,0,0,0,12.2536-4.9768l17.476-41.3859A9.0706,9.0706,0,0,0,358.25,2.0353c-.07-.0279-.14-.0558-.2121-.0837A9.4769,9.4769,0,0,0,345.7845,6.9284Z"/>
    <path d="M140.3126,7.3783A9.4788,9.4788,0,0,0,128.04,2.449,9.07,9.07,0,0,0,122.898,14.2c.0279.0753.0586.1479.0893.2177L140.642,55.7284a9.2347,9.2347,0,0,0,5.0912,4.9405,9.5782,9.5782,0,0,0,7.1847-.0139A9.0759,9.0759,0,0,0,158.051,48.89c-.0251-.07-.053-.1367-.0809-.2037Z"/>
    <path class="cls-1" d="M140.3126,7.3783A9.4788,9.4788,0,0,0,128.04,2.449,9.07,9.07,0,0,0,122.898,14.2c.0279.0753.0586.1479.0893.2177L140.642,55.7284a9.2347,9.2347,0,0,0,5.0912,4.9405,9.5782,9.5782,0,0,0,7.1847-.0139A9.0759,9.0759,0,0,0,158.051,48.89c-.0251-.07-.053-.1367-.0809-.2037Z"/>
    <path d="M273.5159,68.1405h0a.8151.8151,0,0,1-.77-.77l-1.51-18.8131c-.4522-4.9014.4857-8.1588,2.28-8.1588,1.7975,0,2.7326,3.2574,2.28,8.1588L274.2835,67.37a.81.81,0,0,1-.7676.77"/>
    <path class="cls-2" d="M273.5159,68.1405h0a.8151.8151,0,0,1-.77-.77l-1.51-18.8131c-.4522-4.9014.4857-8.1588,2.28-8.1588,1.7975,0,2.7326,3.2574,2.28,8.1588L274.2835,67.37a.81.81,0,0,1-.7676.77"/>
    <path d="M273.5159,81.1969h0a.8152.8152,0,0,1,.77.77l1.51,18.8131c.4522,4.9014-.4829,8.1588-2.28,8.1588-1.7948,0-2.7327-3.2574-2.2777-8.1588l1.51-18.8131a.8106.8106,0,0,1,.7676-.77"/>
    <path class="cls-2" d="M273.5159,81.1969h0a.8152.8152,0,0,1,.77.77l1.51,18.8131c.4522,4.9014-.4829,8.1588-2.28,8.1588-1.7948,0-2.7327-3.2574-2.2777-8.1588l1.51-18.8131a.8106.8106,0,0,1,.7676-.77"/>
    <path d="M280.0438,74.6687h0a.8151.8151,0,0,1,.77-.77l18.813-1.51c4.9014-.4522,8.1588.4829,8.1588,2.28,0,1.7948-3.2574,2.7327-8.1588,2.2777l-18.813-1.51a.81.81,0,0,1-.77-.7676"/>
    <path class="cls-2" d="M280.0438,74.6687h0a.8151.8151,0,0,1,.77-.77l18.813-1.51c4.9014-.4522,8.1588.4829,8.1588,2.28,0,1.7948-3.2574,2.7327-8.1588,2.2777l-18.813-1.51a.81.81,0,0,1-.77-.7676"/>
    <path d="M266.9883,74.6687h0a.8153.8153,0,0,1-.77.77l-18.8131,1.51c-4.9014.4522-8.1588-.4857-8.1588-2.2777,0-1.7948,3.2574-2.7354,8.1588-2.2832l18.8131,1.5128a.8106.8106,0,0,1,.77.7676"/>
    <path class="cls-2" d="M266.9883,74.6687h0a.8153.8153,0,0,1-.77.77l-18.8131,1.51c-4.9014.4522-8.1588-.4857-8.1588-2.2777,0-1.7948,3.2574-2.7354,8.1588-2.2832l18.8131,1.5128a.8106.8106,0,0,1,.77.7676"/>
    <path d="M280.8879,65.5034h0a.74.74,0,0,1-.1508-.9407l8.5859-10.7184c2.1912-2.8359,4.5274-3.8435,5.7975-2.5735s.2623,3.6035-2.5736,5.7974l-10.7212,8.5859a.7392.7392,0,0,1-.9378-.1507"/>
    <path class="cls-2" d="M280.8879,65.5034h0a.74.74,0,0,1-.1508-.9407l8.5859-10.7184c2.1912-2.8359,4.5274-3.8435,5.7975-2.5735s.2623,3.6035-2.5736,5.7974l-10.7212,8.5859a.7392.7392,0,0,1-.9378-.1507"/>
    <path d="M264.73,81.6578h0a.74.74,0,0,1,.1507.9406l-8.5859,10.7184c-2.1911,2.8359-4.5274,3.8436-5.7974,2.5736s-.2624-3.6035,2.5735-5.7975L263.7917,81.51a.7319.7319,0,0,1,.9379.148"/>
    <path class="cls-2" d="M264.73,81.6578h0a.74.74,0,0,1,.1507.9406l-8.5859,10.7184c-2.1911,2.8359-4.5274,3.8436-5.7974,2.5736s-.2624-3.6035,2.5735-5.7975L263.7917,81.51a.7319.7319,0,0,1,.9379.148"/>
    <path d="M280.8856,81.6594h0a.7358.7358,0,0,1,.9407-.1479l10.7184,8.5831c2.8359,2.1911,3.8435,4.5274,2.5735,5.7974s-3.6035.2624-5.7974-2.5735l-8.5831-10.7212a.732.732,0,0,1,.1479-.9379"/>
    <path class="cls-2" d="M280.8856,81.6594h0a.7358.7358,0,0,1,.9407-.1479l10.7184,8.5831c2.8359,2.1911,3.8435,4.5274,2.5735,5.7974s-3.6035.2624-5.7974-2.5735l-8.5831-10.7212a.732.732,0,0,1,.1479-.9379"/>
    <path d="M264.7318,65.5017h0a.7354.7354,0,0,1-.9406.1479l-10.7184-8.583c-2.8332-2.1912-3.8436-4.5275-2.5736-5.7975s3.6063-.2623,5.7975,2.5736l8.583,10.7211a.7318.7318,0,0,1-.1479.9379"/>
    <path class="cls-2" d="M264.7318,65.5017h0a.7354.7354,0,0,1-.9406.1479l-10.7184-8.583c-2.8332-2.1912-3.8436-4.5275-2.5736-5.7975s3.6063-.2623,5.7975,2.5736l8.583,10.7211a.7318.7318,0,0,1-.1479.9379"/>
    <path d="M242.169,167.2972a4.9213,4.9213,0,0,0-4.011-3.3829l-19.0224-2.7634-8.4966-17.2332a4.9747,4.9747,0,0,0-8.9208-.0139l-8.4938,17.2471-19.0251,2.7634a4.9741,4.9741,0,0,0-2.7494,8.4882l13.7525,13.4119L181.9617,204.77a4.9609,4.9609,0,0,0,7.2126,5.2336l17.0043-8.9515,17.0071,8.9515a4.9594,4.9594,0,0,0,7.2824-4.4269,4.8656,4.8656,0,0,0-.0726-.8067l-3.2378-18.9554L240.91,172.4025a4.9578,4.9578,0,0,0,1.2588-5.1053m-18.6762,14.8914a5.0119,5.0119,0,0,0-1.4264,4.41l3.2016,18.6846-16.7726-8.82a4.9922,4.9922,0,0,0-4.6307,0l-16.7727,8.82,3.2016-18.6846a4.9793,4.9793,0,0,0-1.4291-4.3963l-13.5739-13.2472,18.7544-2.7271a4.94,4.94,0,0,0,3.74-2.7131l8.3933-17.0127,8.3961,16.9987a4.9275,4.9275,0,0,0,3.7375,2.7271l18.7684,2.7271Z"/>
    <path class="cls-3" d="M242.169,167.2972a4.9213,4.9213,0,0,0-4.011-3.3829l-19.0224-2.7634-8.4966-17.2332a4.9747,4.9747,0,0,0-8.9208-.0139l-8.4938,17.2471-19.0251,2.7634a4.9741,4.9741,0,0,0-2.7494,8.4882l13.7525,13.4119L181.9617,204.77a4.9609,4.9609,0,0,0,7.2126,5.2336l17.0043-8.9515,17.0071,8.9515a4.9594,4.9594,0,0,0,7.2824-4.4269,4.8656,4.8656,0,0,0-.0726-.8067l-3.2378-18.9554L240.91,172.4025A4.9578,4.9578,0,0,0,242.169,167.2972Zm-18.6762,14.8914a5.0119,5.0119,0,0,0-1.4264,4.41l3.2016,18.6846-16.7726-8.82a4.9922,4.9922,0,0,0-4.6307,0l-16.7727,8.82,3.2016-18.6846a4.9793,4.9793,0,0,0-1.4291-4.3963l-13.5739-13.2472,18.7544-2.7271a4.94,4.94,0,0,0,3.74-2.7131l8.3933-17.0127,8.3961,16.9987a4.9275,4.9275,0,0,0,3.7375,2.7271l18.7684,2.7271Z"/>
    <path d="M132.3073,109.4034l-.2149-.4327A31.5171,31.5171,0,0,0,73.25,120.2418H69.172a17.3432,17.3432,0,0,0,0,34.6841h60.3441a23.3452,23.3452,0,0,0,23.1925-23.4131c-.215-12.569-8.3766-21.4591-20.4013-22.1094m-2.7912,40.97H69.172a13.0064,13.0064,0,0,1,0-26.0116h7.9467l.2121-1.9511a27.2276,27.2276,0,0,1,50.8957-11.4888l1.29,3.0341h1.2867c10.3081,0,17.3951,7.154,17.3951,17.7747a18.7381,18.7381,0,0,1-18.6818,18.6427"/>
    <path class="cls-4" d="M132.3073,109.4034l-.2149-.4327A31.5171,31.5171,0,0,0,73.25,120.2418H69.172a17.3432,17.3432,0,0,0,0,34.6841h60.3441a23.3452,23.3452,0,0,0,23.1925-23.4131C152.4936,118.9438,144.332,110.0537,132.3073,109.4034Zm-2.7912,40.97H69.172a13.0064,13.0064,0,0,1,0-26.0116h7.9467l.2121-1.9511a27.2276,27.2276,0,0,1,50.8957-11.4888l1.29,3.0341h1.2867c10.3081,0,17.3951,7.154,17.3951,17.7747A18.7381,18.7381,0,0,1,129.5161,150.3733Z"/>
    <path d="M382.2357,132.1518h0a.8153.8153,0,0,1-.77-.77l-1.51-18.8131c-.4521-4.9014.4829-8.1588,2.2805-8.1588s2.7326,3.2574,2.2776,8.1588l-1.51,18.8131a.8106.8106,0,0,1-.7676.77"/>
    <path class="cls-2" d="M382.2357,132.1518h0a.8153.8153,0,0,1-.77-.77l-1.51-18.8131c-.4521-4.9014.4829-8.1588,2.2805-8.1588s2.7326,3.2574,2.2776,8.1588l-1.51,18.8131a.8106.8106,0,0,1-.7676.77"/>
    <path d="M382.2357,145.2081h0a.8152.8152,0,0,1,.77.77l1.51,18.8131c.4522,4.9014-.4828,8.1588-2.28,8.1588s-2.7326-3.2574-2.2777-8.1588l1.51-18.8131a.8106.8106,0,0,1,.7676-.77"/>
    <path class="cls-2" d="M382.2357,145.2081h0a.8152.8152,0,0,1,.77.77l1.51,18.8131c.4522,4.9014-.4828,8.1588-2.28,8.1588s-2.7326-3.2574-2.2777-8.1588l1.51-18.8131a.8106.8106,0,0,1,.7676-.77"/>
    <path d="M388.7639,138.68h0a.8152.8152,0,0,1,.77-.77l18.8131-1.51c4.9014-.4522,8.1588.4829,8.1588,2.28s-3.2574,2.7327-8.1588,2.2777l-18.8131-1.51a.81.81,0,0,1-.77-.7676"/>
    <path class="cls-2" d="M388.7639,138.68h0a.8152.8152,0,0,1,.77-.77l18.8131-1.51c4.9014-.4522,8.1588.4829,8.1588,2.28s-3.2574,2.7327-8.1588,2.2777l-18.8131-1.51a.81.81,0,0,1-.77-.7676"/>
    <path d="M375.7087,138.68h0a.8154.8154,0,0,1-.77.77l-18.8131,1.51c-4.9014.4522-8.1588-.4829-8.1588-2.2777s3.2574-2.7354,8.1588-2.28l18.8131,1.51a.8106.8106,0,0,1,.77.7675"/>
    <path class="cls-2" d="M375.7087,138.68h0a.8154.8154,0,0,1-.77.77l-18.8131,1.51c-4.9014.4522-8.1588-.4829-8.1588-2.2777s3.2574-2.7354,8.1588-2.28l18.8131,1.51a.8106.8106,0,0,1,.77.7675"/>
    <path d="M389.6074,129.5143h0a.7356.7356,0,0,1-.148-.9406l8.5831-10.7184c2.1912-2.8359,4.5275-3.8436,5.7975-2.5736s.2624,3.6035-2.5736,5.7975l-10.7211,8.5858a.7391.7391,0,0,1-.9379-.1507"/>
    <path class="cls-2" d="M389.6074,129.5143h0a.7356.7356,0,0,1-.148-.9406l8.5831-10.7184c2.1912-2.8359,4.5275-3.8436,5.7975-2.5736s.2624,3.6035-2.5736,5.7975l-10.7211,8.5858a.7391.7391,0,0,1-.9379-.1507"/>
    <path d="M373.4494,145.6689h0a.7358.7358,0,0,1,.1479.9407l-8.5831,10.7184c-2.1911,2.8359-4.5274,3.8436-5.7974,2.5736s-.2624-3.6036,2.5735-5.7975l10.7212-8.5831a.732.732,0,0,1,.9379.1479"/>
    <path class="cls-2" d="M373.4494,145.6689h0a.7358.7358,0,0,1,.1479.9407l-8.5831,10.7184c-2.1911,2.8359-4.5274,3.8436-5.7974,2.5736s-.2624-3.6036,2.5735-5.7975l10.7212-8.5831a.732.732,0,0,1,.9379.1479"/>
    <path d="M389.6055,145.6709h0a.7356.7356,0,0,1,.9406-.1479l10.7184,8.5831c2.8359,2.1911,3.8435,4.5274,2.5735,5.7974s-3.6035.2624-5.7974-2.5763l-8.5831-10.7184a.7319.7319,0,0,1,.148-.9379"/>
    <path class="cls-2" d="M389.6055,145.6709h0a.7356.7356,0,0,1,.9406-.1479l10.7184,8.5831c2.8359,2.1911,3.8435,4.5274,2.5735,5.7974s-3.6035.2624-5.7974-2.5763l-8.5831-10.7184a.7319.7319,0,0,1,.148-.9379"/>
    <path d="M373.4514,129.5129h0a.74.74,0,0,1-.9407.1507l-10.7184-8.5858c-2.8331-2.1912-3.8435-4.5274-2.5736-5.7975s3.6064-.2623,5.7975,2.5736l8.5859,10.7212a.7392.7392,0,0,1-.1507.9378"/>
    <path class="cls-2" d="M373.4514,129.5129h0a.74.74,0,0,1-.9407.1507l-10.7184-8.5858c-2.8331-2.1912-3.8435-4.5274-2.5736-5.7975s3.6064-.2623,5.7975,2.5736l8.5859,10.7212a.7392.7392,0,0,1-.1507.9378"/>
  </g>
</svg>
