<svg id="Livello_1" data-name="Livello 1" xmlns="http://www.w3.org/2000/svg" viewBox="0 0 455.3247 415">
  <defs>
    <style>
      .cls-1 {
        fill: none;
      }

      .cls-2 {
        fill: #fff;
      }
    </style>
  </defs>
  <g>
    <g>
      <path class="cls-1" d="M113.1481,163.1258c.0517.6464.0968,1.2839.1362,1.9212l10.3238.4489h1.6973l4.4191.0659V109.9581h-2.5993a19.3636,19.3636,0,0,1-3.0819-.3361,10.91,10.91,0,0,1-8.52-8.2805,10.6445,10.6445,0,0,1,3.7543-10.9647,9.6824,9.6824,0,0,1,8.5819-1.7034,10.8571,10.8571,0,0,1,8.1918,10.64v4.3182h11.2314V99.3136a10.8571,10.8571,0,0,1,8.1917-10.64,9.7222,9.7222,0,0,1,8.5857,1.7034,10.65,10.65,0,0,1,3.75,10.9647,10.9017,10.9017,0,0,1-8.5124,8.2767,18.9876,18.9876,0,0,1-2.97.34h-2.719v55.5536l1.06-.0158h.679l11.8811-.5093c.6989-.0365,1.3958-.0783,2.0937-.1173.0367-.578.0779-1.1568.1248-1.7429a50.9529,50.9529,0,0,1,1.2667-7.4851,69.2551,69.2551,0,0,1,2.1663-7.3025,12.4142,12.4142,0,0,0-1.578,2.3905,19.8161,19.8161,0,0,0-1.867,4.7524l-.3126,1.3467a68.4844,68.4844,0,0,0-11.1645-2.0648l.4446-1.8278a30.7494,30.7494,0,0,1,2.8854-7.8076,28.1939,28.1939,0,0,1,5.4314-6.6195,43,43,0,0,0,8.1362-10.5884c2.6132.6367,5.2382,1.2048,7.8856,1.6448l7.369-11.4649a55.7122,55.7122,0,0,0-48.1652-82.3128h-.3362a55.6935,55.6935,0,0,0-49.0119,82.4978l7.7675,12.07q2.5524-.3744,5.0813-.8713a40.817,40.817,0,0,0,2.5469,3.9329.365.365,0,0,1,.3394.34,58.5226,58.5226,0,0,0,4.413,4.7525,27.3693,27.3693,0,0,1,5.2617,6.6195,25.1327,25.1327,0,0,1,3.0551,7.9773l.1583.77c-3.2817-.2089-6.57-.3234-9.8687-.3059.186.688.3652,1.3776.53,2.0707A50.9684,50.9684,0,0,1,113.1481,163.1258Z"/>
      <path class="cls-1" d="M105.7239,157.1078a63.9391,63.9391,0,0,0-5.189-14.13c-16.3829,1.371-31.7465,3.8932-43.97,7.2422a87.5519,87.5519,0,0,0-15.6152,5.4314,430.1181,430.1181,0,0,0,65.9641,9.0373c-.0243-.3488-.0486-.6973-.0772-1.0537A43.7054,43.7054,0,0,0,105.7239,157.1078Z"/>
      <polygon class="cls-1" points="134.571 233.334 148.024 233.334 148.826 230.445 133.769 230.445 134.571 233.334"/>
      <path class="cls-1" d="M59.11,222.8649a3.0565,3.0565,0,1,0,0,4.4129,2.8994,2.8994,0,0,0,0-4.4129Z"/>
      <path class="cls-1" d="M168.056,187.5491v24.6351h1.0621a3.1669,3.1669,0,0,1,0,6.3338H168.056v2.5261a9.4121,9.4121,0,0,1-9.4007,9.4007h-3.2626l-1.9167,6.9058a3.1635,3.1635,0,0,1-3.0472,2.3175H132.1645a3.1635,3.1635,0,0,1-3.0472-2.3175l-1.9167-6.9058H123.938a9.4122,9.4122,0,0,1-9.4008-9.4007V218.518h-1.062a3.1669,3.1669,0,0,1,0-6.3338h1.062V187.5491a14.411,14.411,0,0,1-7.3346-11.4344c-26.9133-1.6447-52.9489-5.27-76.0977-10.9583-.5092,2.546-1.0184,5.2616-1.3579,7.9773a90.3367,90.3367,0,0,0-1.0184,13.7482,101.9335,101.9335,0,0,0,1.0184,14.5968,96.5552,96.5552,0,0,0,3.0552,14.2575,4.8727,4.8727,0,0,1-.34,4.0735c-2.3762,4.9222-5.4314,12.2206-8.4865,19.8584-4.5828,11.2023-9.1655,23.7624-11.8812,31.23l17.652,2.7157a5.7705,5.7705,0,0,1,4.9222,5.2617l2.0368,19.8585,19.1795,1.3578a5.8205,5.8205,0,0,1,5.2617,6.11,5.46,5.46,0,0,1-3.9038,4.9222c-6.11,2.546-4.9222,2.546-11.0325,4.7525-3.7341,1.5275-2.7157,2.8854-2.0368,4.5827,2.0368,5.0919,4.0736,10.1839,3.5644,13.5784v.17a23.4129,23.4129,0,0,0-.34,4.2433c0,5.6011,2.7157,14.7665,22.065,14.7665,26.478,0,35.1343.17,37.3408.17a128.3724,128.3724,0,0,0,31.57-9.505c8.826-3.9038,17.4822-8.9957,24.2715-15.106a5.6471,5.6471,0,1,1,7.6378,8.3168c-7.6378,7.1287-17.4822,12.9-27.3266,17.3125a149.8241,149.8241,0,0,1-29.8726,9.505l2.2065,39.5472H225.786l-6.7892-106.4212a5.8126,5.8126,0,0,1,.6789-3.0551c13.0693-24.7807,20.8768-48.2035,24.4412-69.7593,3.3946-21.0467,2.8854-40.5656-1.0184-57.7085a436.241,436.241,0,0,1-67.6959,9.437,14.41,14.41,0,0,1-7.3466,11.5979ZM67.2575,235.4249a15.0711,15.0711,0,0,1-10.3536,4.2432A14.6591,14.6591,0,0,1,46.72,235.4249a14.352,14.352,0,0,1,0-20.7071,14.6588,14.6588,0,0,1,10.1838-4.2433,14.6423,14.6423,0,0,1,10.3536,24.95Z"/>
      <path class="cls-1" d="M136.1682,177.0375h-.1174v6.2357l4.5726-.0021,6.6588.0026v-6.2519Q141.7282,177.0863,136.1682,177.0375Z"/>
      <path class="cls-1" d="M115.9248,180.753a8.4123,8.4123,0,0,0,6.0367,2.5261l7.763-.0032v-6.25q-8.0687-.1638-16.0842-.5568A8.4336,8.4336,0,0,0,115.9248,180.753Z"/>
      <path class="cls-1" d="M153.6085,183.277l7.0255.0026a8.5051,8.5051,0,0,0,8.35-6.9523q-7.6535.4017-15.3755.5852Z"/>
      <path class="cls-1" d="M142.0372,109.9581h-5.9864v55.6981l.6266.0094a43.0982,43.0982,0,0,0,6.6195,0l3.9853-.06v-55.648Z"/>
      <path class="cls-1" d="M158.0615,103.4116a4.6443,4.6443,0,0,0,3.5918-3.5379,4.3227,4.3227,0,0,0-1.5062-4.5229,3.3458,3.3458,0,0,0-3.1669-.5291,4.6,4.6,0,0,0-3.3716,4.4919v4.3182h2.5992A12.4823,12.4823,0,0,0,158.0615,103.4116Z"/>
      <path class="cls-1" d="M126.3518,94.8217a4.9742,4.9742,0,0,0-1.1935-.1582,2.9936,2.9936,0,0,0-1.97.6873,4.3179,4.3179,0,0,0-1.51,4.5229,4.6523,4.6523,0,0,0,3.6,3.5416,12.591,12.591,0,0,0,1.9659.2165h2.479V99.3136A4.6,4.6,0,0,0,126.3518,94.8217Z"/>
      <path class="cls-1" d="M150.4647,189.61c-.007,0-.0123.0037-.0193.0037s-.0123-.0037-.0192-.0037l-9.8022-.0038-7.7139.0032c-.008,0-.0144.0043-.0225.0043s-.0149-.0043-.0224-.0043l-10.9043.0043c-.3726,0-.7291-.0807-1.0968-.1079v31.5391a3.0732,3.0732,0,0,0,3.0744,3.0664h34.7178a3.0732,3.0732,0,0,0,3.0745-3.0664h0V189.5054c-.3677.0267-.7242.108-1.0968.108Z"/>
      <path class="cls-1" d="M175.7571,163.6351c-.0229.2856-.0417.5638-.0619.8443a440.0687,440.0687,0,0,0,56.71-7.3,104.7187,104.7187,0,0,0-14.2574-5.4314,228.0735,228.0735,0,0,0-36.8-7.3187,63.655,63.655,0,0,0-4.4788,12.6788A43.7938,43.7938,0,0,0,175.7571,163.6351Z"/>
      <path d="M56.9039,210.4745A14.6588,14.6588,0,0,0,46.72,214.7178a14.352,14.352,0,0,0,0,20.7071,14.6591,14.6591,0,0,0,10.1838,4.2432,14.5969,14.5969,0,1,0,0-29.1936ZM59.11,227.2778a3.0565,3.0565,0,1,1,0-4.4129,2.8994,2.8994,0,0,1,0,4.4129Z"/>
      <path d="M143.2969,165.6656a43.0982,43.0982,0,0,1-6.6195,0l-.6266-.0094v11.3813h.1174q5.5573.0506,11.114-.0157V165.6061Z"/>
      <path d="M155.3478,165.4959h-.679l-1.06.0158v11.4008q7.7158-.1807,15.3755-.5852a8.588,8.588,0,0,0,.1389-1.6607c-.0484-3.8327.0093-6.803.2-9.7973-.6979.039-1.3948.0808-2.0937.1173Z"/>
      <path d="M252.7732,158.3672a6.5121,6.5121,0,0,0-1.8671-3.0551c-6.5293-5.7133-16.1995-10.327-28.1022-13.9934a3.1488,3.1488,0,0,1-3.85.542l-5.4413-3.1388a241.5858,241.5858,0,0,0-25.969-4.931l-2.0419,3.1792a67.3054,67.3054,0,0,0-4.1533,7.4589,228.0735,228.0735,0,0,1,36.8,7.3187,104.7187,104.7187,0,0,1,14.2574,5.4314,440.0687,440.0687,0,0,1-56.71,7.3c-.2481,3.4539-.2935,6.5658-.247,10.1093.0061.4575-.0109.9118-.0456,1.3625a436.241,436.241,0,0,0,67.6959-9.437c3.9038,17.1429,4.413,36.6618,1.0184,57.7085-3.5644,21.5558-11.3719,44.9786-24.4412,69.7593a5.8126,5.8126,0,0,0-.6789,3.0551l6.7892,106.4212H115.2913l-2.2065-39.5472a149.8241,149.8241,0,0,0,29.8726-9.505c9.8444-4.4129,19.6888-10.1838,27.3266-17.3125a5.6471,5.6471,0,1,0-7.6378-8.3168c-6.7893,6.11-15.4455,11.2022-24.2715,15.106a128.3724,128.3724,0,0,1-31.57,9.505c-2.2065,0-10.8628-.17-37.3408-.17-19.3493,0-22.065-9.1654-22.065-14.7665a23.4129,23.4129,0,0,1,.34-4.2433v-.17c.5092-3.3945-1.5276-8.4865-3.5644-13.5784-.6789-1.6973-1.6973-3.0552,2.0368-4.5827,6.11-2.2065,4.9222-2.2065,11.0325-4.7525a5.46,5.46,0,0,0,3.9038-4.9222,5.8205,5.8205,0,0,0-5.2617-6.11L36.706,298.7345,34.6692,278.876a5.7705,5.7705,0,0,0-4.9222-5.2617l-17.652-2.7157c2.7157-7.4681,7.2984-20.0282,11.8812-31.23,3.0551-7.6378,6.11-14.9362,8.4865-19.8584a4.8727,4.8727,0,0,0,.34-4.0735,96.5552,96.5552,0,0,1-3.0552-14.2575,101.9335,101.9335,0,0,1-1.0184-14.5968,90.3367,90.3367,0,0,1,1.0184-13.7482c.34-2.7157.8487-5.4313,1.3579-7.9773,23.1488,5.688,49.1844,9.3136,76.0977,10.9583a15.0744,15.0744,0,0,1-.0575-1.526c.0456-3.4721.0034-6.5294-.2317-9.9a430.1181,430.1181,0,0,1-65.9641-9.0373A87.5519,87.5519,0,0,1,56.5645,150.22c12.2239-3.349,27.5875-5.8712,43.97-7.2422a67.97,67.97,0,0,0-3.4431-6.0153l-3.4451-5.3571c.0862.2077.1755.4154.2585.6232-5.5013.5-10.84,1.1394-15.9762,1.9074a3.1479,3.1479,0,0,1-.998.9114L65.12,141.8607a3.1617,3.1617,0,0,1-4.18-4.54c-2.5558.5866-5.0381,1.208-7.4311,1.867-13.4087,3.7341-23.932,8.6563-30.2121,14.5968A6.55,6.55,0,0,0,21.43,156.67v.17a103.4442,103.4442,0,0,0-3.0551,14.7666,115.4453,115.4453,0,0,0-1.0184,15.2757,101.6112,101.6112,0,0,0,1.1881,16.1244,115.8777,115.8777,0,0,0,2.7157,13.7482c-2.2065,4.9222-5.0919,11.5418-7.9774,18.84-5.0919,12.73-10.1838,26.3082-12.56,33.2672a9.303,9.303,0,0,0-.6789,4.2432,12.8033,12.8033,0,0,0,1.3578,4.0736,8.3124,8.3124,0,0,0,2.8854,3.0551,8.498,8.498,0,0,0,4.0736,1.5276l15.4454,2.3762,2.2065,20.5375a5.4994,5.4994,0,0,0,5.2617,5.0919h.5092c-2.8854,3.3946-.5092,8.9957,1.867,15.106,1.3579,3.3946,2.8855,7.1287,2.8855,7.2984v.17a33.974,33.974,0,0,0-.679,6.11c0,9.8444,4.2433,26.1385,33.6067,26.1385,17.8217,0,27.3266,0,32.4186.17l2.3762,44.8089A5.626,5.626,0,0,0,110.03,414.83V415H231.8963a5.8319,5.8319,0,0,0,5.7709-5.7708v-.679l-7.1288-110.6644c13.0693-25.29,21.0467-49.3916,24.7807-71.9659C259.3927,201.1393,258.2045,178.3954,252.7732,158.3672Z"/>
      <path d="M125.3054,165.4959h-1.6973l-10.3238-.4489c.1814,2.9342.2357,5.862.1882,9.6192a8.5791,8.5791,0,0,0,.1678,1.8033q8.0078.3939,16.0842.5568V165.5618Z"/>
      <path d="M174.3576,146.8255a13.532,13.532,0,0,0-1.4772,1.5133,69.2551,69.2551,0,0,0-2.1663,7.3025,50.9529,50.9529,0,0,0-1.2667,7.4851c-.0469.5861-.0881,1.1649-.1248,1.7429q3.1935-.179,6.3726-.39c.02-.28.039-.5587.0619-.8443a43.7938,43.7938,0,0,1,1.1123-6.5273,63.655,63.655,0,0,1,4.4788-12.6788q-2.0389-.254-4.1052-.489C176.2246,144.9585,175.376,145.9768,174.3576,146.8255Z"/>
      <path d="M136.0508,109.9581h11.2314v55.648l6.3263-.0944V109.9581h2.719a18.9876,18.9876,0,0,0,2.97-.34,10.9017,10.9017,0,0,0,8.5124-8.2767,10.65,10.65,0,0,0-3.75-10.9647,9.7222,9.7222,0,0,0-8.5857-1.7034,10.8571,10.8571,0,0,0-8.1917,10.64v4.3182H136.0514V99.3136a10.8571,10.8571,0,0,0-8.1918-10.64,9.6824,9.6824,0,0,0-8.5819,1.7034,10.6445,10.6445,0,0,0-3.7543,10.9647,10.91,10.91,0,0,0,8.52,8.2805,19.3636,19.3636,0,0,0,3.0819.3361h2.5993v55.6037l6.3263.0944Zm17.5578-10.6445a4.6,4.6,0,0,1,3.3716-4.4919,3.3458,3.3458,0,0,1,3.1669.5291,4.3227,4.3227,0,0,1,1.5062,4.5229,4.6443,4.6443,0,0,1-3.5918,3.5379,12.4823,12.4823,0,0,1-1.8537.22h-2.5992Zm-23.8852,4.3182h-2.479a12.591,12.591,0,0,1-1.9659-.2165,4.6523,4.6523,0,0,1-3.6-3.5416,4.3179,4.3179,0,0,1,1.51-4.5229,2.9936,2.9936,0,0,1,1.97-.6873,4.9742,4.9742,0,0,1,1.1935.1582,4.6,4.6,0,0,1,3.3716,4.4919v4.3182h0Z"/>
      <path d="M100.3647,130.3551l-7.7675-12.07a55.6935,55.6935,0,0,1,49.0119-82.4978h.3362A55.7122,55.7122,0,0,1,190.1105,118.1l-7.369,11.4649c1.218.2024,2.44.38,3.6692.5208a28.2111,28.2111,0,0,1-1.7,3.3308q1.4232.18,2.8322.3742l8-12.4554a62.0293,62.0293,0,0,0-53.53-91.8744c-.0155,0-.6954-.0038-.7221-.0038a62.0145,62.0145,0,0,0-54.13,92.0641l6.4849,10.0841c-.0679-.1634-.1318-.3269-.2035-.49C95.7674,130.951,98.0733,130.6913,100.3647,130.3551Z"/>
      <path d="M113.2843,165.047c-.0394-.6373-.0845-1.2748-.1362-1.9212a50.9684,50.9684,0,0,0-1.2667-7.4851c-.1645-.6931-.3437-1.3827-.53-2.0707-.6438.0034-1.2879.01-1.9325.024a11.37,11.37,0,0,0-1.2566-2.8647,22.09,22.09,0,0,0-3.0551-3.9038,42.3923,42.3923,0,0,1-3.9039-3.9038c-.2233.0182-.4457.0375-.6687.0562a63.9391,63.9391,0,0,1,5.189,14.13,43.7054,43.7054,0,0,1,1.1123,6.5273c.0286.3564.0529.7049.0772,1.0537q2.4879.16,4.9833.2978Z"/>
      <path d="M166.6706,180.7536a8.4144,8.4144,0,0,1-6.0366,2.526l-7.0255-.0026v-6.3645q-3.16.074-6.3263.1093v6.2519l-6.6588-.0026-4.5726.0021v-6.2357h-5.8232c-.1678-.0032-.3353-.0078-.5031-.0112v6.25l-7.763.0032a8.5025,8.5025,0,0,1-8.3212-6.81q-3.2262-.1589-6.4377-.3548a14.411,14.411,0,0,0,7.3346,11.4344v24.6351h-1.062a3.1669,3.1669,0,0,0,0,6.3338h1.062v2.5261a9.4122,9.4122,0,0,0,9.4008,9.4007h3.2626l1.9167,6.9058a3.1635,3.1635,0,0,0,3.0472,2.3175h18.2643a3.1635,3.1635,0,0,0,3.0472-2.3175l1.9167-6.9058h3.2626a9.4121,9.4121,0,0,0,9.4007-9.4007V218.518h1.0621a3.1669,3.1669,0,0,0,0-6.3338H168.056V187.5491a14.41,14.41,0,0,0,7.3466-11.5979q-3.2007.2076-6.4186.3761A8.4338,8.4338,0,0,1,166.6706,180.7536Zm-18.647,52.5808H134.5713l-.8028-2.889h15.0579Zm13.7072-12.29h0a3.0732,3.0732,0,0,1-3.0745,3.0664H123.9385a3.0732,3.0732,0,0,1-3.0744-3.0664V189.5055c.3677.0272.7242.1079,1.0968.1079l10.9043-.0043c.0075,0,.0144.0043.0224.0043s.0145-.0043.0225-.0043l7.7139-.0032,9.8022.0038c.0069,0,.0123.0037.0192.0037s.0123-.0037.0193-.0037l10.1693.0037c.3726,0,.7291-.0813,1.0968-.108Z"/>
      <path d="M186.4107,130.0859c-1.2289-.14-2.4512-.3184-3.6692-.5208l-2.5609,3.9842a72.4244,72.4244,0,0,0-7.3,14.79,13.532,13.532,0,0,1,1.4772-1.5133c1.0184-.8487,1.867-1.867,2.8854-2.8855q2.07.2327,4.1052.489a67.3054,67.3054,0,0,1,4.1533-7.4589l2.0419-3.1792q-1.41-.1929-2.8322-.3742A28.2111,28.2111,0,0,0,186.4107,130.0859Z"/>
      <path d="M100.5349,142.9779c.223-.0187.4454-.038.6687-.0562a42.3923,42.3923,0,0,0,3.9039,3.9038,22.09,22.09,0,0,1,3.0551,3.9038,11.37,11.37,0,0,1,1.2566,2.8647c.6446-.014,1.2887-.0206,1.9325-.024a71.692,71.692,0,0,0-8.9369-20.0292l-2.05-3.1857c-2.2914.3362-4.5973.5959-6.9215.76.0717.1635.1356.327.2035.49l3.4451,5.3571A67.97,67.97,0,0,1,100.5349,142.9779Z"/>
      <path d="M113.4725,174.6662c.0475-3.7572-.0068-6.685-.1882-9.6192l-1.3876-.06q-2.4957-.1367-4.9833-.2978c.2351,3.3705.2773,6.4278.2317,9.9a15.0744,15.0744,0,0,0,.0575,1.526q3.211.1962,6.4377.3548A8.5791,8.5791,0,0,1,113.4725,174.6662Z"/>
      <path d="M169.1229,174.6666a8.588,8.588,0,0,1-.1389,1.6607q3.2173-.1691,6.4186-.3761c.0347-.4507.0517-.905.0456-1.3625-.0465-3.5435-.0011-6.6554.247-10.1093q-3.177.215-6.3726.39C169.1322,167.8636,169.0745,170.8339,169.1229,174.6666Z"/>
      <path d="M147.2822,165.6061v11.4157q3.1655-.0368,6.3263-.1093V165.5117Z"/>
      <path d="M129.7245,165.5618v11.4645c.1678.0034.3353.008.5031.0112h5.8232V165.6562Z"/>
      <path d="M142.0372,19.9641A3.1648,3.1648,0,0,0,145.2,16.8009V3.1632a3.1632,3.1632,0,1,0-6.3264,0V16.8009A3.1645,3.1645,0,0,0,142.0372,19.9641Z"/>
      <path d="M112.7264,22.5249A3.1614,3.1614,0,0,0,115.7,24.6067a3.21,3.21,0,0,0,1.0813-.1892,3.165,3.165,0,0,0,1.8927-4.0552L114.0086,7.5471A3.1644,3.1644,0,0,0,108.0607,9.71Z"/>
      <path d="M90.1128,36.8457a3.164,3.164,0,0,0,4.8511-4.0633L86.2,22.3352a3.164,3.164,0,0,0-4.8512,4.0632Z"/>
      <path d="M61.957,51.2216l11.8108,6.8207a3.1649,3.1649,0,1,0,3.1669-5.4807L65.1239,45.7408a3.165,3.165,0,1,0-3.1669,5.4808Z"/>
      <path d="M52.2243,81.177l13.4293,2.3716a3.3678,3.3678,0,0,0,.5521.0464,3.1638,3.1638,0,0,0,.5447-6.28L53.3211,74.9437a3.1645,3.1645,0,0,0-1.0968,6.2333Z"/>
      <path d="M52.769,112.7044a3.3525,3.3525,0,0,0,.5521-.0465L66.75,110.29a3.1646,3.1646,0,0,0-1.0968-6.2334l-13.4293,2.3679a3.1638,3.1638,0,0,0,.5447,6.28Z"/>
      <path d="M60.7982,140.702a3.16,3.16,0,0,0,4.322,1.1587l11.8108-6.8132a3.1479,3.1479,0,0,0,.998-.9114c-5.96.891-11.6431,1.9575-16.9886,3.1845A3.1663,3.1663,0,0,0,60.7982,140.702Z"/>
      <path d="M220.5294,142.2857a3.1775,3.1775,0,0,0,2.2745-.967q-.7107-.2189-1.4309-.4338c-2.52-.76-5.1467-1.4807-7.8606-2.163l5.4413,3.1388A3.154,3.154,0,0,0,220.5294,142.2857Z"/>
      <path d="M231.8458,106.4246l-13.4293-2.3679A3.1646,3.1646,0,0,0,217.32,110.29l13.4293,2.3678a3.3571,3.3571,0,0,0,.5521.0465,3.1638,3.1638,0,0,0,.5447-6.28Z"/>
      <path d="M214.7514,80.98a3.1636,3.1636,0,0,0,3.113,2.6148,3.3419,3.3419,0,0,0,.5521-.0466l13.4293-2.3715a3.1645,3.1645,0,0,0-1.0968-6.2333L217.32,77.3147A3.1682,3.1682,0,0,0,214.7514,80.98Z"/>
      <path d="M208.7266,58.4629a3.1641,3.1641,0,0,0,1.5794-.4212l11.8108-6.8207A3.1649,3.1649,0,1,0,218.95,45.74L207.1391,52.561a3.1622,3.1622,0,0,0,1.5875,5.9019Z"/>
      <path d="M189.4964,37.24a3.1743,3.1743,0,0,0,4.4609-.39l8.7674-10.4473a3.1664,3.1664,0,1,0-4.8511-4.0707l-8.7674,10.4473A3.1728,3.1728,0,0,0,189.4964,37.24Z"/>
      <path d="M167.2885,24.417a3.2126,3.2126,0,0,0,1.0813.1892,3.1617,3.1617,0,0,0,2.974-2.0819l4.6656-12.8151a3.1644,3.1644,0,0,0-5.9479-2.1626l-4.6656,12.8152A3.165,3.165,0,0,0,167.2885,24.417Z"/>
    </g>
    <path d="M269.4128,172.77a21.9916,21.9916,0,1,1,43.9831,0l0,19.8235a14.4444,14.4444,0,0,0,4.1814,10.0664,14.0466,14.0466,0,0,0,9.5327,4.1691h23.2012v-2.3811a1.9843,1.9843,0,0,1,1.9843-1.9843h6.1513c.3087-13.2287,11.0239-22.6651,24.2525-22.6651h30.5362c0-2.293,8.2017-2.293,8.2017-.0661v11.0238h32.2338c2.2048,0,2.2048,8.0916,0,8.0916l-32.2338,0V223.1h32.2338c2.2048,0,2.2048,8.0915,0,8.0915H421.4373v11.0238c0,2.2048-8.1136,2.2048-8.1136,0l-30.58,0c-13.2286,0-24.01-9.4806-24.2525-22.6651h-6.1293a1.9841,1.9841,0,0,1-1.9842-1.9843h0l0-2.6237H328.78c-.0039-.0159-.0091-.0319-.0132-.0478l-1.1229,0c-6.5544-.0724-11.5656-2.1795-15.6419-6.35a21.28,21.28,0,0,1-6.35-15.6419l0-19.8235a14.403,14.403,0,0,0-28.8059,0v19.5137a22.0764,22.0764,0,0,1-21.9916,21.9916,3.7016,3.7016,0,0,1-3.7169-3.7169,3.8342,3.8342,0,0,1,3.8718-3.8718,14.2787,14.2787,0,0,0,14.403-14.403Z"/>
    <path class="cls-2" d="M381.0113,230.5579l6.8683-16.2972a1.0211,1.0211,0,0,0-.9415-1.4173h-7.83l11.0336-22.0678h10.3694L391.3,205.28a1.0217,1.0217,0,0,0,.8624,1.569h8.8157Z"/>
  </g>
</svg>
