<svg id="Livello_1" data-name="Livello 1" xmlns="http://www.w3.org/2000/svg" viewBox="0 0 150 221.3815">
  <g>
    <path d="M65.6117,109.5739a2.8477,2.8477,0,0,0-1.437-3.7606c-14.1835-6.3427-31.69-4.0038-40.416,1.9262a2.8462,2.8462,0,0,0,3.1992,4.7084c7.2766-4.9419,22.6872-6.8986,34.8932-1.437A2.8484,2.8484,0,0,0,65.6117,109.5739Z"/>
    <circle cx="45.8666" cy="119.4793" r="4.2691"/>
    <circle cx="102.4606" cy="119.4794" r="4.2692"/>
    <path d="M89.1022,9.4285C87.0406,5.1,82.594-.0815,73.0648.001,63.81.1137,59.3531,4.8635,57.2269,8.9086A110.1618,110.1618,0,0,1,89.1022,9.4285Z"/>
    <path d="M47.6551,45.3158c1.98.1237,3.976.2473,5.9952.2946a67.8031,67.8031,0,0,1,9.44,1.1437,71.6171,71.6171,0,0,0,11.9128,1.298,76.6637,76.6637,0,0,0,12.463-1.2952c2.61-.4211,5.3088-.8561,8.0743-1.0909l2.0763-.1835a77.7311,77.7311,0,0,1,12.6512-.4368c4.9253-4.5542,13.5131-8.43,16.1237-9.5473-3.8931-7.6221-13.0875-13.9407-25.8157-17.9377a2.7586,2.7586,0,0,1-.41.0676,2.9062,2.9062,0,0,1-.7782-.1084c-28.7687-8.1369-52.7582-.7185-52.9958-.6435-.0829.0259-.1658.0084-.2491.0265a44.71,44.71,0,0,0-13.2813,6.868,52.7741,52.7741,0,0,0-10.12,10.6745,14.0271,14.0271,0,0,0-.825,1.3871c3.2686,1.4424,10.9656,5.0913,15.47,9.3106A76.73,76.73,0,0,1,47.6551,45.3158Z"/>
    <path d="M146.7911,108.5511a5.9455,5.9455,0,0,0-.5867-.3014c-.2206-4.6789-.6811-16.3958-.1665-23.8479.6773-9.8155-2.612-33.2895-16.0451-44.41a2.7615,2.7615,0,0,1-.6845.4545,77.1307,77.1307,0,0,0-11.9747,6.2867c1.6,1.0534,13.977,9.6053,14.7292,22.3986.8616,14.631-1.0479,24.2715-1.0673,24.3674l-.1974.9645,3.466,6.9292c-.1,1.8275-.3836,6.8319-.8311,12.9063-1.0723,14.5232-2.2968,24.7194-3.5949,29.778l-.0017,0c-.0125.0483-.02.0962-.0318.1447-.0061.0234-.0121.0557-.0182.079l-.0045.0252c-.061.2613-.12.5243-.1706.7781-.0028.025-.0084.0514-.0139.0778-4.1081,2.5529-5.948,4.0816-8.8415,8.8053a83.1088,83.1088,0,0,0-4.839,8.9221l-.2947.6587c-4.6389,10.441-7.485,13.7791-8.7469,14.8381-.0083-.45.0028-.9144.0083-1.1938.0112-.4322.0167-.8074.0056-1.077l-.0611-1.9276c-.1835-6.6873-.4392-15.847-10.7259-17.4771a29.6337,29.6337,0,0,1-6.6547-1.82,21.7643,21.7643,0,0,0,3.9225-2.25,2.8464,2.8464,0,1,0-3.5577-4.4443c-1.43,1.1448-5.0063,2.6481-8.3122,3.7446l-.1679-.0507-5,.6229c-.03-.9224-.01-1.881.0334-2.884l.05-1.3244c.0806-2.7475.0848-5.495.0876-8.2425l.0013-.5267a136.4026,136.4026,0,0,1,.7422-16.9908c.7073-5.563,3.3575-9.2514,8.5912-11.9586,8.8277-4.5693,26.6412-4.8667,33.47,1.0743a2.8448,2.8448,0,1,0,3.7356-4.2914c-9.3779-8.17-30.296-6.7666-39.824-1.8386-6.8764,3.559-10.6773,8.8886-11.6209,16.2945a143.0242,143.0242,0,0,0-.7866,17.7023l-.0014.5267c-.0028,2.6961-.0055,5.3894-.0848,8.0855l-.0472,1.2479a32.0918,32.0918,0,0,0,.06,4.7923,26.8057,26.8057,0,0,1-11.9119,2.1772h-.0514a27.0131,27.0131,0,0,0-8.3481.9173c-6.4525,1.9372-6.7735,11.3484-7.0084,18.2193-.0306.8838-.0667,1.95-.1237,2.8156-1.3119-1.1368-4.0844-4.5458-8.6233-14.7437l-.3029-.6768a82.7228,82.7228,0,0,0-4.8363-8.9192,38.4667,38.4667,0,0,0-4.1344-5.3018c-.41-.4656-.82-.9311-1.223-1.4023a34.5918,34.5918,0,0,1-2.2138-2.9351l-1.2688-1.8455a9.1016,9.1016,0,0,0-.61-.7421c-.0673-.0761-.13-.1564-.2-.2359-1.3319-6.8132-2.3665-18.34-3.0024-26.8874-.4613-6.2274-.7546-11.3846-.856-13.2455l3.4632-6.9319-.1946-.96c-.0194-.0959-1.9289-9.7379-1.0687-24.3689.5854-9.9486,8.6568-18.0091,13.02-21.6693a73.1562,73.1562,0,0,0-13.01-7.016,2.6885,2.6885,0,0,1-.3344-.2213C4.85,50.5276,4.1815,72.023,5.0362,84.4018c.4788,6.9424.3183,17.83.1967,23.217a6.1438,6.1438,0,0,0-2.0242.9337c-4.7931,3.384-3.2728,12.0142-1.4717,19.8369l.3294,1.4593c.71,3.3367,1.1646,5.941,1.5537,8.16.8561,4.8919,1.4217,8.123,3.5827,13.07,1.8235,4.1716,4.453,8.46,10.035,9.7726.0466.2517.0919.5022.1392.7546,2.1179,11.3262,4.001,18.3555,5.7548,21.4893,4.15,7.41,20.6305,27.2331,29.9486,32.7225,5.9147,3.484,14.9618,5.563,23.8977,5.563,7.7478,0,15.4107-1.5634,20.8751-5.1294,8.1716-5.3338,23.0111-20.8765,27.3776-28.6743,1.9539-3.4923,4.347-12.217,7.1154-25.9322.051-.2528.0972-.4906.1473-.74,5.7651-1.2383,8.4516-5.5891,10.3034-9.8257,2.1624-4.946,2.7266-8.1758,3.5827-13.0634.3891-2.2222.845-4.8279,1.5565-8.1674l.328-1.4662C150.0653,120.5625,151.5829,111.9364,146.7911,108.5511ZM12.42,148.8c-1.8887-4.322-2.3793-7.1265-3.1922-11.7724-.3989-2.275-.8658-4.9446-1.5941-8.3634l-.3488-1.5523C4.79,116.2835,5.7173,113.7486,6.49,113.2039c.0637-.0471.2119-.1526.7423-.0061l.0067.0019a4.8345,4.8345,0,0,1,.9619.4162c.1131.0613.2363.1485.3537.22.2394.1466.4814.3.7348.487.1451.1068.2944.23.4426.3493.2393.1918.48.3924.7234.6127.1558.1409.3118.29.4682.4411.12.1165.2392.2447.3592.3672.6494,8.544,1.6724,19.6359,2.9966,26.4626a2.7149,2.7149,0,0,0,.0532.2863l-.03.0042c.0092.0669.6961,4.9643,1.7577,11.3038C14.5488,153.02,13.485,151.2375,12.42,148.8Zm79.5876,23.7626a41.9585,41.9585,0,0,1-16.85,3.3815,42.5106,42.5106,0,0,1-16.589-3.7338c.4152.0552.8372.11,1.2812.1654.1343.0166.2743.033.4112.0495.55.0669,1.1178.1325,1.7071.1974.1759.0192.3523.0382.5315.0571q.8834.0943,1.8171.182c.18.0171.3568.0341.54.0506q1.0481.0951,2.1516.1793c.11.0083.2146.0175.3252.0257,1.7372.1289,3.5664.2331,5.4676.3014.1395.005.2824.0078.4228.0125q1.171.0386,2.3721.0571c.2514.0039.5045.0054.7577.0077.3973.0036.7891.012,1.1905.012.1549,0,.3181-.01.4736-.0108,1.5276-.0057,3.0805-.0382,4.6528-.1059.3036-.0132.6064-.0327.9113-.0483,1.6635-.0855,3.3381-.1984,5.0216-.3686.0813-.0084.1621-.0205.2432-.0289Q90.4269,172.7819,92.0076,172.5629Zm-.6709,6.36a17.2611,17.2611,0,0,1-1.9885,2.0952,17.9075,17.9075,0,0,1-12.2143,4.4527c-6.6971,0-12.0781-1.65-15.9929-4.9043a15.2538,15.2538,0,0,1-1.9309-1.93,47.7753,47.7753,0,0,0,15.8642,3c.2168.0027.4309.0041.6463.0041A47.4322,47.4322,0,0,0,91.3367,178.9231Zm5.1714,7.9251c-1.462,3.3659-3.2242,6.8-6.2121,9.1152-6.365,4.928-17.6912,5.0767-24.972,2.3736-4.6083-1.7107-7.8686-5.2545-10.57-11.4888a20.4282,20.4282,0,0,1-1.39-6.5479,21.538,21.538,0,0,0,4.1384,4.6439,24.677,24.677,0,0,0,5.9195,3.6152,13.5224,13.5224,0,0,0,11.7093,6.4814c8.0445,0,11.224-2.54,12.93-6.3519a23.3887,23.3887,0,0,0,5.0507-3.4014,25.059,25.059,0,0,0,4.8388-5.9346A21.9733,21.9733,0,0,1,96.5081,186.8482Zm46.2111-59.7429-.353,1.5593c-.7282,3.4215-1.1951,6.0925-1.5926,8.37-.8144,4.6431-1.3035,7.4447-3.1908,11.7654-1.11,2.5371-2.2282,4.3478-3.8054,5.466.7263-3.8949,1.178-6.55,1.1816-6.5708l.4173-2.3054c1.636-6.28,2.8758-19.3125,3.6513-29.5937.173-.17.3478-.3457.5146-.4975.2-.1824.4017-.3687.592-.5271.3226-.2668.628-.4954.9186-.6934.1034-.0712.2142-.1576.3128-.22a3.722,3.722,0,0,1,1.9123-.7209l.2307.0653C144.284,113.7486,145.21,116.2807,142.7192,127.1053Z"/>
  </g>
</svg>
