<svg id="Livello_1" data-name="Livello 1" xmlns="http://www.w3.org/2000/svg" viewBox="0 0 339.6996 425">
  <defs>
    <style>
      .cls-1 {
        fill: none;
        stroke: #000;
        stroke-miterlimit: 10;
        stroke-width: 4px;
      }
    </style>
  </defs>
  <g>
    <g>
      <path d="M140.217,195.6124c-19.4777-11.7594-49.1518-11.0283-70.56,1.7407A5.1271,5.1271,0,0,0,67.892,204.53a5.491,5.491,0,0,0,7.4032,1.7071c17.8258-10.6337,43.2934-11.3894,59.2379-1.7713a5.4772,5.4772,0,0,0,7.4093-1.67,5.122,5.122,0,0,0-1.7254-7.183"/>
      <path d="M106.1054,209.178a8.8117,8.8117,0,1,0,9.0857,8.8074,8.95,8.95,0,0,0-9.0857-8.8074"/>
      <path d="M164.1759,255.0021l-.74,34.67a5.1626,5.1626,0,0,0,2.1445,4.2737,5.4665,5.4665,0,0,0,3.2366,1.0493,5.6093,5.6093,0,0,0,1.6-.2325l12.5182-3.7842v-10.93l-8.5871,2.5972.5873-27.4286c.3121-14.6412,3.0041-26.4037,8-35.2172V203.0328c-11.9308,10.9243-18.2541,28.3463-18.7589,51.9693"/>
      <path d="M134.0118,326.712a5.4171,5.4171,0,0,0-6.513,3.8086,5.21,5.21,0,0,0,3.9311,6.3172,221.8721,221.8721,0,0,0,47.148,5.1333c1.4225,0,2.9062-.0795,4.3563-.1131V331.42a218.1625,218.1625,0,0,1-48.9224-4.708"/>
      <path d="M34.3462,297.365c-13.4848-9.5263-21.0165-35.514-22.5981-49.6505-1.86-16.6358-1.0554-29.2029,2.2638-35.3855,3.1234-5.8277,13.1177-3.0592,15.03-2.4626,1.4256,7.2411,2.9307,14.4546,4.4328,21.6253l.2539,1.2084a16.8413,16.8413,0,0,0-8.6361,6.3294c-4.4664,6.1918-5.3994,15.3418-2.7685,27.1839a5.4174,5.4174,0,0,0,6.3906,4.0014,5.2131,5.2131,0,0,0,4.1268-6.1918c-2.3984-10.8081-.8382-16.1678.8933-18.765a6.9817,6.9817,0,0,1,2.169-2.1231l.11.5354c1.551,7.5531,3.3406,16.4706,4.8274,25.3728q.8535,5.0659,1.5877,10.1534c.7831,5.4943,2.0619,12.95,4.0656,21.5886a17.9755,17.9755,0,0,1-12.148-3.42M179.4339,414.5223C80.65,417.1807,57.7581,310.4827,53.09,277.7709c-.4956-3.4752-1.0462-6.9382-1.6244-10.3981-1.4745-8.82-3.23-17.6117-4.7723-25.1189.0061-.0612.0061-.1224.0122-.1866.0123-.3059.0306-.6639.049-1.04.0091-.1957.0183-.4068.0275-.621.0245-.4956.052-1.0248.08-1.6122.0031-.0734.0092-.15.0123-.2263.0336-.6822.0734-1.4287.1132-2.2271.0061-.1071.0122-.2142.0183-.3243.0337-.6822.0734-1.4194.1132-2.1751.0214-.3548.04-.728.0612-1.0982.04-.71.08-1.4439.1224-2.2087.0183-.3212.0367-.6516.055-.979.0459-.8137.0949-1.658.1469-2.5268.0214-.4161.0489-.8474.0734-1.2757q.0734-1.262.156-2.5881c.0275-.4833.0581-.9759.0887-1.4715.0551-.86.1071-1.7314.1652-2.6278.0367-.5659.0734-1.1441.11-1.7254.0612-.9146.1193-1.8446.1836-2.793.0367-.569.0765-1.1472.1162-1.7284.0673-.9728.1316-1.9548.2019-2.9583.0459-.624.0918-1.26.1347-1.8967.07-.9758.1376-1.9548.211-2.9551.052-.7189.1071-1.4531.1622-2.1842.07-.9331.1407-1.8661.2111-2.8115.0642-.8443.1315-1.7009.1988-2.5574.07-.8872.1407-1.7713.2111-2.6676.07-.8658.1407-1.7438.2141-2.6156.0765-.9361.153-1.8692.2325-2.8114.07-.8413.1469-1.6887.22-2.5361.0856-.985.1682-1.9639.257-2.9551q.1193-1.3078.2416-2.6217c.0857-.9545.1713-1.9028.2631-2.86q.1377-1.45.2815-2.9062.1239-1.3079.2539-2.6187c.1009-1.0125.208-2.0282.312-3.0438.0887-.8505.1744-1.704.2662-2.5544.107-1.0035.2172-2.0007.3242-3.0042.0949-.8565.19-1.7161.2876-2.5727.11-.9851.2264-1.964.34-2.943.1009-.8657.2019-1.7315.3059-2.5911.1162-.97.2386-1.9273.361-2.8848.104-.8474.208-1.6978.3181-2.536.1254-.979.26-1.9457.3885-2.9154.11-.8015.2172-1.6122.3274-2.4076.1346-.9575.2722-1.8906.41-2.8328.1132-.7893.2264-1.5847.3457-2.3617.1376-.933.2845-1.8386.4283-2.7533.1193-.7525.2355-1.5173.3579-2.2576.15-.9086.3059-1.7866.4589-2.6738.1223-.7158.2447-1.4469.37-2.1475.1591-.881.3212-1.7254.4834-2.5789.1254-.67.2508-1.3521.3793-2.0068.1652-.8382.34-1.6336.5078-2.4473.1347-.63.2631-1.2788.3977-1.8906.1714-.774.3457-1.5021.52-2.2455.1407-.6.2784-1.2206.4222-1.7988.1835-.7342.37-1.4164.5567-2.1169.1408-.5354.2784-1.0921.4253-1.6061.1988-.71.4068-1.3613.6118-2.0313.1346-.4436.2692-.9208.4069-1.346.2416-.7342.4864-1.3981.7342-2.0741.11-.3.2141-.6363.3273-.9239.361-.933.7281-1.8019,1.1013-2.5972A71.2687,71.2687,0,0,1,97.6957,70.6218l10.083,1.2359c20.5332,2.5513,41.8343,5.2526,62.7774,5.0415,4.1208-.0275,8.2506-.2233,12.3805-.4283V7.7863c-65.43-5.25-137.21,24.2225-155.7,89.5635-9.4773,33.5011-6.3784,67.6445-.3212,101.3047-7.7948-1.2115-17.6484-.0887-22.4513,8.8563-4.4114,8.2261-5.5616,22.127-3.4141,41.3234,1.5908,14.24,9.2724,44.4712,26.9575,56.9649a28.91,28.91,0,0,0,16.96,5.5769,30.6977,30.6977,0,0,0,4.13-.3212C61.8115,357.2208,94.3765,425.0061,175.8975,425c1.26,0,2.5391-.0153,3.8209-.0459,1.0921-.0275,2.1445-.11,3.2182-.1652V414.3173c-1.1686.0674-2.3066.1744-3.5027.205"/>
      <path d="M325.0679,199.5863a9.615,9.615,0,1,1-9.9118,9.6089,9.7648,9.7648,0,0,1,9.9118-9.6089"/>
      <path d="M298.465,295.014a8.8116,8.8116,0,1,1-9.0858,8.8074,8.95,8.95,0,0,1,9.0858-8.8074"/>
      <path d="M330.6139,240.207a8.8116,8.8116,0,1,1-9.0858,8.8074,8.95,8.95,0,0,1,9.0858-8.8074"/>
      <path d="M228.835,209.178a8.8117,8.8117,0,1,1-9.0857,8.8074,8.95,8.95,0,0,1,9.0857-8.8074"/>
      <path d="M184.0129,201.5084a8.8116,8.8116,0,1,1-9.0858,8.8074,8.95,8.95,0,0,1,9.0858-8.8074"/>
      <path d="M221.3878,183.8939a8.8117,8.8117,0,1,1-9.0858,8.8074,8.95,8.95,0,0,1,9.0858-8.8074"/>
      <path d="M258.7617,192.701a8.8116,8.8116,0,1,1-9.0857,8.8074,8.95,8.95,0,0,1,9.0857-8.8074"/>
      <path d="M241.7411,59.2434a8.8117,8.8117,0,1,1-9.0858,8.8074,8.95,8.95,0,0,1,9.0858-8.8074"/>
      <path d="M206.0145,62.9148a8.8116,8.8116,0,1,1-9.0858,8.8074,8.95,8.95,0,0,1,9.0858-8.8074"/>
      <path d="M271.1321,88.8544a8.8117,8.8117,0,1,1-9.0857,8.8074,8.95,8.95,0,0,1,9.0857-8.8074"/>
      <path d="M285.1838,158.9078a8.8117,8.8117,0,1,1-9.0857,8.8074,8.95,8.95,0,0,1,9.0857-8.8074"/>
      <path d="M296.0234,231.4a8.8117,8.8117,0,1,1-9.0857,8.8074,8.95,8.95,0,0,1,9.0857-8.8074"/>
      <path d="M215.6405,322.6925a8.8117,8.8117,0,1,1-9.0858,8.8074,8.95,8.95,0,0,1,9.0858-8.8074"/>
      <path d="M187.727,275.6356a8.8117,8.8117,0,1,1-9.0858,8.8074,8.95,8.95,0,0,1,9.0858-8.8074"/>
      <path d="M230.4729,396.9758a8.8116,8.8116,0,1,1-9.0858,8.8074,8.95,8.95,0,0,1,9.0858-8.8074"/>
      <path d="M261.284,359.7884a8.8117,8.8117,0,1,1-9.0857,8.8074,8.95,8.95,0,0,1,9.0857-8.8074"/>
    </g>
    <path class="cls-1" d="M183.9177,338.7762l32.0143-6.2714m5.8186-139.8931,37.83,8.8777m-75.6627,8.8747,37.8329-17.7524m64.5731-25.1832L272.1016,96.8227M206.1885,70.679,242.3511,66.98m0,0,29.7505,29.8423M182.2811,72.8571l23.9074-2.1781"/>
    <g>
      <path d="M185.4231,328.6383a8.8117,8.8117,0,1,1-9.0857,8.8074,8.95,8.95,0,0,1,9.0857-8.8074"/>
      <path d="M307.55,108.7241a8.8117,8.8117,0,1,1-9.0857,8.8074,8.95,8.95,0,0,1,9.0857-8.8074"/>
      <path d="M283.5386,45.3006a8.8117,8.8117,0,1,1-9.0857,8.8074,8.95,8.95,0,0,1,9.0857-8.8074"/>
      <path d="M232.6559,11.274a8.95,8.95,0,0,1,9.0858,8.8074,9.09,9.09,0,0,1-18.1715,0,8.95,8.95,0,0,1,9.0857-8.8074"/>
      <path d="M182.9357,0a8.95,8.95,0,0,1,9.0858,8.8074,9.09,9.09,0,0,1-18.1715,0A8.95,8.95,0,0,1,182.9357,0"/>
    </g>
    <path class="cls-1" d="M308.6572,117.2057l4.6347,61.7372M182.6466,6.7418l52.1682,12.3744"/>
    <path class="cls-1" d="M285.6421,167.6675l40.4913,41.1857M181.832,7.0667l23.4333,64.206m36.27-3.6863,42.4369-14.0018m0,0-12.5946,43.737M205.2653,71.2727l28.9459-51.8591M181.832,7.0667l59.7029,60.52M232.3114,18.63l51.66,34.9542m0,0,24.3786,63.689m-22.7083,50.3939L308.35,117.2736m-36.9732-19.952,36.9732,19.952M296.7653,240.4667l-11.1232-74.751m11.1232,74.751,16.0607-63.9521m18.9393,72.7931-5.6319-40.4545m-64.7567,160.54,37.75-65.0473m0,0,32.6383-55.0377m-35-8.841,29.3681-31.6135m-64.7567,160.54,35.3886-128.926m-.1193-3.2152,2.481,67.0939m-69.03,102.3907,31.28-37.3434m-78.45,52.419,47.1694-15.0756"/>
  </g>
</svg>
