<svg id="Livello_1" data-name="Livello 1" xmlns="http://www.w3.org/2000/svg" viewBox="0 0 224.6565 221.3815">
  <g>
    <polygon points="220.072 164.488 153.312 218.766 153.312 152.327 220.072 98.54 220.072 164.488"/>
    <rect x="146.3046" y="123.4446" width="85.3474" height="4.5847" transform="translate(-37.1785 145.1193) rotate(-38.5363)"/>
    <rect x="137.8904" y="115.0781" width="4.5848" height="43.638" transform="translate(-55.7422 139.2204) rotate(-45)"/>
    <polygon points="156.001 221.382 154.775 220.902 0 160.683 0 91.578 65.047 39.442 67.913 43.018 4.585 93.779 4.585 157.549 155.208 216.153 220.072 164.488 220.072 100.101 191.336 71.366 127.041 122.574 127.041 145.856 92.27 111.087 95.513 107.845 122.456 134.788 122.456 120.364 191.68 65.227 224.656 98.203 224.656 166.694 156.001 221.382"/>
    <rect x="98.5857" y="36.4181" width="4.5851" height="29.5003" transform="translate(16.6153 126.6293) rotate(-68.7412)"/>
    <polygon points="65.813 119.653 1.467 94.817 3.118 90.54 61.228 112.969 61.228 96.356 130.452 41.216 152.776 63.54 149.532 66.781 130.108 47.355 65.813 98.565 65.813 119.653"/>
    <polygon points="96.185 133.914 61.886 99.068 65.155 95.851 91.6 122.721 91.6 108.361 160.822 53.222 183.148 75.545 179.906 78.787 160.478 59.361 96.185 110.571 96.185 133.914"/>
    <path d="M82.0776,67.5377a25.2261,25.2261,0,0,1-7.6292-1.309C68.08,64.1541,62.372,59.7962,63.4013,55.3535l-.11-51.4991,4.5849-.0091.1123,52.173-.1146.3484c-.117.7978,2.5377,3.7252,7.9959,5.5041,5.1029,1.66,8.8212,1.0683,9.5892.3966V10.711h4.5848V63.2073l-.1123.3462c-.415,1.2768-1.7858,3.4821-6.2973,3.9131C83.1344,67.5147,82.614,67.5377,82.0776,67.5377Z"/>
    <ellipse cx="76.6671" cy="7.2305" rx="6.0865" ry="13.9864" transform="translate(46.0341 77.8828) rotate(-71.9473)"/>
  </g>
</svg>
