<svg id="Livello_1" data-name="Livello 1" xmlns="http://www.w3.org/2000/svg" viewBox="0 0 77.9218 77.8679">
  <defs>
    <style>
      .cls-1 {
        fill: red;
      }
    </style>
  </defs>
  <g>
    <path class="cls-1" d="M58.9946,77.8679h-40.16q-.4918-.0654-.9838-.1307A20.069,20.069,0,0,1,6.3467,72.3153a19.8331,19.8331,0,0,1-6.2928-13.85c-.1047-2.2191-.0246-4.4469-.0248-6.6708q-.0014-14.26.0017-28.52a33.89,33.89,0,0,1,.4013-7.081A20.0659,20.0659,0,0,1,5.565,6.3274,19.6526,19.6526,0,0,1,15.7311.53C16.7189.31,17.7254.1743,18.7233,0H59.1058c.8218.1194,1.6527.195,2.4638.3649A20.2427,20.2427,0,0,1,77.9075,20.1331c.0294,2.7063.0045,5.4132.0045,8.12,0,9.5285-.0154,19.0572.0091,28.5857a20.9164,20.9164,0,0,1-1.53,8.4623A19.92,19.92,0,0,1,62.3217,77.3066C61.2346,77.5807,60.1047,77.685,58.9946,77.8679ZM39.0832,6.6775V6.67q-9.2875,0-18.5749-.0044a12.97,12.97,0,0,0-5.8645,1.2391c-4.94,2.44-7.6752,6.4057-7.9047,11.93-.1361,3.2754-.0267,6.561-.0278,9.842-.0032,9.3426-.0474,18.6855.0068,28.0278a13.1475,13.1475,0,0,0,6.51,11.5609,13.4024,13.4024,0,0,0,7.5066,2.0041c3.1877-.0291,6.3759.0056,9.5639.0061,2.8728.0005,5.7456-.0109,8.6184-.0114,2.78-.0006,5.56.0074,8.34.0091,2.8171.0016,5.6341-.01,8.4511.0032a19.4967,19.4967,0,0,0,6.4724-.7576,13.5718,13.5718,0,0,0,9.0379-11.594c.1473-2.2894.0888-4.5931.0918-6.89.0064-4.9854-.0121-9.9707-.0121-14.9561q0-7.5059.0168-15.0116a18.953,18.953,0,0,0-.7522-6.2512A13.5641,13.5641,0,0,0,58.048,6.6868C51.7266,6.6464,45.4048,6.6775,39.0832,6.6775Z"/>
    <path class="cls-1" d="M39.0277,58.3352A19.3752,19.3752,0,1,1,58.3726,38.8465,19.3949,19.3949,0,0,1,39.0277,58.3352Zm.0286-5.9144a13.4654,13.4654,0,1,0-13.527-13.3976A13.4976,13.4976,0,0,0,39.0563,52.4208Z"/>
    <path class="cls-1" d="M64.9776,17.3917a4.4994,4.4994,0,0,1-4.54,4.4946,4.4791,4.4791,0,0,1,.02-8.9564A4.5,4.5,0,0,1,64.9776,17.3917Z"/>
  </g>
</svg>
