<svg id="Livello_1" data-name="Livello 1" xmlns="http://www.w3.org/2000/svg" viewBox="0 0 96.887 78.975">
  <defs>
    <style>
      .cls-1 {
        fill: red;
      }
    </style>
  </defs>
  <path class="cls-1" d="M96.887,9.8592a33.3856,33.3856,0,0,1-8.4554,8.9363,2.6184,2.6184,0,0,0-1.12,2.3637c-.5058,23.5114-10.757,41.2126-31.7478,52.1657-9.2955,4.85-19.4334,6.22-29.8639,5.4488A57.0887,57.0887,0,0,1,.5413,70.7775,1.5753,1.5753,0,0,1,0,70.2968a42.1679,42.1679,0,0,0,28.9552-8.4189c-9.1363-.9056-15.3019-5.3672-18.7175-13.9732h8.6944l.0326-.4115A20.1362,20.1362,0,0,1,7.6879,40.4741,19.1019,19.1019,0,0,1,3.2989,28.173l8.4631,2.3512.1893-.3577c-8.7272-7.2786-10.7592-16.02-5.9391-26.63C17.0491,16.38,30.7692,23.279,47.502,24.5145c-.1126-1.0506-.217-1.971-.309-2.8926a20.0992,20.0992,0,0,1,33.9544-16.05,1.5279,1.5279,0,0,0,1.7857.4788c3.34-1.254,6.6989-2.4559,10.046-3.69a5.9391,5.9391,0,0,1,1.2944-.456A18.9713,18.9713,0,0,1,86.524,12.0825l.1194.3177c1.68-.348,3.382-.6175,5.0352-1.0657,1.7011-.461,3.355-1.0963,5.03-1.6553Q96.7963,9.7706,96.887,9.8592Z"/>
</svg>
