<svg id="Livello_1" data-name="Livello 1" xmlns="http://www.w3.org/2000/svg" viewBox="0 0 146.6477 68.7179">
  <defs>
    <style>
      .cls-1, .cls-2 {
        fill: #fff;
      }

      .cls-1 {
        isolation: isolate;
        opacity: 0.8;
      }

      .cls-3 {
        fill: #e0719d;
      }

      .cls-4 {
        fill: #f6d6e3;
      }
    </style>
  </defs>
  <g>
    <path class="cls-1" d="M89.85.4832c.5938-.0076,1.1874-.0176,1.7813-.0226q3.68-.0308,7.36-.059Q102.54.3731,106.0887.3427c1.1388-.01,2.2776-.0266,3.4164-.04.0964-.0012.1929,0,.343,0,.0319,3.5707.0634,7.1276.0955,10.7377h-6.0352l-.0345.0816,10.9178,13.2313,10.7061-13.4355h-6.0632c-.0291-3.5487-.058-7.1041-.0874-10.6972L146.0879,0c.0291,3.5773.0583,7.1257.0875,10.7024-.218.0146-.4177.0383-.6176.04-1.6066.01-3.2133.02-4.82.0191a.5631.5631,0,0,0-.493.2346q-3.0139,3.7955-6.0378,7.5829-3.1659,3.9729-6.3315,7.9459-2.7381,3.4365-5.4753,6.8737c-.018.0226-.0319.0481-.0623.0947.3834.4669.77.94,1.1584,1.41q2.4428,2.9624,4.8863,5.9237,2.5555,3.096,5.113,6.1906,2.5554,3.0965,5.108,6.1949,1.3932,1.6893,2.7846,3.38a.429.429,0,0,0,.3744.1682c1.49-.0127,2.98-.0167,4.47-.0232h.3271c.0294,3.662.0584,7.3066.088,10.99h-.335c-1.0322.0053-2.0644.0087-3.0965.0167q-3.5341.0272-7.068.058-3.49.0289-6.98.0582l-7.36.06c-.5254.0046-1.0506.0206-1.5759.0306-.0955.0019-.1911,0-.3248,0-.03-3.67-.059-7.3153-.0888-11.0093h6.74l.042-.0833L114.9531,42.744,103.5694,57.0294l.03.06,6.722-.0657c.0316,3.6714.063,7.3154.0946,10.9824-.1142.0068-.208.0166-.3017.0173q-4.7171.0367-9.4341.0719-1.0062.0076-2.0122.018c-.0165-.4263-.0441-.8525-.0479-1.2789q-.0355-4.0422-.0619-8.0846c-.0031-.4381,0-.8761-.0025-1.3143,0-.0846-.0113-.1691-.02-.2987l-8.2262.0811V55.1224l.0218-.0917c.02-.0209.0418-.04.06-.0628q3.4218-4.2879,6.8431-8.5764,4.6843-5.8755,9.366-11.7528c.2706-.34.5385-.6812.8108-1.0255-.0988-.1234-.1761-.2226-.256-.32q-2.6754-3.2406-5.351-6.4809Q99.25,23.7175,96.6994,20.62q-2.7015-3.2757-5.4052-6.55c-.4331-.5239-.8771-1.0387-1.3161-1.5577l-.019-.12c-.0151-.882-.0359-1.764-.0444-2.6461q-.034-3.5679-.059-7.1359C89.8475,1.9016,89.8511,1.1922,89.85.4832Z"/>
    <path class="cls-1" d="M89.9565,12.3932l.0191.12c.0108.9244.024,1.8489.0323,2.7733q.0315,3.5627.0595,7.1252.0289,3.49.0582,6.9791l.0585,7.0376q.0292,3.5187.0581,7.0375.0383,4.95.0738,9.9.0063.8323.0136,1.6646l-.0219.0917c-.4959.6186-.9938,1.2358-1.4868,1.8568a.5216.5216,0,0,1-.4936.2363c-.2117-.0208-.4273-.0042-.6412-.004-1.3039,0-2.6077-.0018-3.9117.0025a1.3548,1.3548,0,0,0-.2928.0664v3.4949q0,2.5644.0024,5.1289a1.7866,1.7866,0,0,0,.0518.3028l.01,2.0282q-1.3422.0135-2.6845.0267c-.3973.0032-.7945,0-1.23,0V63.5373c-.1516.1007-.2447.1591-.3343.2225a24.9629,24.9629,0,0,1-7.78,3.7006,26.1852,26.1852,0,0,1-4.3176.805,25.6075,25.6075,0,0,1-4.1389.0869,25.888,25.888,0,0,1-10.3857-2.8138,26.2276,26.2276,0,0,1-6.9953-5.194c-.0941-.0976-.195-.1887-.2928-.2829l-.0024-.06c.5864-.7438,1.203-1.466,1.753-2.2359a24.5089,24.5089,0,0,0,2.7478-5.0773,1.35,1.35,0,0,0,.0457-.1925c-.1652.0123-.2985.03-.4319.031q-3.5873.0318-7.1746.06c-.5931.005-1.1863.0127-1.7794.0191l-.0774-.0383c-.0361-.11-.0707-.22-.1086-.3291-.3446-.9893-.727-1.9675-1.0236-2.9709-.2552-.8631-.413-1.7551-.6138-2.6344.0038-.0182.0072-.0366.01-.055q3.4842-.0258,6.9687-.0512,2.0274-.0138,4.0551-.0214l.0575.02a2.6558,2.6558,0,0,0,.06.283A15.3188,15.3188,0,0,0,64.9308,57.4608,14.65,14.65,0,0,0,75.94,52.0529a15.3809,15.3809,0,0,0,3.4852-9.893,14.8606,14.8606,0,0,0-.3177-3.1568,15.07,15.07,0,0,0-5.7093-9.1821A14.437,14.437,0,0,0,65.77,26.8969a14.9575,14.9575,0,0,0-3.4042.0964,15.2447,15.2447,0,0,0-11.5,8.133c-.0142,0-.0282-.0008-.0424-.0021a1.2843,1.2843,0,0,0-.027-.201,27.4808,27.4808,0,0,0-1.6518-4.2991,25.5761,25.5761,0,0,0-2.9284-4.6734c-.354-.4473-.7475-.8631-1.123-1.2934V24.57c.5233-.5218,1.0329-1.0583,1.5722-1.563a26.0546,26.0546,0,0,1,15.9133-7.0051,25.6621,25.6621,0,0,1,3.7314-.03A25.1542,25.1542,0,0,1,78.8973,20.29c.0927.0628.1878.122.3407.2208l-.0692-9.2327-7.1334.07c-.0291-3.5911-.0578-7.1488-.0869-10.7474.1873,0,.34.0007.4929,0,1.801-.008,3.602-.013,5.4029-.0256C79.44.5641,81.0365.5441,82.6324.53c.1263-.0011.2525.0088.3787.0135l.0024,3.8481q0,2.535.0026,5.07a1.7741,1.7741,0,0,0,.0519.3027v1.462c.1588,0,.2646.001.37,0,1.6977-.0182,3.3956-.0274,5.0929-.0634a.7579.7579,0,0,1,.6759.3483C89.4438,11.8152,89.7057,12.1,89.9565,12.3932Z"/>
    <path class="cls-1" d="M40.4675,52.5675l.0774.0384c.3955.8079.7542,1.6363,1.1939,2.4194a24.9589,24.9589,0,0,0,3.6455,4.9762l.0024.06a25.3162,25.3162,0,0,1-7.1831,5.7055,24.9324,24.9324,0,0,1-8.1591,2.6684,25.5057,25.5057,0,0,1-4.4519.2738A26.284,26.284,0,0,1,.9027,49.3113a24.7613,24.7613,0,0,1-.81-4.6759A26.2154,26.2154,0,0,1,27.46,16.2654a25.0516,25.0516,0,0,1,12.6483,4.053,24.7413,24.7413,0,0,1,4.66,3.9154c.106.1139.2157.2242.3238.3361v.0869c-.3023.34-.6332.6586-.9009,1.0236-.6585.8975-1.32,1.7953-1.9212,2.7313a22.99,22.99,0,0,0-2.3271,4.8c-.2244.6372-.4308,1.2807-.6454,1.9214-.4236-.6619-.8049-1.3558-1.2778-1.98a14.9448,14.9448,0,0,0-16.8228-5.1792A15.2042,15.2042,0,0,0,13.1405,34.34a13.8122,13.8122,0,0,0-1.669,3.6756l.0256.0778,3.3584-.0265,7.39-.0584q5.6229-.0436,11.2462-.0865,2.5848-.02,5.1695-.0414l.0043.1643-.0058.12-.0514.239-.0064.1687-.0533.2913-.0067.1214-.0522.3992-.0063.127-.0512.4653-.0063.2337-.0527.6972-.0064.356a.7719.7719,0,0,0-.05.1872q-.0065.685,0,1.37a.761.761,0,0,0,.05.1868l.0066.4661.0516.6433.007.232.0521.4126.0053.18.0536.3468.0054.1739.0523.2924.0052.1233.053.2854.0061.1183.0525.2332.0126.0622-.01.055q-2.5386.02-5.0773.039-3.458.0279-6.9159.0581-3.5894.03-7.1787.0587-4.0418.0336-8.0833.0685l-.0185.0708c.0168.0454.035.09.05.1362a15.114,15.114,0,0,0,7.6987,9.0707,14.8182,14.8182,0,0,0,9.49,1.4321,14.4542,14.4542,0,0,0,8.5589-4.7846.5068.5068,0,0,1,.42-.1963C38.6,52.5878,39.5338,52.5752,40.4675,52.5675Z"/>
    <path class="cls-2" d="M83.5458,68.2348l-.01-2.0282q-.0015-2.6068-.0053-5.214a1.0163,1.0163,0,0,0-.0489-.2177V57.28q1.95-.0087,3.9-.02a1.961,1.961,0,0,0,.3044-.0487c.2139,0,.4295-.0168.6411.004a.5213.5213,0,0,0,.4937-.2363c.493-.621.9908-1.2381,1.4868-1.8568v2.0955l8.2262-.0811c.0092.13.02.214.02.2987.0022.4382-.0006.8762.0026,1.3143q.0291,4.0424.0619,8.0846c.0036.4264.0312.8526.0478,1.2789-.9728.01-1.9457.0224-2.9186.03q-4.6128.0381-9.2258.0731Q85.034,68.2278,83.5458,68.2348Z"/>
    <path class="cls-2" d="M83.0138,4.3915,83.0113.5434c.32-.0075.6393-.0189.9589-.0219q2.8389-.0272,5.6774-.05c.0675-.0006.1351.0076.2026.0117.0009.7094-.0023,1.4188.0031,2.1281q.0267,3.5682.0589,7.1359c.0086.8821.0293,1.7641.0444,2.6461-.2508-.2931-.5126-.5777-.7491-.882a.7579.7579,0,0,0-.6759-.3483c-1.6973.0361-3.3951.0452-5.0929.0634-.1057.0012-.2115,0-.37,0V9.7645q-.0017-2.5776-.0055-5.1551A1.0117,1.0117,0,0,0,83.0138,4.3915Z"/>
    <path class="cls-2" d="M38.55,45.4632l-.0055-.1739-.0536-.3468-.0053-.18-.0521-.4126-.0069-.232-.0517-.6434-.0066-.466V41.2641l.0064-.356.0527-.6972.0064-.2337.0511-.4653.0064-.127.0521-.3992.0067-.1214.0533-.2913.0064-.1687.0514-.239.0058-.12.052-.1746.0025-.0047h1.7317c-.2549-.6458-.4821-1.2475-.731-1.84-.1139-.2712-.27-.5245-.4076-.786l-.0157-.1064c.2146-.6407.421-1.2842.6454-1.9214a22.99,22.99,0,0,1,2.3271-4.8c.6008-.936,1.2627-1.8338,1.9212-2.7313.2677-.365.5987-.6838.9008-1.0236.3755.43.7691.8461,1.1231,1.2934a25.5756,25.5756,0,0,1,2.9283,4.6734,27.4812,27.4812,0,0,1,1.6519,4.2991,1.2843,1.2843,0,0,1,.027.201,1.4863,1.4863,0,0,1-.0621.1618,13.9505,13.9505,0,0,0-.9716,2.4228,12.9148,12.9148,0,0,0-.6076,3.5563.9963.9963,0,0,0-.0512.2167q-.0077.6825-.001,1.365a.9627.9627,0,0,0,.0525.2162c.019.2795.0357.5591.0572.8384a13.195,13.195,0,0,0,.5163,2.6043q-2.0276.01-4.0551.0214-3.4843.0239-6.9688.0512l-.0125-.0622-.0525-.2331-.0061-.1183-.053-.2854-.0052-.1233Z"/>
    <path class="cls-2" d="M45.3846,60.0015a24.9639,24.9639,0,0,1-3.6455-4.9762c-.44-.7831-.7983-1.6115-1.1938-2.4194.5931-.0064,1.1863-.0141,1.7794-.0191l7.1746-.06c.1334-.0012.2667-.0187.4318-.031a1.3531,1.3531,0,0,1-.0456.1925,24.5114,24.5114,0,0,1-2.7478,5.0773C46.5875,58.5354,45.9711,59.2577,45.3846,60.0015Z"/>
    <path class="cls-1" d="M49.7557,46.5055a13.202,13.202,0,0,1-.5162-2.6043c-.0215-.2793-.0383-.5589-.0573-.8384V41.2649a12.9185,12.9185,0,0,1,.6076-3.5563,13.94,13.94,0,0,1,.9717-2.4228,1.5066,1.5066,0,0,0,.062-.1618c.0141.0012.0282.002.0423.0021a26.65,26.65,0,0,1,.8362,4.34,24.26,24.26,0,0,1,.1547,3.7551c-.0446.999-.1515,1.9951-.2337,2.9923a3.1361,3.1361,0,0,1-.0594.3114h-1.75Z"/>
    <path class="cls-2" d="M83.4813,60.7749a1.0105,1.0105,0,0,1,.049.2177q.0058,2.607.0052,5.214a1.796,1.796,0,0,1-.0518-.3029Q83.4791,63.3393,83.4813,60.7749Z"/>
    <path class="cls-2" d="M83.0138,4.3915a1.009,1.009,0,0,1,.0489.2177q.0058,2.5774.0055,5.1551a1.7834,1.7834,0,0,1-.0519-.3028Q83.0117,6.9265,83.0138,4.3915Z"/>
    <path class="cls-2" d="M87.6861,57.2111a1.961,1.961,0,0,1-.3044.0487q-1.95.014-3.9.02a1.3546,1.3546,0,0,1,.2928-.0663C85.0784,57.2093,86.3823,57.2109,87.6861,57.2111Z"/>
    <path class="cls-2" d="M38.3681,41.2643v1.7444a.7651.7651,0,0,1-.05-.1869q-.0066-.6851,0-1.37A.7766.7766,0,0,1,38.3681,41.2643Z"/>
    <path class="cls-2" d="M38.4276,40.2111l-.0527.6972Z"/>
    <path class="cls-2" d="M38.3752,43.4747l.0517.6433Z"/>
    <path class="cls-2" d="M38.4847,39.5121l-.0511.4653Z"/>
    <path class="cls-2" d="M38.5432,38.9859l-.0521.3992Z"/>
    <path class="cls-2" d="M38.4338,44.35l.0521.4126Z"/>
    <path class="cls-2" d="M38.4912,44.9426l.0536.3468Z"/>
    <path class="cls-2" d="M38.55,45.4632l.0522.2924Z"/>
    <path class="cls-2" d="M38.6075,45.879l.053.2854Z"/>
    <path class="cls-2" d="M38.6031,38.5732l-.0533.2913Z"/>
    <path class="cls-2" d="M38.667,46.2832l.0525.2332Z"/>
    <path class="cls-2" d="M38.661,38.1655l-.0514.239Z"/>
    <path class="cls-2" d="M38.6625,37.8811l.0562-.01-.052.1746Z"/>
    <path class="cls-3" d="M11.4667,46.8574l-.0186.0708Z"/>
    <path class="cls-4" d="M11.4725,38.0161l.0255.0778Z"/>
    <path class="cls-1" d="M38.7212,37.8661c.1469-.7347.2906-1.47.4438-2.2035a3.2424,3.2424,0,0,1,.1493-.4227c.1371.2615.2936.5148.4075.786.2489.5928.4761,1.1944.7309,1.84Z"/>
    <path class="cls-2" d="M49.1821,41.2649v1.7979a.9737.9737,0,0,1-.0525-.2162q-.0068-.6824.001-1.3649A.9907.9907,0,0,1,49.1821,41.2649Z"/>
  </g>
</svg>
