<svg id="Livello_1" data-name="Livello 1" xmlns="http://www.w3.org/2000/svg" viewBox="0 0 379.56 133.4681">
  <defs>
    <style>
      .cls-1 {
        opacity: 0.87;
      }

      .cls-2 {
        fill: #fff;
      }
    </style>
  </defs>
  <g class="cls-1">
    <path class="cls-2" d="M97.2659,54.99V93.6889H54.9487v38.577H0v-10.85H43.9349v-38.65h42.478V44.1205H128.367V.1076h10.9074V54.99Z"/>
    <path class="cls-2" d="M277.0164,132.4411h-8.7V128.05l-.1712-.067c-.1579.1967-.3132.3955-.4742.59a13.0822,13.0822,0,0,1-10.135,4.8549,17.3854,17.3854,0,0,1-11.1129-3.5964,18.9285,18.9285,0,0,1-6.2687-8.5736,20.08,20.08,0,0,1-1.3441-7.6415,19.8594,19.8594,0,0,1,4.6612-12.9876,17.6223,17.6223,0,0,1,12.1676-6.3858,13.7178,13.7178,0,0,1,9.46,2.4516,29.946,29.946,0,0,1,3.1494,2.9325v-4.46h8.7679Zm-9.3876-18.6955c0-1.6253.0108-3.2508-.01-4.8759a1.8139,1.8139,0,0,0-.219-.8859,10.6647,10.6647,0,0,0-5.07-4.28,9.304,9.304,0,0,0-4.9459-.5891,9.5346,9.5346,0,0,0-7.9966,5.9447,11.9923,11.9923,0,0,0-.8322,5.9873c.3265,3.6838,1.9469,6.6746,5.3139,8.3815a10.0979,10.0979,0,0,0,13.32-3.5021,2.6524,2.6524,0,0,0,.4192-1.3053C267.6584,116.9971,267.6288,115.3709,267.6288,113.7456Z"/>
    <path class="cls-2" d="M169.9676,8.795V22.3757h21.6488v8.9816H169.9438v23.666h-9.3864V0h32.5985V8.795Z"/>
    <path class="cls-2" d="M379.5163,39.77H351.5441a14.1547,14.1547,0,0,0,1.0064,2.3124,10.954,10.954,0,0,0,9.1231,5.1953,15.3151,15.3151,0,0,0,7.2056-1.4754,24.2407,24.2407,0,0,0,2.5822-1.5994c.2911-.1859.563-.4018.8925-.6393,1.5758,2.3657,3.13,4.6987,4.766,7.1553-1.08.721-2.0579,1.48-3.13,2.0679a24.7543,24.7543,0,0,1-10.004,3.165,20.45,20.45,0,0,1-14.0215-3.8109,18.6487,18.6487,0,0,1-7.8663-13.6843,19.9418,19.9418,0,0,1,2.1372-11.632,17.8028,17.8028,0,0,1,13.8437-9.8708,18.5332,18.5332,0,0,1,14.1175,3.5822,18.2429,18.2429,0,0,1,5.8387,7.6029C379.6794,31.8635,379.6185,35.7381,379.5163,39.77Zm-9.4784-6.9065a7.9277,7.9277,0,0,0-5.697-6.9448c-3.3867-1.0083-6.739-.8475-9.6881,1.443a7.6243,7.6243,0,0,0-3.0075,5.5018Z"/>
    <path class="cls-2" d="M233.7571,117.1707H205.9739a4.0459,4.0459,0,0,0,.8528,2.3175,10.9281,10.9281,0,0,0,9.5053,5.216,15.2338,15.2338,0,0,0,9.4854-3.1714c.2249-.1684.4643-.3172.7911-.5389l4.7154,7.06a22.6281,22.6281,0,0,1-7.293,4.05,21.4082,21.4082,0,0,1-15.0255.0053,18.9857,18.9857,0,0,1-10.5034-9.1618,19.6184,19.6184,0,0,1-.875-16.693c2.5341-6.5981,7.369-10.7457,14.4124-11.84a18.1586,18.1586,0,0,1,16.9045,5.8427,18.4967,18.4967,0,0,1,4.7426,10.6933A33.307,33.307,0,0,1,233.7571,117.1707Zm-9.42-6.9191a7.922,7.922,0,0,0-3.2955-5.6414,9.9745,9.9745,0,0,0-7.3167-1.7293,8.7075,8.7075,0,0,0-6.1946,3.3021,6.8017,6.8017,0,0,0-1.5863,4.0686Z"/>
    <path class="cls-2" d="M307.6378,55.0637h-8.8842V50.1406l-.1672-.0539c-.2525.3-.51.5952-.7564.9a12.5588,12.5588,0,0,1-10.791,5.0367,13.1692,13.1692,0,0,1-10.6829-5.7008,12.4475,12.4475,0,0,1-2.3951-7.1171c-.0789-8.3807-.0894-16.762-.124-25.1432a1.4572,1.4572,0,0,1,.0648-.2627H283.38v1.1336c0,6.8552-.018,13.7106.019,20.5656a14.925,14.925,0,0,0,.42,3.1983c.57,2.5043,2.3693,3.7633,4.7338,4.266a7.8681,7.8681,0,0,0,6.6268-1.24,14.427,14.427,0,0,0,1.3416-1.0591,4.6425,4.6425,0,0,0,1.6551-3.6419c-.0856-7.3325-.0378-14.6666-.0378-22V17.801h9.4991Z"/>
    <path class="cls-2" d="M349.4431,132.4378h-9.4493v-1.2153c0-6.8872.0133-13.7745-.0161-20.6616a11.45,11.45,0,0,0-.3628-2.7239c-.709-2.8113-2.7768-4.1025-5.4381-4.67-3.9024-.8317-7.13,1.8069-8.8122,4.5055a2.1829,2.1829,0,0,0-.1729,1.0934q-.0137,11.2395-.0069,22.4791v1.1716h-9.3542V95.1521h8.7521v5.1655c.5378-.6412.932-1.1208,1.3366-1.5917a12.2866,12.2866,0,0,1,10.14-4.5553c5.4076.1956,9.5291,2.62,12.01,7.5309a13.6088,13.6088,0,0,1,1.42,6.167q.027,11.8136.0051,23.6271C349.4957,131.7759,349.4651,132.0562,349.4431,132.4378Z"/>
    <path class="cls-2" d="M208.5969,17.7788v1.2136c0,6.8234-.0251,13.6469.0236,20.47a13.8147,13.8147,0,0,0,.53,3.56,5.1852,5.1852,0,0,0,3.603,3.6348,8.2926,8.2926,0,0,0,9.0912-2.1559c.2242-.2267.4546-.4476.6756-.6773a2.9867,2.9867,0,0,0,.9034-2.2076c-.0307-7.5566-.0175-15.1134-.0175-22.67v-1.172h9.4293V55.0236h-8.8241V49.9649c-.9427.999-1.7313,1.951-2.6375,2.7733a12.2244,12.2244,0,0,1-9.9085,3.2171,13.589,13.589,0,0,1-7.0995-2.7225,13.068,13.068,0,0,1-4.9919-8.3814,21.1623,21.1623,0,0,1-.2689-3.5094c-.0231-7.461-.0119-14.9221-.0119-22.3831v-1.18Z"/>
    <path class="cls-2" d="M160.5478,74.4113h9.3386v49.1319h23.4657v8.8543H160.5478Z"/>
    <path class="cls-2" d="M267.1063,26.2505h-11.169c-.0215.4041-.0521.7128-.0522,1.0216-.0031,4.686-.0219,9.3722.01,14.0581a6.6425,6.6425,0,0,0,1.0534,4.0744,4.2833,4.2833,0,0,0,4.2791,1.7159,23.5512,23.5512,0,0,0,3.6007-1.0828l3.3522,7.5a11.6525,11.6525,0,0,1-4.3528,1.9031,15.39,15.39,0,0,1-9.726-.3566,11.4252,11.4252,0,0,1-5.84-5.09,14.85,14.85,0,0,1-1.8842-7.5845q.0092-7.5072.0017-15.0146V26.2689h-7.2016V17.763h7.18V6.6968h9.52V17.69H267.106Z"/>
    <path class="cls-2" d="M285.3629,95.1445h8.9543v4.9429l.13.1488c4.1528-6.2672,9.7891-7.3408,16.4714-4.7852-1.0656,2.7521-2.1512,5.5555-3.2176,8.31-1.226-.22-2.3975-.4493-3.5755-.6382a8.0346,8.0346,0,0,0-6.4124,1.7746,26.1579,26.1579,0,0,0-2.4508,2.4976,1.8387,1.8387,0,0,0-.4013,1.4146q.0123,11.1888.0055,22.3778v1.21h-9.5036Z"/>
    <path class="cls-2" d="M341.8206,18.0765q-1.5255,3.9318-3.0563,7.8692a3.1663,3.1663,0,0,1-.2154.3914c-1.2128-.2291-2.3788-.5372-3.5639-.6574-4.0555-.411-6.9459,1.5057-9.107,4.7462a2.09,2.09,0,0,0-.1816,1.0915q-.0147,11.1954-.0074,22.3909v1.1108h-9.3545V17.7954h8.8432v4.9353l.1745.0834c2.0274-3.0439,4.6187-5.3261,8.3117-5.9436A15.4422,15.4422,0,0,1,341.8206,18.0765Z"/>
  </g>
</svg>
