<svg id="Livello_1" data-name="Livello 1" xmlns="http://www.w3.org/2000/svg" viewBox="0 0 250.1546 133.4462">
  <defs>
    <style>
      .cls-1 {
        opacity: 0.87;
      }

      .cls-2 {
        fill: #fff;
      }
    </style>
  </defs>
  <g class="cls-1">
    <path class="cls-2" d="M25.3782,23.1416H.0743V0H78.4731V23.1416H53.1782V90.29h-27.8ZM82.7932,0h76.104V23.1416H110.6114V34.3932h48.2858V55.8976H110.6114V67.1491H158.91V90.29H82.7932Zm80.7861,0H209.23c30.0911,0,40.725,22.2573,40.725,45.0125,0,27.7021-14.6683,45.2773-46.1581,45.2773h-40.218V0Zm27.8172,67.1491h10.88c17.3275,0,19.8618-14.0406,19.8618-22.523,0-5.68-1.78-21.4845-21.8882-21.4845h-8.8533V67.1491Z"/>
    <path class="cls-2" d="M0,107.4127H1.145v20.1525H0Zm15.1307,17.0478h-.0516a5.34,5.34,0,0,1-5.13,3.443c-4.0365,0-5.7815-3.5563-5.7815-7.5643,0-4.29,1.9273-7.62,5.9633-7.62a5.08,5.08,0,0,1,4.9481,3.5843h.0516v-8.8907h.99v20.1525h-.99Zm-.0263-4.1213c0-3.3866-1.5364-6.689-4.9743-6.689-3.5411,0-4.9739,3.19-4.9739,6.689,0,3.4157,1.5617,6.6332,5.0005,6.6332,3.3861,0,4.9478-3.3023,4.9478-6.6332Zm5.1051.1133c-.0525,3.4152,1.6147,6.52,4.9218,6.52,2.5264,0,4.3243-1.6372,4.7916-4.3183h.99c-.5206,3.3867-2.6041,5.2494-5.7813,5.2494-3.9062,0-5.9633-3.33-5.9118-7.3382-.0515-3.98,1.8748-7.8462,5.9118-7.8462,4.1925,0,6.0678,3.5843,5.8855,7.7334Zm9.8174-.9316c-.0516-3.0484-1.8224-5.8707-4.896-5.8707-2.9689,0-4.7138,2.992-4.9219,5.8707Zm13.7246,5.3627c0,.8468,0,1.75.8849,1.75a4.32,4.32,0,0,0,.7293-.0848v.9031a4.2559,4.2559,0,0,1-.8077.1128c-1.5612,0-1.797-.9311-1.797-2.1167v-.762H42.71a5.1316,5.1316,0,0,1-4.9739,3.2175c-2.5263,0-4.48-1.0444-4.48-4.0927,0-3.3867,2.7086-4.0928,4.9218-4.29,4.4264-.3388,4.6092-.6492,4.6092-3.02,0-.6492-.6773-2.8508-3.7243-2.8508a3.7763,3.7763,0,0,0-4.1147,3.8667h-.99c.13-3.19,1.9531-4.7978,5.1041-4.7978,2.3435,0,4.6875.79,4.6875,3.7824v8.3821Zm-.99-5.56c-.7813.96-2.9167.8468-4.8431,1.1292-2.344.2819-3.6713,1.1851-3.6713,3.3588,0,1.75,1.1717,3.1611,3.5152,3.1611,4.5047,0,5-4.1771,5-4.94l-.0009-2.71Zm5.1562,3.4151a4.2252,4.2252,0,0,0,4.2117,4.2388q.1079,0,.2156-.0048c1.7441,0,4.2446-.5643,4.2446-3.0768,0-2.4556-2.2915-2.8223-4.5834-3.33-2.3173-.508-4.6093-1.1572-4.6093-4.1207,0-2.8787,2.5779-3.7255,4.8431-3.7255,2.839,0,4.9481,1.3263,4.9481,4.6287h-.9889c-.0267-2.6247-1.7192-3.6971-3.9592-3.6971-1.8218,0-3.8536.7335-3.8536,2.7944,0,2.3143,2.2915,2.6816,4.4531,3.19,2.6557.5364,4.74,1.2136,4.74,4.2619,0,3.1332-2.891,4.008-5.2345,4.008-3.0475,0-5.339-1.7785-5.4177-5.1651h.99v-.002Zm23.7243,3.5848h.052l3.646-13.2658h1.3283L80.34,126.3235h.052l3.75-13.2658h1.0935L80.9386,127.565H79.7143l-3.6718-13.1525h-.0511l-3.698,13.1525h-1.25l-4.2451-14.5073h1.0672l3.7769,13.2658Zm21.0693-13.605c3.9319,0,6.1456,3.4715,6.1456,7.5922s-2.2137,7.5922-6.1456,7.5922-6.1456-3.4715-6.1456-7.5922S88.7784,112.7185,92.7113,112.7185Zm0,14.2538c3.3592,0,5.1562-3.19,5.1562-6.6611s-1.797-6.6611-5.1562-6.6611-5.1572,3.19-5.1572,6.6611,1.7975,6.6612,5.1572,6.6612Zm10-10.6975h.0773a5.0667,5.0667,0,0,1,5.13-3.3023v1.0728a4.3175,4.3175,0,0,0-3.698,1.4112,5.6468,5.6468,0,0,0-1.51,4.1771v7.931h-.99V113.0574h.99Zm12.6174-2.2863H112.412v10.1326c0,2.3428,1.0152,2.5684,2.8914,2.512v.9311c-2.0318.1412-3.9853-.17-3.8813-3.4436V113.9885h-2.4738v-.9316h2.4738V108.541h.99v4.5159h2.9167v.9316Zm3.8073-6.5758v8.75h.052a4.9721,4.9721,0,0,1,4.7917-3.4436c4.7137,0,4.7653,4.0928,4.7653,5.8707v8.9754h-.99v-9.1735c0-1.496-.156-4.742-3.8021-4.742-2.9945,0-4.8182,2.5119-4.8182,6.0683v7.8462h-.989V107.4127Zm22.8909,15.6686a4.2253,4.2253,0,0,0,4.2113,4.2394q.1078,0,.2155-.0048c1.7441,0,4.245-.5649,4.245-3.0758,0-2.4561-2.2914-2.8229-4.5833-3.33-2.3177-.5075-4.61-1.1567-4.61-4.1213,0-2.8781,2.5774-3.7255,4.8436-3.7255,2.8384,0,4.9481,1.3264,4.9481,4.6287h-.99c-.0258-2.6247-1.7191-3.6965-3.9582-3.6965-1.8223,0-3.8537.7335-3.8537,2.7933,0,2.3149,2.2915,2.6817,4.4527,3.19,2.6562.5359,4.74,1.2146,4.74,4.262,0,3.1327-2.8919,4.0074-5.235,4.0074-3.0474,0-5.3394-1.7784-5.4177-5.1651l.9908-.0011Zm13.8286-6.35h.052a5.0671,5.0671,0,0,1,4.8694-3.67c4.1146,0,6.0158,3.5279,6.0158,7.6207,0,4.4031-1.9273,7.5637-6.0158,7.5637a4.768,4.768,0,0,1-4.8694-3.3587h-.052v8.214h-.9894v-19.7h.9894Zm9.9481,3.9516c0-3.3029-1.4318-6.69-5.0258-6.69-3.5682,0-4.896,3.245-4.896,6.69s1.12,6.6326,4.896,6.6326c3.489,0,5.0259-3.048,5.0259-6.6328Zm4.8442-4.0643h.0777a5.0666,5.0666,0,0,1,5.13-3.3024v1.0723a4.3185,4.3185,0,0,0-3.6986,1.4117,5.645,5.645,0,0,0-1.51,4.1771v7.9312h-.99V113.4h.99Zm7.1875,4.1771c-.052,3.4156,1.6147,6.52,4.9218,6.52,2.5263,0,4.3233-1.6377,4.792-4.3193h.9894c-.5212,3.3877-2.6046,5.2494-5.7814,5.2494-3.9066,0-5.9638-3.33-5.9118-7.3392-.052-3.98,1.8753-7.8463,5.9118-7.8463,4.1925,0,6.0679,3.5848,5.886,7.7335H177.8348v.0021Zm9.8173-.9312c-.051-3.0494-1.8217-5.8712-4.8955-5.8712-2.9693,0-4.7138,2.991-4.9218,5.8712Zm13.725,5.3622c0,.8468,0,1.75.8849,1.75a4.4154,4.4154,0,0,0,.7294-.0843v.9032a4.3444,4.3444,0,0,1-.8072.1128c-1.5626,0-1.7974-.9317-1.7974-2.1173v-.762h-.0522a5.1312,5.1312,0,0,1-4.9738,3.2176c-2.5263,0-4.4793-1.0444-4.4793-4.0923,0-3.3872,2.7086-4.0928,4.9218-4.29,4.4274-.3393,4.6093-.65,4.6093-3.02,0-.6492-.6773-2.8508-3.7244-2.8508a3.7752,3.7752,0,0,0-4.1147,3.8668h-.9889c.13-3.1891,1.953-4.7979,5.1036-4.7979,2.3435,0,4.6875.79,4.6875,3.7824l.0015,8.3821Zm-.99-5.56c-.7818.9591-2.9162.8468-4.8435,1.1293-2.3435.2824-3.6718,1.1856-3.6718,3.3587,0,1.75,1.1722,3.1611,3.5157,3.1611,4.5052,0,5.0006-4.1776,5.0006-4.94l-.001-2.71Zm15.0266,5.1372h-.051a5.3406,5.3406,0,0,1-5.1309,3.4431c-4.036,0-5.781-3.5559-5.781-7.5638,0-4.29,1.9268-7.6207,5.9633-7.6207a5.081,5.081,0,0,1,4.9486,3.5848h.051v-8.8911h.99v20.1523h-.99v-3.1046Zm-.0261-4.1207c0-3.3877-1.5364-6.69-4.9745-6.69-3.5415,0-4.9738,3.1886-4.9738,6.69,0,3.4151,1.5617,6.6326,5.0006,6.6326,3.3856-.0005,4.9478-3.3028,4.9478-6.6331Zm4.9486-10.02v-2.9066h.9893v2.9066Zm0,17.2459V113.4h.9893v14.5082Zm4.6879-14.5079h.989v3.1048h.052a4.9727,4.9727,0,0,1,4.792-3.4431c4.7138,0,4.7648,4.0928,4.7648,5.8717V127.91h-.9894v-9.1746c0-1.496-.1556-4.7415-3.8021-4.7415-2.9945,0-4.8183,2.5115-4.8183,6.0678v7.8467h-.9894V113.4Zm25.13,0v13.7454c0,1.1292,0,6.4919-5.781,6.2943-2.8647,0-5.0789-1.1571-5.2345-4.5159h.9894c.2091,2.5683,2.083,3.5848,4.2709,3.5848,4.687,0,4.7652-4.1492,4.7652-5.1082v-3.33h-.0516a5.0181,5.0181,0,0,1-4.844,3.3024c-3.9315,0-5.78-3.1327-5.78-7.1681,0-3.8383,2.0051-7.1411,5.78-7.1411a5.007,5.007,0,0,1,4.844,3.3582h.0516v-3.021h.99Zm-10.6771,6.8023c0,3.4152,1.641,6.238,4.7916,6.238,3.2551,0,4.87-2.9635,4.87-6.238,0-3.2459-1.5885-6.21-4.87-6.21-3.2291,0-4.7915,3.1328-4.7915,6.2091Z"/>
  </g>
</svg>
