<svg id="Livello_1" data-name="Livello 1" xmlns="http://www.w3.org/2000/svg" viewBox="0 0 338.9927 133.4453">
  <defs>
    <style>
      .cls-1 {
        opacity: 0.87;
      }

      .cls-2 {
        fill: #fff;
      }
    </style>
  </defs>
  <g class="cls-1">
    <path class="cls-2" d="M52.5566,133.4453A106.6017,106.6017,0,0,1,12.874,93.53,98.9941,98.9941,0,0,1,.0286,42.3326c1.7844-.5337,31.25-.5831,33.0733-.1238-1.9488,7.2655-1.1094,8.738,6.1423,10.5932.48,1.8757.0594,4.3349,2.0246,5.5089,1.64.98,3.63,1.371,5.6882,2.102.0943.6253.2021,1.5612.3808,2.4833a4.7569,4.7569,0,0,0,5.2808,4.0779,4.7894,4.7894,0,0,0,4.9477-4.5107c.0808-.7386.0888-1.4851.12-2.0493,2.0419-.7154,4.1006-1.1063,5.7888-2.1164,1.8759-1.1224,1.7079-3.4268,1.9954-5.5377,2.3872-.5611,5.02-.7751,6.4753-3.2563,1.4566-2.4829.5165-4.874-.4305-7.4379h33.31c1.2167,9.79-1.8472,31.7566-11.06,48.813A107.4755,107.4755,0,0,1,52.5566,133.4453ZM32.2742,74.3941c.2507-5.1922-2.5841-7.0517-7.174-6.8761-.417-2.1582-.0126-4.3384-1.8075-5.8869-1.6762-1.4461-3.8044-1.233-5.848-1.5546-.0074-2.2224-.0528-4.2161-1.5987-5.7671-1.5579-1.5631-3.6926-1.17-5.53-1.6192-1.2076-5.4334-2.68-7.05-6.522-6.8772A94.4357,94.4357,0,0,0,20.8451,99.29c3.858-.7892,4.5137-3.4834,4.4485-6.5513,2.0982-.323,4.068-.2692,5.5371-1.8028,1.48-1.5446,1.6062-3.5125,1.7283-5.5576.79,0,1.4074.0523,2.013-.0087,3.4458-.3472,5.4953-2.8943,5.01-6.1912-.3163-2.1475-2.0255-3.7412-4.6513-4.3075C34.1374,74.6994,33.3333,74.5822,32.2742,74.3941ZM80.1285,92.75c.5367,4.5784,1.3191,5.74,4.3554,6.2227a94.5546,94.5546,0,0,0,16.9006-53.2815,5.2083,5.2083,0,0,0-3.6571,1.2525c-1.9033,1.4485-2.1981,3.635-2.3227,5.7506-6.0446.7051-6.0981.758-7.5849,7.4-1.8639.2781-3.9386.1153-5.5408,1.5316-1.7283,1.5277-1.5682,3.6645-1.7028,5.7967-1.9346.3788-3.947.0807-5.5086,1.4986-1.6271,1.4772-1.7324,3.4586-1.8532,5.5-.9739.1656-1.7769.28-2.57.4412a5.6359,5.6359,0,0,0-4.7772,4.6966A5.37,5.37,0,0,0,70.7683,85.36q.0857.0072.1715.0117c.657.0671,1.32.08,1.953.1158C73.5307,91.0241,74.7639,92.1472,80.1285,92.75Zm-21.5992,7.3026c-.8551-4.8429-2.3678-6.7631-5.5512-6.7344a7.3486,7.3486,0,0,0-3.4575.9775c-2.1356,1.2359-2.1579,3.6268-2.5854,5.8989-2.1977-.0989-4.3267-.1849-6.0355,1.4346-1.7212,1.6312-1.626,3.7618-1.6274,5.8577-5.2222-.4864-7.5291.97-7.6294,4.9629a104.1993,104.1993,0,0,0,20.8817,16.6492,102.5587,102.5587,0,0,0,21.16-16.9447,4.1156,4.1156,0,0,0-1.4777-3.5962c-1.7377-1.5656-3.8494-1.3873-5.9513-1.017C66.1432,101.9912,64.77,100.1079,58.5293,100.0521Zm-27.5049,1.5164c1.5725,1.7227-.3214,3.38.5808,5.1851.5012,0,1.249.2175,1.56-.0581a2.4242,2.4242,0,0,0,.3925-1.6234c.0031-.4573-.3335-.9111-.3619-1.376a20.0891,20.0891,0,0,1,.0949-2.194c.3978.1664.5951.1891.6225.27.3466,1.019.6687,2.0464.9983,3.0756,1.3.2558,1.3.2558,2.0686-.7039-.0521-1.5175-2.0975-2.1508-1.7355-4.3048l2.8839,2.58.9695-1.9284c-.4845-.32-.79-.6639-1.1506-.7362-2.63-.5275-3.6048-2.4472-4.1751-4.771a17.7546,17.7546,0,0,0-.8569-2.1277A6.6673,6.6673,0,0,0,31.5292,93.91a3.84,3.84,0,0,0-.445,1.35c-.5208,2.2071-1.5807,3.9147-3.9666,4.4822a6.54,6.54,0,0,0-1.2692.6786l.9962,2.01,2.8541-2.6649c.5116,2.2482-2.46,3.0761-1.3373,5.1981h1.6219ZM78.9586,61.5271l.9821-2.16a16.421,16.421,0,0,0-1.8061-.7375,4.46,4.46,0,0,1-3.04-2.8127c-.285-.6893-.4486-1.429-.665-2.1465-.2174-.72-.3595-1.5072-1.3624-1.5153a2.8736,2.8736,0,0,0-1.2827,2.1665c-.5406,2.19-1.5435,3.9261-3.9695,4.4528-.4128.09-.76.4815-1.2986.8414l.9631,1.5861c1.4045-.3271,1.6115-1.9443,3.0447-2,.3635,1.8927-2.4716,2.6209-1.4679,4.7557l1.6665.1036,1.1646-3.8319c1.4425,1.9871-.3655,3.6414.2834,5.1922,1.0986.5608,1.0986.5608,2.1219-.0734.54-1.55-1.3353-3.1619.22-5.1214l1.2318,3.9084,1.8145-.4475c.412-2.018-1.992-2.63-1.5955-4.7951C77.0112,59.8136,77.8384,60.5414,78.9586,61.5271Zm.9625,39.01c-1.4823-1.1876-3.5074-1.0411-4.2727-2.7263-.69-1.5189-1.273-3.0863-1.9814-4.8239-.588.3029-1.1249.4064-1.3268.7233a5.9474,5.9474,0,0,0-.5953,1.7273c-.5408,2.1152-1.5419,3.78-3.8767,4.2929a5.6844,5.6844,0,0,0-1.3459.7871l1.0523,1.8959,2.7946-2.5094c.6651,2.1971-2.5377,2.9614-1.1962,5.1645l1.55-.0755c.7088-1.1667.1058-2.6744,1.42-3.42,1.1131,1.6873-.53,3.2506-.0211,4.7825.5492.6567,1.2248.9465,1.7805.326a2.69,2.69,0,0,0,.385-1.6538c.003-.4558-.3388-.9072-.3711-1.3714a17.7655,17.7655,0,0,1,.0776-2.0594l.6041-.0848,1.1361,3.5655,1.6655-.1561c.931-2.1279-2.0055-2.824-1.3021-4.9664l2.7771,2.4238ZM59.4168,79.9845c-.4719-.35-.62-.5442-.7988-.5794-2.8366-.5572-4.0183-2.529-4.5421-5.1467a6.3708,6.3708,0,0,0-.8171-1.61c-1.4578.1417-1.548,1.0777-1.7555,1.9382-.54,2.24-1.51,4.0933-4.03,4.6476-.4118.0906-.7538.4981-1.2814.8662l.9895,1.6817c1.29-.48,1.568-1.9889,3.354-2.0737l-2.3248,3.9c.6031,1.1176,1.3236,1.2455,2.1765.7639.6022-1.0975.1453-2.5367,1.6841-3.5281a25.0111,25.0111,0,0,1-.0189,2.6035,20.6058,20.6058,0,0,1-.4875,2.2309c.8859.9663,1.5965,1.1145,2.2773.2787.6427-1.6629-1.2709-3.302.361-5.179l1.156,3.8448,1.6217-.22c.9485-2.0927-1.9259-2.8271-1.28-4.9627l2.86,2.5222ZM31.8907,51.7406a8.1642,8.1642,0,0,0-1.3265,1.2579,5.025,5.025,0,0,0-.4023,1.3624c-.569,2.1667-1.5721,3.922-4.0034,4.425-.3562.0737-.6564.4179-1.1472.7476l.9028,1.91,2.9027-2.5781c.2634,2.1175-1.7531,2.7856-1.7274,4.4139a1.2359,1.2359,0,0,0,2.0079.5675l1.1363-3.621c.3746.5383.6639.7636.6427.9543-.1418,1.27-.35,2.5332-.5383,3.8111.9189,1.1132.9189,1.1132,2.2054.462.6809-1.5756-1.1713-3.225.271-5.2246l1.2685,3.7068h1.5653c1.05-2.0809-1.814-2.8588-1.2745-5.0087l2.86,2.4968.96-1.8482c-1.3189-1.2509-3.4054-1.0011-4.1574-2.7025C33.3591,55.3394,32.74,53.78,31.8907,51.7406Zm37.286,2.6458,1.1815,1.1693-.2045-1.6741ZM28.9944,96.2216l.4408-.0495.2025-1.1778-1.09.0991Zm41.2079-1.4331-1.009.6273,1.009,1.1362ZM56.9323,74.861c-1.1752.1209-1.1752.1209-.8451,1.0281ZM28.4538,53.701c-.9224.8389-.7209,1.2074.1892,1.8255ZM77.1884,95.3931l-1.095-.3688.1755,1.5548Zm-27.45-20.851-.6157.0677.251,1.1347.3647-.0465ZM35.5109,54.1085c-1.0664.496-1.0664.496-.55,1.2236ZM36.11,95.246l-.6474-.0286.0521,1.052.3511.0428Zm41.17-41c-1.0762.257-1.0762.257-.7864,1.0841Z"/>
    <path class="cls-2" d="M.1449,38.5643V2.4827c1.5714-.4634,102.3-.5839,104.6793-.1595.4458,1.4725.56,33.8972.1274,36.2013C103.46,39.0116,2.5726,39.1078.1449,38.5643ZM80.64,28.3331l.2513,1.79,1.7986-.5512c-.315-1.56-1.27-1.23-2.0892-1.1972a10.4129,10.4129,0,0,0-1.9026-.4015c-1.9593-.0528-3.921-.0189-5.8817-.0186a19.5456,19.5456,0,0,0,.4337-2.8032c.0507-3.68.0353-7.3607.0078-11.0409-.0054-.7235.2485-1.6658-1.1948-1.9772-.0588.9125-.15,1.6928-.1527,2.4734q-.0217,5.8273.0054,11.6547c.0041.6888-.2541,1.61.9428,1.6551l-.292,1.2451c1.9292,0,3.7164-.0388,5.5009.0154A3.511,3.511,0,0,0,80.64,28.3331ZM53.5083,28.33c2.6749,1.5,5.4923.3873,8.2942.4458a2.1435,2.1435,0,0,0-1.4377-.8c-1.9011-.0565-3.8056-.038-5.7076.0054a3.8177,3.8177,0,0,0-1.1089.3893H51.8289c-.02,1.6632-.02,1.6632,1.5952,1.3019Zm-29.1518.0019a6.5058,6.5058,0,0,0,1.8527.6914c1.9.0918,3.8084.07,5.71,0,.3669-.0134.7186-.4443,1.0773-.6827.26-.439.7393-.8754.7445-1.3174.054-4.5718.0378-9.1444.0217-13.7168-.0019-.5519-.1089-1.1117-.996-1.09a3.8051,3.8051,0,0,0-.2331.914c-.0163,4.5042-.0309,9.0087.0091,13.5126a6.8668,6.8668,0,0,0,.4884,1.741c-2.7469-.7787-5.5277-.4529-8.3034-.2428-.1152.0087-.22.1517-.33.2321H22.7008c.0461,1.6708.0461,1.6708,1.6557,1.28Zm57.4809-13.04a6.6207,6.6207,0,0,0-8.2863-2.7361c-.005,4.7745-.0472,9.652.0331,14.6972H90.0733c-.0249-5.108.0442-10.0587-.0419-15.1716C86.661,12.0985,83.5392,11.8255,81.8374,15.2921ZM23.42,27.304c0-4.3271.0565-8.4086-.0355-12.4867a2.58,2.58,0,0,0-2.0638-2.3114,10.2324,10.2324,0,0,0-5.5751-.2229c-.5083,2.003-.4544,13.3633.08,15.021Zm37.4-15.3513a49.3632,49.3632,0,0,0-5.0763.4129c-2.016.3727-2.6278,1.2137-2.6542,3.2619-.0379,2.9353-.0117,5.8714-.0127,8.8072v2.8518a70.2094,70.2094,0,0,0,7.7433.0848ZM31.691,27.2919V12.3676a8.5526,8.5526,0,0,0-4.75-.0983c-2.2544.4716-3.0091,1.3946-3.0329,3.6858-.0347,3.3516-.0144,6.7038,0,10.0557a9.1648,9.1648,0,0,0,.198,1.2811Zm12.9742-.0241h7.6885c0-4.3028.0287-8.4545-.0183-12.6054a2.3274,2.3274,0,0,0-1.9089-2.1563,10.1215,10.1215,0,0,0-5.7613-.1653ZM11.4742,14.9185l-1.1761,1.4893,1.2,1.4022v6.9721l-1.1735,1.5,1.1293,1.3738.2968,2.269h9.7824c-2.6729-.726-5.5138.2148-8.2723-.8376V27.1138q0-6.3573-.0028-12.7145a8.0145,8.0145,0,0,0-.0895-1.6325c-.16-.758-.6633-.9468-1.4831-.5667Zm56.98,1.432,1.107,1.3948v7.1556L68.464,26.2354l1.09,1.3955.1778,2.2908H79.8785c-2.76-.7084-5.6437-.0244-8.6777-.8125V11.9856l-1.4953.1134-.1545,2.9238ZM42.1483,29.0317v-16.92H40.664l-.223,2.87L39.4583,16.33l1.0271,1.4452v6.9864l-1.018,1.5852.9812,1.2743.2119,2.2767h9.918C47.8774,29.2,45.0374,30.15,42.1483,29.0317ZM34.7558,11.9293c-.8173.558-.5831,1.3649-.5864,2.0556-.0212,4.4461-.0071,8.8923-.0144,13.3385-.001.6-.0571,1.2007-.0989,2.02-2.9654.5527-5.9067,0-8.766.5537h9.9413l.189-2.2648,1.1632-1.47-1.1792-1.2438V17.7648l1.17-1.4055-1.243-1.5076C34.9911,13.9174,35.8486,12.746,34.7558,11.9293ZM64.541,24.8523V17.787L65.63,16.2543l-.9414-1.0834c-.46-1.19.2187-2.4122-1.089-3.1074-.3009,5.6966-.2129,11.3766-.2914,17.1531-3.1233.7823-6.0624.0419-8.8866.7178h9.8337l.3638-2.415L65.67,26.1568ZM93.301,12.087l-.7369.0059c-.0473.7023-.1334,1.4045-.1356,2.1069-.013,4.1669.0033,8.334-.0152,12.5009-.0035.7967-.1179,1.5929-.1891,2.49-2.9551.6992-5.8728-.0128-8.6737.6648,3.237.1887,6.4653.2655,9.7146.1487l.281-2.2872,1.1268-1.4729-1.17-1.5611V17.8748l1.179-1.5581-1.1432-1.3612ZM91.7521,28.0853V22.7765c0-1.845.0535-3.692-.0154-5.5344-.0634-1.6976.3128-3.4512-.532-5.1372a1.5987,1.5987,0,0,0-.6782,1.0673c-.0308,4.4414-.0218,8.8831-.0158,13.3248C90.5118,27.199,90.5868,27.8767,91.7521,28.0853Zm-29.7157-.0168.6022-.1072c.008-1.7233.0191-3.4466.0229-5.17.004-1.8381.0632-3.679-.0173-5.5135-.0743-1.6936.369-3.4508-.5523-5.6029a6.2691,6.2691,0,0,0-.6187,1.58c-.03,4.3568-.04,8.7141.0078,13.0705A6.2606,6.2606,0,0,0,62.0364,28.0685ZM14.67,12.2531l-.6042-.3028c-.11.2438-.3153.4872-.3162.7314-.0185,5.0992-.014,10.1985-.014,15.4026,1.2356-.3344,1.1609-1.1992,1.1621-2.0022q.0094-6.252-.0076-12.5037A8.1534,8.1534,0,0,0,14.67,12.2531ZM43.4833,11.91c-.3094.5091-.5666.7558-.6135,1.0374-.3514,2.11-.0411,13.7237.41,14.9267.22-.1946.5625-.3555.5651-.5218q.1129-7.0729.1444-14.147A4.6612,4.6612,0,0,0,43.4833,11.91Zm39.3321,16.259c1.3054,1.5479,2.8289.923,4.1449.9507,1.3021.0274,2.7031.4122,4.0791-.3427C89.759,27.8385,86.6819,27.63,82.8154,28.1685Zm-31.698.47-.0385-.6842a36.8578,36.8578,0,0,0-3.8479.03c-1.2034.1268-2.6935-.6988-3.848,1.116,2.7895-.2451,5.3184.4273,7.7344-.4624Zm-29.0953.02-.0358-.6774c-2.2085,0-4.4178-.0309-6.6243.0342-.322.0094-.63.4764-.9453.7317C17.05,28.8649,19.5882,29.4994,22.0221,28.6585Z"/>
    <path class="cls-2" d="M142.9766,65.5067c.5866.2644,1.2026.5128,1.7923.8126a8.6164,8.6164,0,0,1,5.01,8.48c-.0983,3.9754-1.8084,7.0109-5.6011,8.52a14.64,14.64,0,0,1-4.9487,1.2015c-6.5549.1361-13.1144.0558-19.66.0558-.5093-1.5319-.68-33.7637-.1725-37.2654.5889-.056,1.2376-.1695,1.8865-.1712,5.2652-.0138,10.5318-.074,15.7949.0344a17.3364,17.3364,0,0,1,4.8086.8716,8.4642,8.4642,0,0,1,6.3326,7.963c.2829,3.868-1.1081,6.96-4.6474,8.8785a4.19,4.19,0,0,0-.51.3306C143.02,65.25,143.0225,65.3407,142.9766,65.5067Zm-13.1123,4.25c.0743,2.2643-.338,4.1356.28,6.2482,2.0872-.1368,4.1171-.1648,6.1147-.4332a2.77,2.77,0,0,0,2.5456-2.9361A2.6924,2.6924,0,0,0,136.2634,69.8c-.0294-.0016-.0589-.0027-.0883-.0033-1.9992-.1716-4.0245-.04-6.3108-.04Zm.0269-7.2133a13.2608,13.2608,0,0,0,5.4356-.1861,2.8646,2.8646,0,0,0,2.2627-2.7919,2.92,2.92,0,0,0-1.8768-3.2736,12.3719,12.3719,0,0,0-5.8215-.2815Z"/>
    <path class="cls-2" d="M275.8651,113.4716l-3.1428,16.1944h-11.879l-7.8443-29.1428a93.2121,93.2121,0,0,1,10.6327-.2109c1.353,6.0913,2.6616,11.983,4.03,18.1452,1.2365-6.15,2.418-12.0262,3.6237-18.0231h9.6088c1.1932,5.903,2.38,11.7753,3.64,18.0092,1.3606-6.1247,2.6512-11.9343,3.9975-17.9951a100.0322,100.0322,0,0,1,10.3294-.1174c-2.6674,9.9471-5.2567,19.6032-7.87,29.3476H279.1026Q277.4727,121.5192,275.8651,113.4716Z"/>
    <path class="cls-2" d="M142.7474,113.7068c3.5581,1.1273,4.701,3.8774,5.4511,6.998.7136,2.9689,1.245,6.0188,3.2632,8.9323-4.0047.3771-7.7.1155-11.2.1582a5.173,5.173,0,0,1-2.0747-3.2235c-.4831-1.709-.9-3.4379-1.3021-5.1684-.6762-2.911-1.32-3.45-4.3508-3.5066-.6145-.0115-1.2306.004-1.8442.0377a4.19,4.19,0,0,0-.8153.2762c-.041,3.7235-.0827,7.51-.1268,11.5135-3.5776.1744-6.8881.0787-10.1423.0411-.5016-1.4413-.68-34.3479-.2375-37.26a7.2881,7.2881,0,0,1,1.3006-.2252c5.5371-.0008,11.08-.1157,16.6086.1052a18.8721,18.8721,0,0,1,6.3123,1.508c4.4,1.8226,5.997,5.5488,5.9929,10.067-.004,4.3852-1.9058,7.6067-6.0667,9.3243C143.3381,113.3574,143.1774,113.4685,142.7474,113.7068ZM129.952,101.4754v7.5466a14.71,14.71,0,0,0,5.7574-.1462c2.1385-.5879,2.9883-1.83,2.8551-4.0684a3.3333,3.3333,0,0,0-3.2662-3.2981c-1.6737-.1657-3.3764-.0339-5.3468-.0339Z"/>
    <path class="cls-2" d="M119.1874,2.116h10.6962V15.5934H142.26V2.159h10.5783V39.4227H142.2859V25.32H129.9174V39.3935h-10.7C119.12,27.0113,119.1327,14.6792,119.1874,2.116Z"/>
    <path class="cls-2" d="M321.8711.3385c.13,12.9515.0894,25.9623-.004,39.085h-9.4863c-.3025-1.2044-.5778-2.3008-.767-3.0541-.829.6582-1.7221,1.3576-2.6047,2.07-3.6648,2.9578-12.1485,2.9157-15.9046-3.11-3.7158-5.96-3.29-16.2.9906-21.7586,3.3607-4.3643,9.9234-5.06,13.5816-3.52a23.74,23.74,0,0,1,3.5645,2.3417V.5393C312.873-.0847,319.0465-.1878,321.8711.3385ZM311.52,24.7885a40.6779,40.6779,0,0,0-.4884-4.1414,4.0065,4.0065,0,0,0-3.5836-3.4264,4.39,4.39,0,0,0-4.8332,2.3141,11.3985,11.3985,0,0,0-.28,9.9062c.8457,2.0454,2.5655,2.8389,4.853,2.6073A4.2676,4.2676,0,0,0,311,28.57,36.3971,36.3971,0,0,0,311.52,24.7885Z"/>
    <path class="cls-2" d="M180.29,84.6045h-9.4985c-.293-1.2491-.5832-2.4867-.9217-3.93a5.4746,5.4746,0,0,0-.66.7762c-2.1112,3.8643-7.28,4.6015-11.0683,3.6194a8.1231,8.1231,0,0,1-6.16-8.0094c-.2216-6.8264-.2071-13.6606-.275-20.4917a7.3451,7.3451,0,0,1,.2546-1.3225H162.29c.0369.761.096,1.4248.097,2.0887.008,5.1956,0,10.3913.0117,15.5869a9.2562,9.2562,0,0,0,.1577,2.034,2.7231,2.7231,0,0,0,2.3876,2.4554,3.2,3.2,0,0,0,3.322-1.5571,9.6129,9.6129,0,0,0,1.3031-5.0991q.0006-6.5631-.0212-13.126c-.0013-.7358,0-1.4716,0-2.3809h10.62C180.4545,65.0174,180.2116,74.6822,180.29,84.6045Z"/>
    <path class="cls-2" d="M253.8666,84.5972H243.6227c-.0414-.7432-.1146-1.4614-.1163-2.18-.0106-4.6474.0087-9.2949-.0183-13.9422a11.6944,11.6944,0,0,0-.2868-2.6309,2.8661,2.8661,0,0,0-2.5809-2.5167c-1.7146-.1934-3.1283.4044-3.7,1.9241a11.4907,11.4907,0,0,0-.6815,3.778c-.0794,4.4408-.0273,8.8839-.0364,13.3261-.0014.6707-.0626,1.3413-.1042,2.1746H226.0455c-.5226-1.407-.6384-26.8789-.0623-29.3728a86.6279,86.6279,0,0,1,9.0433.0269c.3327,1.4942.6532,2.9335,1.0062,4.5191a3.2352,3.2352,0,0,0,.5525-.6187c1.9387-4.0792,7.7632-5.6624,11.95-4.1469a7.8251,7.8251,0,0,1,5.37,7.517c.1768,3.4771.1,6.9678.11,10.4526.01,3.2805-.0075,6.5611-.0252,9.8416C253.9874,83.2848,253.9207,83.82,253.8666,84.5972Z"/>
    <path class="cls-2" d="M171.2135,22.2958c.11-1.7389.4443-3.2228-.8479-4.3948-2.598-.6254-2.8715-.4363-4.1981,3.0293l-9.7349-1.528a8.9573,8.9573,0,0,1,3.1012-6.7916,13.9746,13.9746,0,0,1,4.6131-2.5485,18.6909,18.6909,0,0,1,10.9157.0078,8.2033,8.2033,0,0,1,6.2608,7.086,43.1948,43.1948,0,0,1,.3013,5.3071c.0427,2.2554-.0247,4.5126-.0028,6.7687.007.7217.1472,1.4422.2395,2.2826h2.7439v7.2131c-4.1556,2.7167-9.1115,1.6024-12.3235-2.7234a8.538,8.538,0,0,1-6.1224,4.0626,15.8019,15.8019,0,0,1-4.0751.05c-4.139-.6275-6.5678-3.17-7.0343-7.1234a8.4816,8.4816,0,0,1,5.1986-9.2833,20.0751,20.0751,0,0,1,7.8119-1.4129C169.0636,22.287,170.0668,22.2958,171.2135,22.2958Zm.0287,5.403c-1.7363.3157-3.15.4645-4.493.8548a1.7891,1.7891,0,0,0-1.32,2.0753,3.3015,3.3015,0,0,0,1.1979,1.98,3.1105,3.1105,0,0,0,4.5963-2.182,19.29,19.29,0,0,0,.0188-2.7284Z"/>
    <path class="cls-2" d="M248.9952,20.9253l-9.5046-1.5209a8.9414,8.9414,0,0,1,2.5768-6.4259A10.9469,10.9469,0,0,1,249.3337,9.56a30.79,30.79,0,0,1,7.526.27c4.8991.8565,7.5835,4.1891,7.6966,9.1715.0744,3.278-.0125,6.5594-.0025,9.8393.0024.7995.1016,1.5988.17,2.6011h2.9917v7.1062c-3.8129,2.9655-9.2034,1.8714-12.3667-2.4486-.151.1049-.3585.1764-.447.3208-2.6159,4.2717-9.0242,4.6613-12.7044,2.832-2.9643-1.4734-4.1349-4.0689-4.2347-7.201a8.0123,8.0123,0,0,1,3.9019-7.6258c2.7855-1.6974,5.8973-2.0486,9.0634-2.14,1.0093-.0291,2.02-.0045,2.9726-.0045.5861-2.3272.5064-2.866-.5626-4.354C250.86,17.2545,250.8031,17.2924,248.9952,20.9253Zm5.2,6.7736a22.8977,22.8977,0,0,0-4.4855.87,2.22,2.22,0,0,0-.327,3.9791,3.2023,3.2023,0,0,0,4.7962-2.109,23.2008,23.2008,0,0,0,.0162-2.7405Z"/>
    <path class="cls-2" d="M284.6364,72.2038H266.9112c-.0721,2.627,1.0213,4.2547,3.0945,4.8668,2.4824.733,3.9435-.0254,5.984-3.1977l8.4126,2.629A9.9473,9.9473,0,0,1,279.7341,83.4c-5.16,3.2092-13.4551,2.6514-18.189-1.1669-3.5645-2.8751-4.9748-6.7966-5.0594-11.2012a26.1659,26.1659,0,0,1,.6766-6.2869c1.2365-5.3938,4.7691-8.617,10.0885-9.8855a17.5872,17.5872,0,0,1,7.7264-.08c5.6274,1.1727,9.3019,5.7089,9.6453,11.96C284.7151,68.4266,284.6364,70.1235,284.6364,72.2038Zm-10.06-5.7422c-.3257-3.11-1.5792-4.4353-3.8075-4.2191a3.69,3.69,0,0,0-3.44,3.9247q.01.1478.0312.2944Z"/>
    <path class="cls-2" d="M253.4353,117.1391H235.6074c.1962,3.1577,1.18,4.5545,3.458,5.1285,2.4109.6074,3.7076-.1039,5.82-3.3275l8.1561,2.6134a4.9988,4.9988,0,0,1-1.3053,3.8257,14.0671,14.0671,0,0,1-3.3884,3.2092c-5.7023,3.5506-14.4234,2.3878-19.1546-2.3932a14.3759,14.3759,0,0,1-3.9058-9.8667,18.2737,18.2737,0,0,1,2.3343-10.4469,11.7645,11.7645,0,0,1,6.5353-5.3014,18.2549,18.2549,0,0,1,7.8712-.94c6.6845.7122,10.9494,5.07,11.419,11.8085C253.5738,113.2591,253.4474,115.0868,253.4353,117.1391Zm-17.4436-5.5786h7.3864c-.1458-2.7489-1.29-4.16-3.3233-4.2469-2.0839-.0894-3.6474,1.4649-4.0631,4.2469Z"/>
    <path class="cls-2" d="M170.3487,119.011l8.3786,2.6145c-.8308,3.5875-2.7139,6.1238-5.8077,7.4734a16.5045,16.5045,0,0,1-16.0724-1.0253c-3.9315-2.4393-5.494-6.3148-6.0206-10.6782a20.1962,20.1962,0,0,1,.8062-8.3086c1.5041-4.96,4.9806-7.8909,9.8967-9.1289a15.9352,15.9352,0,0,1,7.3146-.1258c4.9408,1.0618,8.2534,3.9025,9.4569,8.8277a42.5628,42.5628,0,0,1,.7153,6.6962,7.5938,7.5938,0,0,1-.3422,1.7886H161.3093c-.1964,2.5038.8129,4.3094,2.6427,5.0154C166.3686,123.0928,168.0516,122.2942,170.3487,119.011Zm-1.7656-7.4424c.2-2.6384-.9384-4.1694-3.0417-4.2754-2.33-.1174-4.0255,1.71-3.9538,4.2754Z"/>
    <path class="cls-2" d="M182.2288,77.5246l8.1079-3.2378c1.0076,2.0722,2.2485,3.6453,4.63,3.7038a3.1549,3.1549,0,0,0,2.9259-1.4716,1.93,1.93,0,0,0-1.6509-2.0317c-1.2457-.3542-2.5245-.5918-3.7877-.8856-1.13-.2629-2.2836-.4557-3.3828-.8144-5.6144-1.8319-7.8725-7.0877-5.4118-12.48a8.2651,8.2651,0,0,1,4.4184-4.3674,18.2473,18.2473,0,0,1,14.1762-.3327,8.5593,8.5593,0,0,1,5.5439,7.4913l-9.0672,1.42c-.8945-1.4268-1.7761-2.85-3.7891-2.5421-.9446.1445-1.7411.3932-1.985,1.5.0642,1.1435.8878,1.5757,1.8818,1.7815,1.4057.2911,2.8307.4932,4.2305.8084a25.5384,25.5384,0,0,1,3.546.99,8.814,8.814,0,0,1,5.8079,8.6038,8.4736,8.4736,0,0,1-5.6875,8.4211,20.1331,20.1331,0,0,1-14.4385.2471,9.2045,9.2045,0,0,1-5.6938-5.2763A10.8486,10.8486,0,0,1,182.2288,77.5246Z"/>
    <path class="cls-2" d="M312.7,77.57l8.0822-3.2175c2.6384,4.0548,6.0393,4.84,7.7615,1.9163-.1557-1.2156-1.09-1.6365-2.1105-1.8859-1.7228-.421-3.4631-.7694-5.1935-1.16-.5314-.12-1.0614-.2553-1.58-.4217-4.04-1.2964-6.1736-3.8723-6.332-7.6281-.1828-4.3286,1.8706-7.8541,5.6246-9.3731a18.4191,18.4191,0,0,1,13.4131-.3732c3.4854,1.2359,5.5142,3.7868,6.1946,7.6579l-9.1787,1.3843c-2.1554-2.809-3.3-3.143-5.5923-1.6235v1.8375a19.4575,19.4575,0,0,0,1.9607.6384c2.0035.427,4.0466.6952,6.022,1.2214,5.5918,1.49,8.3728,6.5262,6.7717,12.0786a7.895,7.895,0,0,1-4.6236,5.1855,19.9084,19.9084,0,0,1-15.5643.3269A8.7742,8.7742,0,0,1,312.7,77.57Z"/>
    <path class="cls-2" d="M285.5765,77.519l8.3137-3.2519c.7782,2.2655,2.1942,3.6475,4.5142,3.7043,1.1749.0287,2.3491-.1379,2.8976-1.4275a1.9916,1.9916,0,0,0-1.6659-2.0752c-1.25-.3407-2.522-.6027-3.7864-.89-.9322-.212-1.8783-.3708-2.8-.622-4.0889-1.1151-6.3943-3.6253-6.7469-7.3037-.4306-4.4907,1.36-7.9491,5.2767-9.7214a17.66,17.66,0,0,1,14.9.046,8.4944,8.4944,0,0,1,4.7229,6.7314c-1.3284.747-5.5773,1.493-9.1272,1.6l-1.7344-2.1123c-1.6144-.2361-3.1495-.6717-3.9348,1.1543.0623,1.2868.898,1.7,1.8884,1.91,1.4038.2982,2.8216.531,4.2231.8384a24.9045,24.9045,0,0,1,3.1648.8272,9.17,9.17,0,0,1,5.801,11.5985q-.1269.3812-.287.75A7.8817,7.8817,0,0,1,306.719,83.83a19.8491,19.8491,0,0,1-15.5629.2713A9.0126,9.0126,0,0,1,285.5765,77.519Z"/>
    <path class="cls-2" d="M207.6749,10.1285h11.1779l5.0845,17.849,5.6757-17.8982h10.3325c-3.5814,9.9116-7.0742,19.5778-10.6007,29.3372H217.9163C214.5545,29.803,211.1634,20.105,207.6749,10.1285Z"/>
    <path class="cls-2" d="M177.7064,100.434h11.26c1.6785,5.8937,3.3554,11.7814,5.0868,17.8608,1.9-6.0372,3.7427-11.8926,5.621-17.8611,3.4626-.2251,6.7527-.1575,10.4174-.053L199.424,129.6462H188.037C184.48,120.1768,181.539,110.3821,177.7064,100.434Z"/>
    <path class="cls-2" d="M269.9074,10.063h9.018c.325,1.8047.6307,3.5031,1.0213,5.6723,2.2907-4.2082,5.5714-5.7835,10.0939-5.679L289.3359,21.68c-.8654-.1978-1.443-.3357-2.0233-.4615-3.8175-.8278-6.5737,1.1619-6.7141,5.0584-.13,3.6183-.0084,7.2454-.0165,10.8686-.0017.7279-.0892,1.4556-.1444,2.2952h-10.41C269.7723,29.68,270.0026,20.01,269.9074,10.063Z"/>
    <path class="cls-2" d="M195.97,10.0026l.98,5.6524c2.3172-3.9637,5.4855-5.7464,9.6642-5.6072.47,1.3281.2137,8.1217-.4253,11.54-.497-.0862-1.0067-.1413-1.4991-.2652-4.2185-1.062-7.01,1.0463-7.06,5.4169-.04,3.4823.0195,6.9658.02,10.4487,0,.6679-.0685,1.3357-.1023,1.9488-1.6324.5041-8.1834.5938-10.4035.1486V10.1014A68.4794,68.4794,0,0,1,195.97,10.0026Z"/>
    <path class="cls-2" d="M222.4,129.6569H212.0446c-.2675-9.6785-.0293-19.339-.1266-29.2575,3.4862-.3032,6.79-.0209,10.4089-.0728C222.4858,110.1862,222.3161,119.8364,222.4,129.6569Z"/>
    <path class="cls-2" d="M211.2094,55.2465h10.1921v29.312H211.2094Z"/>
    <path class="cls-2" d="M216.2779,53.5212c-3.2891.0252-5.8355-2.2656-5.8618-5.2735a5.7049,5.7049,0,0,1,5.6088-5.7994q.1266-.0021.2532.0014a5.5441,5.5441,0,1,1,0,11.0715Z"/>
    <path class="cls-2" d="M217.0552,98.7118a5.4742,5.4742,0,0,1-5.6175-5.3269q-.002-.0756-.0019-.1512a5.5808,5.5808,0,0,1,5.4658-5.6864,5.7187,5.7187,0,0,1,6.1128,5.2952q.0083.1157.0119.2316C223.073,96.2855,220.5168,98.699,217.0552,98.7118Z"/>
    <path class="cls-2" d="M85.5474,23.4772V21.21l1.7751,2.2508,1.1466-1.3432a15.2193,15.2193,0,0,1-1.7013-1.5467,4.8606,4.8606,0,0,1-1.1958-2.0124c-.27-1.6478.7329-2.5534,2.4167-2.4143.3377.0279.67.122,1.1206.2077a6.8555,6.8555,0,0,1,.13.9177,7.5992,7.5992,0,0,1-.11.9911l-1.9441-1.6828c-.9448,2.39,1.5172,2.3388,1.8866,3.5693C89.8108,23.4285,88.8174,24.4051,85.5474,23.4772Z"/>
    <path class="cls-2" d="M75.9206,23.9385V17.4524l-.4876-.318-.9107,1.5781V16.5177H79.23l.2514,2.3212L77.8826,17.09v6.7547Z"/>
    <path class="cls-2" d="M84.6409,23.7937H82.6674l-.2919-1.718-1.4337-.2311L80.4293,23.71l-.9123.05,2.1953-7.19.5149-.0324C83.1489,18.8144,83.7457,21.2085,84.6409,23.7937Zm-3.28-2.9255H81.68v-.8171l-.3186-.0006Z"/>
    <path class="cls-2" d="M16.3551,16.626a4.231,4.231,0,0,1,.82-.1823,9.0847,9.0847,0,0,1,1.0239.0759l.9546,3.7288.5108.0219.7945-3.7318.9588.0861-2.2336,7.3588-.4645-.0375C17.9391,21.5306,17.1591,19.1153,16.3551,16.626Z"/>
    <path class="cls-2" d="M55.739,16.4408l1.9284-.0923v7.4531H55.739Z"/>
    <path class="cls-2" d="M29.6651,16.6723V18.401L27.394,17.0041V20.012l1.1127-1.2186v3.0951l-1.0773-1.3454v2.6854c1.3174.5534,1.7059-.6328,2.6765-1.0473l-.365,1.93H25.4953v-7.439Z"/>
    <path class="cls-2" d="M49.451,20.5816l1.49,3.1741-1.6442.1415L48.0424,21.7l-.2831.0759.1208,2.04H45.9732v-7.272c1.3558-.26,2.8977-.6,4.0066.7079C50.9429,18.387,50.1311,19.5407,49.451,20.5816ZM48.43,17.41l-.4792-.0031v2.1887l.4792-.0045Z"/>
  </g>
</svg>
