<svg id="Livello_1" data-name="Livello 1" xmlns="http://www.w3.org/2000/svg" viewBox="0 0 342.04 65.8158">
  <defs>
    <style>
      .cls-1, .cls-6 {
        fill: #fff;
      }

      .cls-2 {
        fill: #fcfcfd;
      }

      .cls-2, .cls-3, .cls-4, .cls-5, .cls-6 {
        isolation: isolate;
        opacity: 0.7;
      }

      .cls-3 {
        fill: #fcfbfc;
      }

      .cls-4 {
        fill: #fdfdfd;
      }

      .cls-5 {
        fill: #fcfcfc;
      }
    </style>
  </defs>
  <g>
    <path class="cls-1" d="M0,.9818H12.37C16.6265,8.9737,20.9065,17.01,25.363,25.377L38.42.9913H50.846V64.2181H39.3024V26.024l-.4709-.1533C34.3656,34.2592,29.9,42.6477,25.3177,51.2541c-4.4818-8.54-8.8308-16.8266-13.18-25.1133l-.3509.0534V64.1975H0Z"/>
    <path class="cls-2" d="M238.5665,64.73h-14.578c-4.1036-7.6583-8.19-15.2846-12.32-22.9913h-6.5272V64.655H192.2866V1.0563a2.1847,2.1847,0,0,1,.6422-.1892c7.3145.0266,14.63.0177,21.9431.1286A20.1562,20.1562,0,0,1,222.984,3a16.4812,16.4812,0,0,1,9.0621,9.9921,26.1131,26.1131,0,0,1,.6714,14.4553c-1.1334,4.9242-2.93,7.2265-8.1806,10.9791C229.1783,47.1287,233.8361,55.8611,238.5665,64.73Zm-33.429-54.0429V31.0444c2.9921-.1249,5.9333-.0244,8.8037-.4271a7.7233,7.7233,0,0,0,6.4513-5.5457,13.1606,13.1606,0,0,0,.4751-6.7244c-.7672-4.2331-2.9846-6.613-7.2834-7.2023-2.7414-.3756-5.5427-.3162-8.4467-.4582Z"/>
    <path class="cls-3" d="M288.28,20.293H276.4673c-.1285-.8941-.2625-1.8352-.3994-2.7757-.6413-4.4062-2.863-6.7347-7.071-7.4126-4.5224-.7285-8.3457,1.0693-10.2074,4.8085a15.3957,15.3957,0,0,0-1.51,6.8129c-.06,7.4325-.0862,14.8668.0265,22.2981a20.3048,20.3048,0,0,0,1.0014,5.5427,8.2338,8.2338,0,0,0,7.5812,6.0975,19.5541,19.5541,0,0,0,5.6319-.3525c2.8862-.5773,4.4555-2.7752,4.4558-5.7262V40.4173h-8.3891V31.644H288.322V55.5751a22.33,22.33,0,0,1-12.3838,9.0537,29.423,29.423,0,0,1-16.2489.0853A19.85,19.85,0,0,1,245.07,47.244c-.2142-2.07-.319-4.16-.3339-6.2413q-.0644-8.9976-.005-17.996a28.2809,28.2809,0,0,1,1.4091-9.2288c2.8182-8.1026,8.6963-12.44,17.0533-13.5178a29.7428,29.7428,0,0,1,11.0907.6161C282,2.8105,286.7607,8.1156,287.8092,15.9846,287.9887,17.3328,288.1065,18.6894,288.28,20.293Z"/>
    <path class="cls-2" d="M178.7808,26.78v10.028H157.4062v17.975h25.1225v9.9186H144.8853V1.099H182.489v9.775H157.413V26.78Z"/>
    <path class="cls-4" d="M293.9945,1.0931h13.9544l9.9055,18.34,9.9135-18.3343H342.04l-17.737,32.4v31.12H312.0667V62.4646c0-8.8017-.0166-17.6034.02-26.4049a6.2123,6.2123,0,0,0-.8057-3.142Q303.1132,18.026,295.0027,3.103C294.6689,2.49,294.3753,1.8547,293.9945,1.0931Z"/>
    <path class="cls-1" d="M110.5876,45.9669q-3.3738,6.3813-6.7466,12.763c-1.0595,2.0079-2.1082,4.0214-3.1287,5.9691H86.0965c6.0248-10.7406,11.9416-21.2885,17.9362-31.975L86.4955.75h14.3778c.2731.47.6506,1.0656.9756,1.6883q3.977,7.62,7.9422,15.2468c.3287.6291.7264,1.2222,1.0922,1.832l6.6329,12.8513a.312.312,0,0,1-.08.3188Z"/>
    <path class="cls-1" d="M66.4281,1.0721h12.28V64.7045h-12.28Z"/>
    <path class="cls-5" d="M110.5876,45.9669l6.8483-13.28q6.2679,11.48,12.5365,22.96c1.6174,2.9608,3.2411,5.9182,4.9516,9.041H120.4711c-2.8856-5.5339-5.7974-11.1258-8.72-16.7122C111.3929,47.2906,110.9769,46.6357,110.5876,45.9669Z"/>
    <path class="cls-6" d="M117.5162,32.3682l-6.6329-12.8513L120.7668.6681h14.4687a10.8929,10.8929,0,0,1-.4585,1.08Q126.4162,16.65,118.041,31.5449C117.8818,31.8281,117.6918,32.094,117.5162,32.3682Z"/>
  </g>
</svg>
