<svg id="Livello_1" data-name="Livello 1" xmlns="http://www.w3.org/2000/svg" viewBox="0 0 462.0508 65.5261">
  <defs>
    <style>
      .cls-1 {
        opacity: 0.87;
      }

      .cls-2 {
        fill: #fff;
      }
    </style>
  </defs>
  <g class="cls-1">
    <path class="cls-2" d="M445.479,8.7757l1.5188-7.071h14.4587c.5806,1.7443.8379,55.6588.2985,61.9027-1.5053.6938-3.1444.2455-4.7262.3234-1.627.08-3.2611.0178-4.892.0178h-5.0826c-.6208-1.9362-1.2323-3.8437-1.9006-5.9278a9.8739,9.8739,0,0,0-1.2023.8077c-6.109,5.6172-13.3922,6.9119-21.3508,5.9354-10.8182-1.3272-23.0781-10.4614-25.9447-24.9681-3.29-16.65,5.9837-32.7509,21.4847-37.939a27.3285,27.3285,0,0,1,20.2477.9719C441.1732,4.0557,443.1132,6.2288,445.479,8.7757Zm-16.4744,7.3321c-8.5641-.2974-17.0934,7.2971-16.9978,17.15.0853,8.8032,7.87,16.2166,17.11,16.2521,8.2275.0316,17.1613-6.289,17.11-16.4957a16.82,16.82,0,0,0-16.7287-16.9108q-.2468-.0014-.4934.0046Z"/>
    <path class="cls-2" d="M355.028,37.6609H308.0112a15.7275,15.7275,0,0,0,13.6171,12.3448c6.9272.9112,13.0917-.6043,18.0733-5.7958a4.5381,4.5381,0,0,1,.8081-.492l10.7514,8.557a20.9509,20.9509,0,0,1-6.76,6.8763,33.7439,33.7439,0,0,1-26.5667,5.1742A31.657,31.657,0,0,1,295.891,48.4a28.11,28.11,0,0,1-3.6234-11.06c-1.129-10.5874,1.4328-20.0988,9.0058-27.8508a29.2537,29.2537,0,0,1,15.276-8.1966c7.22-1.5058,14.2746-1.0736,20.9993,2.1024,9.3337,4.4082,14.8927,11.9,17.193,21.8393A27.1978,27.1978,0,0,1,355.028,37.6609ZM339.16,26.2738a10.8765,10.8765,0,0,0-2.4829-5.4545,16.9148,16.9148,0,0,0-20.3049-3.7638,16.1066,16.1066,0,0,0-8.0153,9.2183Z"/>
    <path class="cls-2" d="M63.637,32.6077C63.7379,16.7407,75.9034,3.17,91.6093.9167a33.3636,33.3636,0,0,1,27.302,7.6947c10.6012,8.8658,14.1925,24.5962,8.27,37.07-5.2066,10.9655-13.8914,17.3091-25.959,19.063-16.3162,2.3715-32.6318-8.1619-36.5114-24.6706C64.1381,37.6357,63.9846,35.0987,63.637,32.6077Zm50.3381.3253c.33-8.86-7.7855-16.5673-16.5622-16.8964-7.3453-.2754-17.43,5.2979-17.6179,16.5929-.1661,9.9763,8.4493,16.7605,16.8163,16.8973,9.8074.16,17.5471-8.3192,17.3638-16.5938Z"/>
    <path class="cls-2" d="M193.3341,63.8187H177.4558c-.1168-2.0511-.2269-3.9816-.3375-5.925-.2669.0235-.4779-.02-.5378.0561-3.8483,4.8778-9.09,7.0032-15.0843,7.4722-6.6542.52-12.8258-.8568-17.9934-5.3478a23.2577,23.2577,0,0,1-7.5408-14.1607,40.1029,40.1029,0,0,1-.4993-6.5652C135.416,27.6,135.4405,15.8514,135.44,4.103V1.7591h16.1913v2.608c0,11.0142-.03,22.0286.03,33.0424a19.1633,19.1633,0,0,0,.6913,5.2948c1.4508,4.881,5.0652,7.2521,9.95,7.6495a18.038,18.038,0,0,0,5.7973-.522c5.1423-1.3059,8.3046-5.4162,8.9274-11.2678a32.6749,32.6749,0,0,0,.1377-3.42q.0147-15.2974.0051-30.5949V1.7581h16.1631Z"/>
    <path class="cls-2" d="M234.724,50.2264l14.1744-7.3917a7.4012,7.4012,0,0,1,.7974.9663c2.7031,4.82,7.05,6.8083,12.3338,7.0444a30.2162,30.2162,0,0,0,4.8562-.3861,6.1367,6.1367,0,0,0,1.8584-.5736,3.9044,3.9044,0,0,0,.7729-6.9156c-1.9665-1.5566-4.3393-2.1876-6.6828-2.8777-3.82-1.125-7.6652-2.173-11.4532-3.3976a25.2111,25.2111,0,0,1-7.946-4.2143c-4.7089-3.7257-6.3923-8.7565-5.9089-14.5075.754-8.9715,6.32-13.9925,14.47-16.4488a32.9422,32.9422,0,0,1,21.1233.445,25.8521,25.8521,0,0,1,13.7337,11.3294l-14.1188,7.5027c-.4707-.6284-.906-1.1809-1.3111-1.7548-3.0909-4.3774-9.0415-5.749-14.036-4.1515a3.9771,3.9771,0,0,0-2.97,3.533,3.6378,3.6378,0,0,0,2.178,3.7824,42.8149,42.8149,0,0,0,5.62,2.3086c4.7919,1.55,9.68,2.818,14.42,4.5088a18.3959,18.3959,0,0,1,8.6947,6.4885c4.6626,6.2887,4.74,19.7945-6.204,25.8091a31.2034,31.2034,0,0,1-12.8271,3.6108A41.7878,41.7878,0,0,1,247.78,62.6635,22.719,22.719,0,0,1,234.724,50.2264Z"/>
    <path class="cls-2" d="M60.914,15.258,47.1673,23.25c-4.011-5.0824-9.085-7.6833-15.552-7.1961a16.2608,16.2608,0,0,0-11.4583,5.81c-6.4125,7.4239-5.2693,17.2385,1.6233,23.37,6.9578,6.1895,18.8333,6.1647,25.81-3.6642L61.17,49.66A30.416,30.416,0,0,1,50.7255,60.0957,33.4968,33.4968,0,0,1,8.0029,53.8508,31.2237,31.2237,0,0,1,.1363,35.5451,32.0981,32.0981,0,0,1,24.9792,1.3077C39.07-1.999,52.9482,3.3157,60.914,15.258Z"/>
    <path class="cls-2" d="M361.9088,1.6948H378.097V8.3826a19.8839,19.8839,0,0,1,10.2282-7.2281,20.788,20.788,0,0,1,8.024-.9686c-.9928,4.9921-1.9577,9.8441-2.9337,14.7516-1.7926.2082-3.5634.3267-5.3013.6326a11.0553,11.0553,0,0,0-8.8431,7.5263,21.9842,21.9842,0,0,0-1.1323,7.937q.0106,15.0587.0028,30.1174v2.366c-1.7928.5221-12.3744.6639-15.9283.261C361.6389,61.9267,361.3781,11.52,361.9088,1.6948Z"/>
    <path class="cls-2" d="M217.0246,7.8932C221.5017,2.1008,227.5681.09,234.762.0824L231.8554,14.91c-1.9008.2245-3.7616.3168-5.5673.6818-5.0292,1.0167-7.8706,4.346-9.0526,9.1512a22.9285,22.9285,0,0,0-.5749,5.3221c-.0515,10.357-.025,20.7143-.0248,31.0716v2.6809c-5.3824.4051-10.6329.12-16.0285.2229-.056-.8125-.1355-1.4358-.1365-2.0592-.0094-6.198.0191-12.3962-.0112-18.5941q-.0952-19.4382-.2358-38.8764c-.0053-.8731-.0007-1.7463-.0007-2.7669h16.2723V7.7483Z"/>
  </g>
</svg>
