<svg id="Livello_1" data-name="Livello 1" xmlns="http://www.w3.org/2000/svg" viewBox="0 0 379.633 64.7253">
  <defs>
    <style>
      .cls-1 {
        opacity: 0.87;
      }

      .cls-2 {
        fill: #fff;
      }
    </style>
  </defs>
  <g class="cls-1">
    <path class="cls-2" d="M60.78,0l3.9444,2.1846c.0237.2321.0616.43.0613.6286-.01,9.77.0932,19.5429-.0787,29.31A21.5318,21.5318,0,0,1,57.96,47.8648a22.926,22.926,0,0,1-4.2433,3.16c-6.2,3.6106-12.4459,7.1424-18.6961,10.6657a21.5218,21.5218,0,0,1-7.9666,2.7368l-1.8307.2977H22.4885l-1.8436-.2889c-.6453-.1076-1.3-.1758-1.9345-.3289A24.2468,24.2468,0,0,1,.2854,42.8651L0,40.4151V12.763a7.7906,7.7906,0,0,0,1.0891-.45Q10.2262,6.8494,19.3467,1.3583C20.0179.9538,20.6323.4552,21.2729,0h.6078L25.89,2.2218V3.8792c0,8.66-.0228,17.3192.0143,25.9786a28.3022,28.3022,0,0,0,1.1432,8.226A16.099,16.099,0,0,0,41.1285,49.37c.1758-.43.3738-.887.55-1.3519a22.9763,22.9763,0,0,0,1.4882-8.1551q.0343-13.6729.0212-27.3459V10.8416c.3431-.2263.63-.4248.9265-.61q7.5909-4.74,15.18-9.4837A7.6676,7.6676,0,0,0,60.1721,0ZM4.3411,15.098c-.0223.4049-.0478.6556-.0478.9063,0,7.7481-.0283,15.4964.0277,23.244a32.95,32.95,0,0,0,.5187,4.965A19.0709,19.0709,0,0,0,26.2046,60.2a19.9589,19.9589,0,0,0,11.6722-5.915,5.4858,5.4858,0,0,0,.57-.9109c-.65-.2034-1.178-.3532-1.6955-.533A21.3224,21.3224,0,0,1,23.8,41.2433a25.0578,25.0578,0,0,1-2.1929-10.4516c-.0338-8.0518-.0135-16.1038-.0152-24.1558v-1.86Zm41.52,34.1725a6.5136,6.5136,0,0,0,.982-.0548c5.7069-1.2752,9.9022-4.4141,12.1071-9.94A23.2432,23.2432,0,0,0,60.4915,30.53q-.0177-12.07-.0024-24.14c0-.397-.0338-.794-.0645-1.4677L47.4922,12.986v1.8008c0,7.7429.0256,15.486-.0178,23.2287a46.4057,46.4057,0,0,1-.4007,6.04c-.2312,1.6858-.7613,3.33-1.2124,5.215Z"/>
    <path class="cls-2" d="M.2855,42.8654l-.1408-.0378L0,42.8464v-2.431Z"/>
    <path class="cls-2" d="M20.6652,64.7253a.29.29,0,0,0-.02-.2889l1.8437.2889Z"/>
    <path class="cls-2" d="M25.2239,64.7253l1.8307-.2977-.0073.2977Z"/>
    <path class="cls-2" d="M148.152,17.0227a3.3034,3.3034,0,0,1,.6032-.1106c4.25.0256,8.512-.1331,12.7468.1357,6.6231.4205,12.5745,4.6993,14.1066,12.826a18.9935,18.9935,0,0,1-1.9052,13.228,14.4723,14.4723,0,0,1-10.7619,7.3235,26.444,26.444,0,0,1-4.076.3c-3.5371.04-7.075.0134-10.7136.0134Zm4.29,4.15V46.6263c3.2271-.1467,6.3845-.0494,9.4661-.4873a10.4974,10.4974,0,0,0,9.1-7.6351,15.0338,15.0338,0,0,0,.04-9.1137,10.8793,10.8793,0,0,0-8.1518-7.7838c-3.4223-.8538-6.9232-.3365-10.4545-.4332Z"/>
    <path class="cls-2" d="M124.46,16.9957h4.3419v1.6159c0,5.9228-.0964,11.8476.0241,17.768A13.6757,13.6757,0,0,1,118.782,49.9515,16.306,16.306,0,0,1,104.433,47.91a12.29,12.29,0,0,1-5.69-10.6442q-.01-9.6435-.0026-19.2871v-.9543h4.2815v1.5089c0,6.0241.093,12.05-.0261,18.0717-.1182,5.9809,4.37,9.4558,9.0224,9.9615a12.51,12.51,0,0,0,7.6357-1.3332A8.6934,8.6934,0,0,0,124.4,37.9405c.0464-.6047.0567-1.2134.0572-1.82q.006-8.7322.0025-17.4647Z"/>
    <path class="cls-2" d="M203.6487,16.9393h4.546q6.4972,16.7763,13.0679,33.7418h-4.2944L212.2446,38.07l-13.919,2.9318c-1.2328,3.2618-2.4416,6.46-3.6552,9.6713H190.377C194.8171,39.3874,199.2106,28.22,203.6487,16.9393Zm2.4878,4.15-6.523,15.88,11.9935-2.3138c-1.8256-4.5278-3.585-8.8911-5.47-13.5663Z"/>
    <path class="cls-2" d="M263.1254,42.9137l2.4065,2.5579c-.7489.7013-1.3974,1.3943-2.13,1.9822-8.7676,7.0333-24.6028,3.41-26.9912-10.3151-1.0447-6.003.3224-11.3756,4.8326-15.68,3.6745-3.5071,8.2118-4.6123,13.15-4.2944a17.381,17.381,0,0,1,8.3192,2.55c.6322.4,1.2238.8634,1.91,1.3517-.5729,1.0181-1.0868,1.9312-1.6561,2.943-.4174-.259-.7868-.4826-1.1507-.715a15.0084,15.0084,0,0,0-11.7451-2.21,12.3486,12.3486,0,0,0-9.6659,11.7525,13.8175,13.8175,0,0,0,2.9337,9.7912A13.04,13.04,0,0,0,260.63,44.8242C261.4583,44.2544,262.23,43.6027,263.1254,42.9137Z"/>
    <path class="cls-2" d="M319.7752,21.1181H309.1259v-4.101h25.6265v4.11H324.12v29.528h-4.3445Z"/>
    <path class="cls-2" d="M379.633,16.9556,367.0187,35.7V50.6356h-4.3066V35.7585L349.8487,16.9532c1.5914-.0942,2.9691-.028,4.4758-.0593L364.8459,32.3l10.2677-15.3443Z"/>
    <path class="cls-2" d="M289.6729,50.7044h-4.16V17.0155h4.16Z"/>
  </g>
</svg>
