<?xml version="1.0" encoding="utf-8"?>
<!-- Generator: Adobe Illustrator 25.2.1, SVG Export Plug-In . SVG Version: 6.00 Build 0)  -->
<svg version="1.1" id="Layer_1" xmlns="http://www.w3.org/2000/svg" xmlns:xlink="http://www.w3.org/1999/xlink" x="0px" y="0px"
	 viewBox="0 0 552.9 310.7" style="enable-background:new 0 0 552.9 310.7;" xml:space="preserve">
<style type="text/css">
	.st0{opacity:0.6;fill:#FFFFFF;}
	.st1{opacity:0.9;fill:#FFFFFF;}
</style>
<g>
	<path class="st0" d="M271.9,109.7c-2.8-3-6.1-5.4-10-7c-3.9-1.7-8.4-2.5-13.4-2.5c-6.5,0-12.6,1.5-18.2,4.4
		c-5.6,2.9-10.4,7-14.5,12.2c-4.1,5.2-7.3,11.4-9.7,18.6c-2.4,7.2-3.5,15.1-3.5,23.7c0,5.4,0.8,10.3,2.3,14.8s3.7,8.3,6.4,11.5
		s6.1,5.7,9.9,7.5c3.9,1.8,8.2,2.7,12.9,2.7c6.6,0,12.7-1.5,18.4-4.7c5.6-3.1,10.5-7.4,14.7-12.8c4.2-5.4,7.5-11.7,9.8-19
		c2.4-7.3,3.5-15.1,3.5-23.6c0-5.4-0.8-10.3-2.2-14.7C276.8,116.4,274.7,112.7,271.9,109.7z"/>
	<path class="st0" d="M141,109c-2.4-2.8-5.5-5.1-9.1-6.7c-3.6-1.7-7.8-2.5-12.7-2.5c-4.9,0-9.5,0.9-13.7,2.6
		c-4.3,1.7-8.1,4.2-11.6,7.4c-3.5,3.2-6.5,7-9,11.5c-2.5,4.5-4.5,9.4-6,14.8h69.1v0c0.1-0.4,0.1-1.1,0.2-2.2c0-1.1,0.1-2.1,0.1-3.1
		c0-4.2-0.6-8.1-1.8-11.9C145.3,115.1,143.4,111.9,141,109z"/>
	<path class="st0" d="M353.4,51l10.7-51H51.3L0,245h261.5l-14.4,65.7h250.5L552.9,51H353.4z M169.5,137.8c-0.1,1.7-0.2,3.4-0.4,5.2
		c-0.2,1.8-0.3,3.5-0.5,5.2c-0.2,1.7-0.4,3.1-0.6,4.3H76.2c-0.1,1.1-0.1,2.2-0.2,3.2c0,1-0.1,2.1-0.1,3.2c0,6.5,1,12.1,2.8,16.7
		c1.9,4.6,4.3,8.4,7.4,11.3c3,2.9,6.4,5,10.2,6.3c3.8,1.3,7.6,1.9,11.5,1.9c8.4,0,15.2-1.5,20.3-4.4c5.1-2.9,9-6.8,11.7-11.8h21.6
		c-1.3,4.9-3.5,9.5-6.6,13.7s-6.9,7.9-11.6,11c-4.7,3.1-10.1,5.6-16.3,7.3c-6.2,1.8-13,2.7-20.4,2.7c-7.1,0-13.8-1.2-20.1-3.5
		c-6.3-2.3-11.8-5.8-16.5-10.3c-4.7-4.5-8.4-10.1-11.1-16.7c-2.7-6.6-4.1-14.2-4.1-22.8c0-11.7,1.6-22.4,4.9-32.1
		c3.3-9.7,7.8-17.9,13.7-24.8c5.8-6.9,12.8-12.2,21-16c8.2-3.8,17.1-5.7,26.8-5.7c6.5,0,12.7,1.1,18.6,3.4c5.9,2.3,11,5.6,15.4,10
		c4.4,4.4,7.9,9.8,10.5,16.1c2.6,6.4,3.9,13.7,3.9,22C169.6,134.6,169.5,136.1,169.5,137.8z M266,211.5l3.7-17.4h-1.9
		c-4.6,6.1-10.5,10.8-17.5,14.4c-7,3.5-14.6,5.2-22.7,5.2c-6.4,0-12.4-1.2-18-3.6c-5.6-2.4-10.5-5.8-14.7-10.3
		c-4.2-4.5-7.6-9.9-10-16.3s-3.7-13.5-3.7-21.4c0-7.6,0.8-15,2.3-21.9c1.5-7,3.7-13.4,6.6-19.4c2.8-6,6.2-11.3,10.2-16.1
		c4-4.8,8.4-8.9,13.2-12.3c4.8-3.4,10.1-6,15.7-7.8c5.6-1.8,11.5-2.7,17.7-2.7c4.6,0,8.9,0.6,13.1,1.9s7.9,3,11.2,5.3
		c3.4,2.2,6.2,5,8.6,8.1c2.4,3.2,4.2,6.7,5.3,10.5h1.9l15.7-74.1h20.7l-37.8,178H266z M470.8,277.2H425l-29.9-65.7h-3.7l-55.4,65.7
		h-45.5l86.3-102.3l-40-90.5h46.7l26.6,62.3h2.5l50.3-62.3h46.1l-82.4,95L470.8,277.2z"/>
</g>
<path class="st1" d="M106.6,213.7c-7.1,0-13.8-1.2-20.1-3.5c-6.3-2.3-11.8-5.8-16.5-10.3c-4.7-4.5-8.4-10.1-11.1-16.7
	s-4.1-14.2-4.1-22.8c0-11.7,1.6-22.4,4.9-32.1s7.8-17.9,13.7-24.8c5.8-6.9,12.8-12.2,21-16c8.2-3.8,17.1-5.7,26.8-5.7
	c6.5,0,12.7,1.1,18.6,3.4c5.9,2.3,11,5.6,15.4,10c4.4,4.4,7.9,9.8,10.5,16.1s3.9,13.7,3.9,22c0,1.3,0,2.7-0.1,4.4
	c-0.1,1.7-0.2,3.4-0.4,5.2s-0.3,3.5-0.5,5.2c-0.2,1.7-0.4,3.1-0.6,4.3H76.2c-0.1,1.1-0.1,2.2-0.2,3.2c0,1-0.1,2.1-0.1,3.2
	c0,6.5,0.9,12.1,2.8,16.7s4.3,8.4,7.4,11.3c3,2.9,6.4,5,10.2,6.3s7.6,1.9,11.5,1.9c8.4,0,15.2-1.5,20.3-4.4c5.1-2.9,9-6.9,11.7-11.8
	h21.6c-1.3,4.9-3.6,9.5-6.6,13.7c-3.1,4.2-6.9,7.9-11.6,11.1s-10.1,5.6-16.3,7.3C120.8,212.8,114,213.7,106.6,213.7z M148.1,136.1
	c0.1-0.4,0.1-1.1,0.2-2.2c0-1.1,0.1-2.1,0.1-3.1c0-4.2-0.6-8.1-1.8-11.9s-3.1-7-5.5-9.9c-2.4-2.8-5.5-5.1-9.1-6.7
	c-3.6-1.7-7.8-2.5-12.7-2.5c-4.9,0-9.5,0.9-13.7,2.6c-4.3,1.7-8.1,4.2-11.6,7.4c-3.5,3.2-6.5,7-9,11.5s-4.5,9.4-6,14.8L148.1,136.1
	L148.1,136.1z M227.6,213.7c-6.4,0-12.4-1.2-18-3.6c-5.6-2.4-10.5-5.9-14.7-10.3c-4.2-4.5-7.6-9.9-10-16.3s-3.7-13.5-3.7-21.4
	c0-7.6,0.8-14.9,2.3-21.9s3.7-13.4,6.6-19.4s6.2-11.3,10.2-16.1c4-4.8,8.4-8.9,13.2-12.3s10.1-6,15.7-7.8c5.6-1.8,11.5-2.7,17.7-2.7
	c4.6,0,8.9,0.6,13.1,1.9c4.1,1.3,7.9,3,11.2,5.3s6.2,5,8.6,8.2c2.4,3.2,4.2,6.7,5.3,10.5h1.9l15.7-74.1h20.7l-37.8,178H266l3.7-17.4
	h-1.9c-4.6,6.1-10.5,10.9-17.5,14.4C243.3,212,235.7,213.7,227.6,213.7z M234.1,195.4c6.6,0,12.7-1.6,18.4-4.7
	c5.6-3.1,10.5-7.4,14.7-12.8c4.2-5.4,7.5-11.7,9.8-19s3.5-15.1,3.5-23.6c0-5.4-0.8-10.3-2.2-14.7c-1.5-4.3-3.6-8-6.4-11.1
	c-2.8-3-6.1-5.4-10-7c-3.9-1.7-8.4-2.5-13.4-2.5c-6.5,0-12.6,1.5-18.2,4.4c-5.6,2.9-10.4,7-14.5,12.2c-4.1,5.2-7.3,11.4-9.7,18.6
	s-3.6,15.1-3.6,23.7c0,5.4,0.8,10.3,2.3,14.8s3.7,8.3,6.4,11.5c2.8,3.2,6.1,5.7,9.9,7.4C225.1,194.5,229.4,195.4,234.1,195.4z
	 M508.9,84.4h-46.1l-50.3,62.3H410l-26.6-62.3h-46.7l40,90.5l-86.3,102.3h45.5l55.4-65.7h3.7l29.9,65.7h45.8l-44.3-97.8L508.9,84.4z
	"/>
</svg>
