<?xml version="1.0" encoding="utf-8"?>
<!-- Generator: Adobe Illustrator 25.2.1, SVG Export Plug-In . SVG Version: 6.00 Build 0)  -->
<svg version="1.1" id="Livello_1" xmlns="http://www.w3.org/2000/svg" xmlns:xlink="http://www.w3.org/1999/xlink" x="0px" y="0px"
	 viewBox="0 0 189 77.2" style="enable-background:new 0 0 189 77.2;" xml:space="preserve">
<style type="text/css">
	.st0{fill-rule:evenodd;clip-rule:evenodd;fill:#FF0000;}
	.st1{fill:#FF0000;}
</style>
<path class="st0" d="M98.9,42.9c0,8.5-5.2,14.2-13.1,14.2c-2.9,0-5.9-0.8-8.2-2c-2.3,1.2-4.9,1.9-8,1.9V23.3l9.5-6.4v13.2
	c2-0.9,4-1.4,6.1-1.4C93.4,28.6,98.9,34.4,98.9,42.9z M89.2,42.9c0-4.1-2.6-6.8-6.4-6.8c-1.1,0-2.5,0.4-3.8,1.1v11.5
	c1.5,0.8,3,1.1,4.4,1.1C87.1,49.7,89.2,46.9,89.2,42.9z"/>
<path class="st1" d="M32.3,57.1h-0.4c-5.7-9.6-10.4-17.9-15.2-28h10.1c1.4,3.8,3.1,7.4,5.4,11.8c2.3-4.3,3.9-7.9,5.3-11.8h10.1
	C42.8,39.2,38.1,47.5,32.3,57.1z"/>
<path class="st0" d="M169.8,52.6h1.4c0.7,0,1.1,0.4,1.1,1c0,0.5-0.4,0.8-0.6,0.8c0,0,0.1,0.1,0.1,0.2l0.6,1.2h-0.8l-0.5-1.2h-0.4
	v1.2h-0.8V52.6z M170.9,54.1c0.3,0,0.5-0.2,0.5-0.5c0-0.3-0.2-0.5-0.5-0.5h-0.4v1H170.9z"/>
<path class="st0" d="M170.9,51c1.8,0,3.2,1.4,3.2,3.2c0,1.8-1.4,3.2-3.2,3.2c-1.7,0-3.2-1.4-3.2-3.2C167.7,52.4,169.2,51,170.9,51z
	 M170.9,56.8c1.4,0,2.4-1.1,2.4-2.5c0-1.4-1-2.5-2.4-2.5c-1.3,0-2.4,1.1-2.4,2.5C168.5,55.7,169.5,56.8,170.9,56.8z"/>
<path class="st1" d="M52.4,29.2h9.5v27.5h-9.5V29.2z"/>
<path class="st1" d="M114.2,16.9l-9.5,6.4v33.4h9.5V16.9z"/>
<path class="st1" d="M131.4,29.2H122v27.5h9.5V29.2z"/>
<path class="st0" d="M164.5,30.6c-0.5,0.9-0.9,1.8-1.4,2.8c2.1,2.4,3.3,5.7,3.3,9.5c0,8.5-5.8,14.2-14.6,14.2
	c-8.8,0-14.7-5.7-14.7-14.2c0-8.6,5.9-14.2,14.7-14.2c1.5,0,2.9,0.2,4.2,0.5h9.2C164.9,29.6,164.7,30.1,164.5,30.6z M145.8,42.8
	c0,4.1,2.4,6.8,6,6.8c3.5,0,5.9-2.8,5.9-6.8c0-4.1-2.4-6.8-5.9-6.8C148.2,36,145.8,38.7,145.8,42.8z"/>
</svg>
