<svg id="Livello_1" data-name="Livello 1" xmlns="http://www.w3.org/2000/svg" viewBox="0 0 491.9576 340.5">
  <defs>
    <style>
      .cls-1, .cls-2 {
        fill: none;
        stroke-miterlimit: 10;
      }

      .cls-1 {
        stroke: #fff;
      }

      .cls-2 {
        stroke: #000;
        stroke-width: 0.5px;
      }
    </style>
  </defs>
  <g>
    <path d="M337.462,133.9478l-8.6632-15.2237a4.8688,4.8688,0,0,0-8.1113,0l-8.6583,15.2237-8.6681-15.2237a4.6768,4.6768,0,0,0-8.1089,0l-8.6778,15.2286-7.528-13.2111,33.6828-65.71,32.5793,65.1294ZM212.3225,94.3194l-8.6777-15.231a4.87,4.87,0,0,0-8.1114,0L186.8653,94.31,178.207,79.0884a4.6768,4.6768,0,0,0-8.1089,0L161.4325,94.31l-7.9534-13.9744L186.158,15.3689l33.6925,65.7346Zm-120.22,28.5272L83.4275,107.618a4.8735,4.8735,0,0,0-8.1114,0l-8.668,15.2238L57.99,107.618a4.6768,4.6768,0,0,0-8.1089,0l-8.6656,15.2238L33.449,109.1956,65.9577,43.9423l33.6755,65.6884ZM364.05,157.6233a4.6906,4.6906,0,0,0,6.24,2.0855,4.5959,4.5959,0,0,0,2.1051-6.1813L316.9514,42.7a4.6614,4.6614,0,0,0-4.1493-2.562H312.78a4.6752,4.6752,0,0,0-4.1517,2.5207l-49.0208,95.6328L190.2659,3.0207A4.6631,4.6631,0,0,0,186.1167.5a4.8721,4.8721,0,0,0-4.1688,2.5523L119.2931,127.6084,70.0487,31.5552A4.4789,4.4789,0,0,0,65.87,29.0321a4.6482,4.6482,0,0,0-4.1444,2.5717L.984,153.5347a4.5855,4.5855,0,0,0,2.1123,6.1741,4.6761,4.6761,0,0,0,6.2324-2.0953l19.1324-38.4057,8.7,15.2845a4.8667,4.8667,0,0,0,8.109,0l8.6656-15.2189,8.6583,15.2189a4.6768,4.6768,0,0,0,8.1089,0l8.6705-15.2286,8.6753,15.2286a4.679,4.679,0,0,0,8.1114,0l8.5368-14.9855,9.424,18.3813-7.8611,15.63a4.5973,4.5973,0,0,0,2.0905,6.1863,4.6935,4.6935,0,0,0,6.247-2.071l33.8675-67.3316L157.378,105.96c1.6553,2.9,6.4658,2.9,8.1114,0l8.6631-15.2213,8.6584,15.2213a4.6789,4.6789,0,0,0,8.1113,0L199.59,90.7341,208.268,105.96a4.6769,4.6769,0,0,0,8.109,0L224.9137,90.98l34.1812,66.685a4.6864,4.6864,0,0,0,6.2591,2.02,4.5883,4.5883,0,0,0,2.0419-6.1984l-2.5693-5.01,9.1566-17.8587,8.5368,14.9807a4.8666,4.8666,0,0,0,8.1089,0l8.6778-15.2286,8.6729,15.2286a4.6769,4.6769,0,0,0,8.1089,0l8.6559-15.2213,8.6632,15.2213a4.8666,4.8666,0,0,0,8.1089,0l8.792-15.445Z"/>
    <path class="cls-1" d="M337.462,133.9478l-8.6632-15.2237a4.8688,4.8688,0,0,0-8.1113,0l-8.6583,15.2237-8.6681-15.2237a4.6768,4.6768,0,0,0-8.1089,0l-8.6778,15.2286-7.528-13.2111,33.6828-65.71,32.5793,65.1294ZM212.3225,94.3194l-8.6777-15.231a4.87,4.87,0,0,0-8.1114,0L186.8653,94.31,178.207,79.0884a4.6768,4.6768,0,0,0-8.1089,0L161.4325,94.31l-7.9534-13.9744L186.158,15.3689l33.6925,65.7346Zm-120.22,28.5272L83.4275,107.618a4.8735,4.8735,0,0,0-8.1114,0l-8.668,15.2238L57.99,107.618a4.6768,4.6768,0,0,0-8.1089,0l-8.6656,15.2238L33.449,109.1956,65.9577,43.9423l33.6755,65.6884ZM364.05,157.6233a4.6906,4.6906,0,0,0,6.24,2.0855,4.5959,4.5959,0,0,0,2.1051-6.1813L316.9514,42.7a4.6614,4.6614,0,0,0-4.1493-2.562H312.78a4.6752,4.6752,0,0,0-4.1517,2.5207l-49.0208,95.6328L190.2659,3.0207A4.6631,4.6631,0,0,0,186.1167.5a4.8721,4.8721,0,0,0-4.1688,2.5523L119.2931,127.6084,70.0487,31.5552A4.4789,4.4789,0,0,0,65.87,29.0321a4.6482,4.6482,0,0,0-4.1444,2.5717L.984,153.5347a4.5855,4.5855,0,0,0,2.1123,6.1741,4.6761,4.6761,0,0,0,6.2324-2.0953l19.1324-38.4057,8.7,15.2845a4.8667,4.8667,0,0,0,8.109,0l8.6656-15.2189,8.6583,15.2189a4.6768,4.6768,0,0,0,8.1089,0l8.6705-15.2286,8.6753,15.2286a4.679,4.679,0,0,0,8.1114,0l8.5368-14.9855,9.424,18.3813-7.8611,15.63a4.5973,4.5973,0,0,0,2.0905,6.1863,4.6935,4.6935,0,0,0,6.247-2.071l33.8675-67.3316L157.378,105.96c1.6553,2.9,6.4658,2.9,8.1114,0l8.6631-15.2213,8.6584,15.2213a4.6789,4.6789,0,0,0,8.1113,0L199.59,90.7341,208.268,105.96a4.6769,4.6769,0,0,0,8.109,0L224.9137,90.98l34.1812,66.685a4.6864,4.6864,0,0,0,6.2591,2.02,4.5883,4.5883,0,0,0,2.0419-6.1984l-2.5693-5.01,9.1566-17.8587,8.5368,14.9807a4.8666,4.8666,0,0,0,8.1089,0l8.6778-15.2286,8.6729,15.2286a4.6769,4.6769,0,0,0,8.1089,0l8.6559-15.2213,8.6632,15.2213a4.8666,4.8666,0,0,0,8.1089,0l8.792-15.445Z"/>
    <path d="M398.7523,194.986h-1.9155a42.9209,42.9209,0,0,0-4.8785.2844,4.1547,4.1547,0,0,0,.4837,8.2864,4.2144,4.2144,0,0,0,.4935-.0268,33.8839,33.8839,0,0,1,3.9013-.2285h1.9155a4.1581,4.1581,0,1,0,0-8.3155"/>
    <path d="M364.2668,256.0387a4.2091,4.2091,0,0,0-8.4177,0v12.21a4.2091,4.2091,0,0,0,8.4177,0Z"/>
    <path d="M367.9582,217.1966a4.2221,4.2221,0,0,0,3.313-1.5872,32.4549,32.4549,0,0,1,8.0628-7.2436,4.1315,4.1315,0,0,0,1.2713-5.7463,4.2325,4.2325,0,0,0-5.8168-1.2543,41.0136,41.0136,0,0,0-10.1362,9.1032,4.1257,4.1257,0,0,0,.7074,5.8386,4.2212,4.2212,0,0,0,2.5985.89"/>
    <path d="M360.0453,280.3646a4.1855,4.1855,0,0,0-4.2076,4.0569,32.0821,32.0821,0,0,1-2.0588,10.5811,4.1388,4.1388,0,0,0,2.47,5.3476,4.223,4.223,0,0,0,5.4133-2.44,40.3569,40.3569,0,0,0,2.5936-13.284,4.187,4.187,0,0,0-4.108-4.2611Z"/>
    <path d="M364.2668,235.6472a32.5,32.5,0,0,1,.79-7.1221,4.15,4.15,0,0,0-3.1891-4.9611,4.2132,4.2132,0,0,0-5.0244,3.15,40.4343,40.4343,0,0,0-.9942,8.933V239.76a4.2091,4.2091,0,0,0,8.4177,0Z"/>
    <path d="M136.8934,316.4505a4.217,4.217,0,0,0,1.4317-.248,4.1431,4.1431,0,0,0,2.5255-5.3233,32.021,32.021,0,0,1-1.9421-10.598,4.1881,4.1881,0,0,0-4.21-4.1007H134.64a4.183,4.183,0,0,0-4.1517,4.2149,40.2833,40.2833,0,0,0,2.4477,13.3108,4.2071,4.2071,0,0,0,3.9573,2.7443"/>
    <path d="M132.0885,197.4991a40.7683,40.7683,0,0,0-9.3438-9.8858,4.242,4.242,0,0,0-5.8969.7754,4.1207,4.1207,0,0,0,.7851,5.8265,32.5657,32.5657,0,0,1,7.4356,7.8732A4.2363,4.2363,0,0,0,130.9,203.26a4.124,4.124,0,0,0,1.1886-5.7609"/>
    <path d="M214.0355,301.593c.0242-.5809.0364-1.1643.0364-1.755V289.2254a4.2091,4.2091,0,0,0-8.4177,0V299.838c0,.4838-.0121.9626-.0291,1.439a4.1759,4.1759,0,0,0,4.0447,4.3122c.0535.0024.107.0024.1653.0024a4.1847,4.1847,0,0,0,4.2-3.9986"/>
    <path d="M229.4493,236.8366a40.7324,40.7324,0,0,0-11.2908,7.6836,4.1226,4.1226,0,0,0-.0827,5.8775,4.2448,4.2448,0,0,0,5.9505.0826,32.4231,32.4231,0,0,1,8.967-6.0987,4.14,4.14,0,0,0,2.0467-5.5227,4.2288,4.2288,0,0,0-5.5907-2.0223"/>
    <path d="M293.837,311.9145a4.2457,4.2457,0,0,0,5.9529.1045,4.1187,4.1187,0,0,0,.1045-5.8776A32.55,32.55,0,0,1,293.73,297.26a4.2249,4.2249,0,0,0-5.5907-2.02,4.14,4.14,0,0,0-2.0467,5.52,40.84,40.84,0,0,0,7.7444,11.1547"/>
    <path d="M207.5291,313.34a4.2326,4.2326,0,0,0-5.6928,1.7161,32.4174,32.4174,0,0,1-6.6457,8.5392,4.1254,4.1254,0,0,0-.2187,5.8776,4.2438,4.2438,0,0,0,5.948.2139,40.7975,40.7975,0,0,0,8.3472-10.722,4.1328,4.1328,0,0,0-1.738-5.6248"/>
    <path d="M249.7129,233.0932H247.202a4.1581,4.1581,0,1,0,0,8.3156h2.5109a32.98,32.98,0,0,1,8.61,1.1425,4.3414,4.3414,0,0,0,1.1182.1482,4.1949,4.1949,0,0,0,4.0544-3.0579,4.1488,4.1488,0,0,0-2.9436-5.1069,41.3087,41.3087,0,0,0-10.8387-1.4415"/>
    <path d="M130.49,227.0837a4.2091,4.2091,0,0,0,8.4176,0v-7.1172a40.175,40.175,0,0,0-.3937-5.6442,4.2075,4.2075,0,0,0-8.3351,1.1522,32.6743,32.6743,0,0,1,.3112,4.492Z"/>
    <path d="M148.6694,322.9223a4.24,4.24,0,0,0-5.9529.0316,4.121,4.121,0,0,0,.034,5.88,40.8141,40.8141,0,0,0,11.22,7.7759,4.24,4.24,0,0,0,5.6077-1.9737,4.1331,4.1331,0,0,0-1.998-5.5373,32.4223,32.4223,0,0,1-8.9111-6.1765"/>
    <path d="M182.67,330.7673a32.3886,32.3886,0,0,1-9.5139,1.4171H171.724a4.1581,4.1581,0,1,0,0,8.3156h1.439a40.8641,40.8641,0,0,0,11.9981-1.7915,4.1474,4.1474,0,0,0,2.7735-5.2017,4.2146,4.2146,0,0,0-5.265-2.74"/>
    <path d="M216.1113,262.4583a4.1394,4.1394,0,0,0-2.4818-5.3428,4.214,4.214,0,0,0-5.4108,2.4527,40.2532,40.2532,0,0,0-2.5547,13.2888,4.1842,4.1842,0,0,0,4.1128,4.2514h.0948a4.1923,4.1923,0,0,0,4.21-4.0642,32.093,32.093,0,0,1,2.03-10.5859"/>
    <path d="M286.4918,287.3856a4.1824,4.1824,0,0,0,4.21-4.159v-9.4751c0-1.0233-.0389-2.0442-.1167-3.0457a4.2092,4.2092,0,0,0-8.3933.6417c.0632.79.09,1.59.09,2.404v9.4751a4.1825,4.1825,0,0,0,4.21,4.159"/>
    <path d="M311.9922,313.9774a4.2208,4.2208,0,0,0-5.4084,2.4527,4.143,4.143,0,0,0,2.4818,5.3427,41.12,41.12,0,0,0,13.4785,2.5061h.0729a4.158,4.158,0,1,0,.0729-8.3156,32.5943,32.5943,0,0,1-10.6977-1.9859"/>
    <path d="M138.9075,243.3624a4.2091,4.2091,0,0,0-8.4177,0v12.21a4.2091,4.2091,0,0,0,8.4177,0Z"/>
    <path d="M134.6987,267.6924a4.1819,4.1819,0,0,0-4.21,4.1566v12.2121a4.21,4.21,0,0,0,8.42,0V271.849a4.1819,4.1819,0,0,0-4.21-4.1566"/>
    <path d="M345.8282,306.957a32.6416,32.6416,0,0,1-8.9841,6.0792,4.137,4.137,0,0,0-2.0612,5.5178,4.2131,4.2131,0,0,0,3.8284,2.4162,4.2769,4.2769,0,0,0,1.7574-.3816,40.94,40.94,0,0,0,11.303-7.6472,4.1194,4.1194,0,0,0,.1069-5.88,4.2459,4.2459,0,0,0-5.95-.1045"/>
    <path d="M97.9154,179.3087H93.02a4.1581,4.1581,0,1,0,0,8.3155h4.8955a32.6606,32.6606,0,0,1,6.5606.6588,4.498,4.498,0,0,0,.8556.085,4.154,4.154,0,0,0,.8459-8.2305,41.5288,41.5288,0,0,0-8.2621-.8288"/>
    <path d="M285.2752,253.5212a40.7729,40.7729,0,0,0-8.6851-10.4644,4.2555,4.2555,0,0,0-5.9407.4035,4.1268,4.1268,0,0,0,.4084,5.8654,32.3732,32.3732,0,0,1,6.9081,8.33,4.2453,4.2453,0,0,0,5.7463,1.5411,4.1307,4.1307,0,0,0,1.563-5.6758"/>
    <path d="M69.9573,187.6242H76.27a4.1581,4.1581,0,1,0,0-8.3155H69.9573a4.1581,4.1581,0,1,0,0,8.3155"/>
    <path d="M421.2952,159.05H485l-8.4979-20.9432a7.9078,7.9078,0,0,1,.1167-6.2276l8.2135-18.216H421.2952Zm-2.7078-53.3961a2.69,2.69,0,0,1,2.7078,2.669h67.7035a2.7149,2.7149,0,0,1,2.27,1.2153,2.6374,2.6374,0,0,1,.2042,2.54L481.57,134.047a2.643,2.643,0,0,0-.0413,2.0759l9.9855,24.604a2.6427,2.6427,0,0,1-.2722,2.489,2.7221,2.7221,0,0,1-2.2436,1.1741H421.2952v32.57a2.7081,2.7081,0,0,1-5.4157,0v-88.637a2.69,2.69,0,0,1,2.7079-2.669"/>
    <path class="cls-2" d="M421.2952,159.05H485l-8.4979-20.9432a7.9078,7.9078,0,0,1,.1167-6.2276l8.2135-18.216H421.2952Zm-2.7078-53.3961a2.69,2.69,0,0,1,2.7078,2.669h67.7035a2.7149,2.7149,0,0,1,2.27,1.2153,2.6374,2.6374,0,0,1,.2042,2.54L481.57,134.047a2.643,2.643,0,0,0-.0413,2.0759l9.9855,24.604a2.6427,2.6427,0,0,1-.2722,2.489,2.7221,2.7221,0,0,1-2.2436,1.1741H421.2952v32.57a2.7081,2.7081,0,0,1-5.4157,0v-88.637A2.69,2.69,0,0,1,418.5874,105.6535Z"/>
  </g>
</svg>
