<svg id="Livello_1" data-name="Livello 1" xmlns="http://www.w3.org/2000/svg" viewBox="0 0 78.9423 78.9398">
  <defs>
    <style>
      .cls-1 {
        fill: red;
      }
    </style>
  </defs>
  <g>
    <path class="cls-1" d="M.0057,39.455c0-10.1014-.0167-20.2029.007-30.3043A9.1574,9.1574,0,0,1,9.18.0041Q34.8833-.0093,60.587.0049c3.0443,0,6.0886-.0068,9.1329.0021A9.176,9.176,0,0,1,78.937,9.2454q.01,30.2364-.0006,60.4727a9.16,9.16,0,0,1-9.1741,9.21q-30.3055.0234-60.6111,0A9.1333,9.1333,0,0,1,.0159,69.69Q-.0026,54.5725.0123,39.455ZM6.1514,39.38h.0049q0,3.1821,0,6.3642.0006,11.8637,0,23.7274a3.2217,3.2217,0,0,0,.9595,2.4355,3.51,3.51,0,0,0,2.6083.8808q29.7467-.0115,59.4932-.0059c.1614,0,.323.004.4842-.0025A3.0485,3.0485,0,0,0,72.7544,69.89c.0495-.5726.0247-1.152.0247-1.7283q.0014-29.2276,0-58.4555c0-2.3353-1.2041-3.5435-3.5321-3.5456q-7.5745-.0066-15.1492-.0034-13.5582-.002-27.1164-.0037Q18.2305,6.1527,9.48,6.1564A3.1058,3.1058,0,0,0,6.1534,9.4955Q6.1469,24.4379,6.1514,39.38Z"/>
    <path class="cls-1" d="M65.081,65.1965H54.4243v-.6646c.0009-5.6728.0422-11.3462-.0232-17.0183a20.9724,20.9724,0,0,0-.5735-4.7811c-.6125-2.4643-2.3114-3.6491-4.8528-3.7108-4.0308-.0979-6.415,2.0089-6.837,6.19-.18,1.7831-.1708,3.5892-.1788,5.3851-.0208,4.658-.0034,9.3163-.0013,13.9744,0,.18,0,.3606,0,.5943H31.5058V30.394H41.9437v4.4513A27.956,27.956,0,0,1,43.88,32.69a11.2954,11.2954,0,0,1,6.3424-2.8053,17.89,17.89,0,0,1,6.3209.3266,9.7669,9.7669,0,0,1,7.5632,7.2749,26.8159,26.8159,0,0,1,.9566,7.52c.0265,6.48.0145,12.96.0179,19.44C65.0811,64.6713,65.081,64.8969,65.081,65.1965Z"/>
    <path class="cls-1" d="M24.6526,30.4078V65.1644H13.9137V30.4078Z"/>
    <path class="cls-1" d="M19.4606,25.6058A6.3374,6.3374,0,1,1,25.7623,19.23,6.3825,6.3825,0,0,1,19.4606,25.6058Z"/>
  </g>
</svg>
