<?xml version="1.0" encoding="utf-8"?>
<!-- Generator: Adobe Illustrator 25.2.1, SVG Export Plug-In . SVG Version: 6.00 Build 0)  -->
<svg version="1.1" id="Livello_1" xmlns="http://www.w3.org/2000/svg" xmlns:xlink="http://www.w3.org/1999/xlink" x="0px" y="0px"
	 viewBox="0 0 512 512" style="enable-background:new 0 0 512 512;" xml:space="preserve">
<style type="text/css">
	.st0{fill:#FF0000;}
	.st1{fill:#E20613;}
</style>
<g>
	<path class="st0" d="M257.5,204.4c-27.5,0-45.6,20.7-45.6,52c0,31,18.2,52,45.6,52c27,0,45.6-21,45.6-52
		C303.1,225,284.5,204.4,257.5,204.4z"/>
	<path class="st0" d="M255.9,14.3c-133.7,0-242.1,108.4-242.1,242.1c0,133.7,108.4,242.1,242.1,242.1
		c133.7,0,242.1-108.4,242.1-242.1C498,122.7,389.6,14.3,255.9,14.3z M257.9,365c-67.9,0-113.1-43.6-113.1-108.6
		c0-65.4,45.2-108.6,113.1-108.6c11.6,0,22.4,1.4,32.6,3.8H361c-5.3,11-10.6,21.6-16,32.2c16.1,18.5,25.2,43.3,25.2,72.6
		C370.2,321.4,325,365,257.9,365z"/>
</g>
<g>
	<path class="st1" d="M762.9,285.2c-7.9,0-13.2,6-13.2,15c0,8.9,5.2,15,13.2,15c7.8,0,13.2-6.1,13.2-15
		C776.1,291.2,770.8,285.2,762.9,285.2z"/>
	<path class="st1" d="M762.5,230.3c-38.6,0-69.9,31.3-69.9,69.9c0,38.6,31.3,69.9,69.9,69.9c38.6,0,69.9-31.3,69.9-69.9
		C832.4,261.7,801.1,230.3,762.5,230.3z M763,331.6c-19.6,0-32.7-12.6-32.7-31.4c0-18.9,13.1-31.4,32.7-31.4c3.3,0,6.5,0.4,9.4,1.1
		h20.4c-1.5,3.2-3.1,6.3-4.6,9.3c4.6,5.3,7.3,12.5,7.3,21C795.5,319.1,782.4,331.6,763,331.6z"/>
</g>
<g>
	<path class="st1" d="M762.9,285.2c-7.9,0-13.2,6-13.2,15c0,8.9,5.2,15,13.2,15c7.8,0,13.2-6.1,13.2-15
		C776.1,291.2,770.8,285.2,762.9,285.2z"/>
	<path class="st1" d="M762.5,230.3c-38.6,0-69.9,31.3-69.9,69.9c0,38.6,31.3,69.9,69.9,69.9c38.6,0,69.9-31.3,69.9-69.9
		C832.4,261.7,801.1,230.3,762.5,230.3z M763,331.6c-19.6,0-32.7-12.6-32.7-31.4c0-18.9,13.1-31.4,32.7-31.4c3.3,0,6.5,0.4,9.4,1.1
		h20.4c-1.5,3.2-3.1,6.3-4.6,9.3c4.6,5.3,7.3,12.5,7.3,21C795.5,319.1,782.4,331.6,763,331.6z"/>
</g>
</svg>
